<svg width="467" height="333" viewBox="0 0 467 333" fill="none" xmlns="http://www.w3.org/2000/svg">
<path d="M356.269 221.37C356.328 218.88 356.191 210.625 348.419 202.583C341.172 195.086 329.92 194.094 325.709 196.306C328.922 191.814 327.816 180.847 322.061 173.428C312.791 161.477 300.059 163.498 296.849 163.913C296.718 162.602 296.158 159.157 293.774 155.362C291.04 151.011 285.281 145.387 273.371 143.299C260.081 140.97 251.343 144.393 246.352 147.673C241.945 150.568 239.638 153.798 238.875 155.006C236.361 153.241 223.798 145.342 210.097 152.905C203.927 156.311 200.552 160.923 198.723 165.218C193.696 163.765 189.762 165.451 188.137 166.363C188.137 166.363 175.171 161.276 167.488 172.18C159.804 183.083 166.085 192.104 166.085 192.104C166.085 192.104 155.405 192.388 146.299 202.971C132.973 218.459 138.79 234.218 138.79 234.218H368.106C368.38 234.218 368.601 233.996 368.601 233.724C368.601 224.219 358.537 221.795 356.269 221.37Z" fill="#E3BFFF"/>
<path d="M167.381 233.845H325.731C325.731 233.845 326.23 227.226 320.192 224.52C314.154 221.813 308.791 226.045 308.791 226.045C308.791 226.045 308.473 222.178 304.009 221.114C299.545 220.05 297.397 223.328 297.397 223.328C297.397 223.328 299.76 212.751 289.884 207.128C279.213 201.053 269.01 209.765 269.01 209.765C269.01 209.765 258.342 200.435 243.431 204.836C229.914 208.825 227.566 220.602 227.566 220.602C227.566 220.602 226.414 216.062 221.253 214.646C215.275 213.004 211.346 215.98 211.346 215.98C211.346 215.98 208.159 204.332 193.495 206.715C177.528 209.31 179.367 221.222 179.367 221.222C179.367 221.222 173.665 218.854 169.195 222.945C164.725 227.037 167.381 233.845 167.381 233.845Z" fill="#D7A3FF"/>
<path d="M335.21 121.989L333.803 121.158L334.634 119.751C334.856 119.375 334.73 118.885 334.354 118.662C333.978 118.44 333.488 118.566 333.266 118.942L332.435 120.35L331.027 119.519C330.651 119.296 330.161 119.422 329.939 119.798C329.716 120.175 329.843 120.665 330.219 120.887L331.626 121.718L330.795 123.125C330.573 123.502 330.699 123.991 331.075 124.213C331.451 124.436 331.941 124.31 332.163 123.933L332.994 122.526L334.402 123.357C334.778 123.579 335.268 123.453 335.49 123.077C335.713 122.701 335.587 122.211 335.21 121.989Z" fill="#D7A3FF"/>
<path d="M119.218 153.438L117.811 152.607L118.642 151.2C118.864 150.824 118.738 150.334 118.362 150.112C117.985 149.89 117.496 150.016 117.273 150.392L116.442 151.799L115.035 150.968C114.658 150.746 114.169 150.872 113.947 151.248C113.725 151.624 113.85 152.114 114.227 152.336L115.634 153.167L114.803 154.574C114.581 154.951 114.707 155.441 115.083 155.663C115.459 155.885 115.949 155.759 116.171 155.382L117.002 153.975L118.409 154.806C118.786 155.028 119.276 154.902 119.498 154.526C119.721 154.15 119.595 153.661 119.218 153.438Z" fill="#D7A3FF"/>
<path d="M381.922 169.345L381.02 168.812L381.553 167.909C381.695 167.668 381.615 167.354 381.373 167.211C381.132 167.068 380.818 167.149 380.675 167.391L380.142 168.293L379.239 167.76C378.998 167.617 378.684 167.698 378.541 167.94C378.398 168.181 378.479 168.495 378.721 168.638L379.624 169.171L379.09 170.074C378.947 170.315 379.028 170.63 379.27 170.772C379.511 170.915 379.825 170.834 379.968 170.592L380.501 169.69L381.404 170.223C381.645 170.366 381.959 170.285 382.102 170.043C382.245 169.802 382.164 169.488 381.922 169.345Z" fill="#D7A3FF"/>
<path d="M160.723 125.629L159.556 124.939L160.245 123.773C160.429 123.461 160.325 123.055 160.013 122.87C159.701 122.686 159.295 122.79 159.111 123.102L158.422 124.269L157.255 123.58C156.943 123.396 156.537 123.5 156.353 123.812C156.168 124.124 156.273 124.531 156.585 124.715L157.752 125.404L157.062 126.57C156.878 126.882 156.983 127.289 157.295 127.473C157.607 127.657 158.012 127.552 158.197 127.241L158.886 126.074L160.053 126.763C160.365 126.947 160.771 126.843 160.955 126.531C161.139 126.219 161.035 125.813 160.723 125.629Z" fill="#D7A3FF"/>
<path d="M408.046 240.839C408.046 240.839 409.298 244.486 400.486 248.494C390.144 253.196 365.009 249.653 362.551 258.335C359.867 267.815 379.678 265.142 379.451 276.211C379.258 285.621 365.784 285.277 350.597 285.277C335.409 285.277 192.647 285.277 180.347 285.277C168.047 285.277 170.273 277.074 172.014 273.34C174.543 267.917 173.431 262.914 162.363 262.222C151.62 261.552 143.752 260.975 137.888 260.975C122.251 260.975 125.32 249.626 113.137 249.626C105.26 249.626 95.7832 245.263 95.7832 240.206C145.594 233.188 198.611 229.138 254.515 229.384C308.499 229.621 359.772 233.841 408.046 240.839Z" fill="white"/>
<path d="M188.003 264.285V243.455L188.881 241.262V196.202L195.568 199.82L163.555 242.249L155.771 236.438H213V249.375H149.631V236.438L188.442 185.348H205.106V264.285H188.003ZM252.586 265.382C246.008 265.382 240.124 263.664 234.935 260.229C229.819 256.72 225.799 251.896 222.875 245.757C219.951 239.544 218.49 232.455 218.49 224.488C218.49 216.521 219.951 209.541 222.875 203.547C225.799 197.481 229.819 192.767 234.935 189.405C240.124 185.969 246.008 184.252 252.586 184.252C259.237 184.252 265.121 185.969 270.237 189.405C275.354 192.767 279.374 197.481 282.297 203.547C285.221 209.541 286.682 216.521 286.682 224.488C286.682 232.528 285.221 239.617 282.297 245.757C279.374 251.896 275.317 256.72 270.128 260.229C265.011 263.664 259.164 265.382 252.586 265.382ZM252.586 251.348C256.314 251.348 259.383 250.106 261.795 247.621C264.207 245.136 265.998 241.847 267.167 237.754C268.337 233.66 268.922 229.202 268.922 224.378C268.922 219.554 268.337 215.169 267.167 211.222C265.998 207.275 264.207 204.132 261.795 201.793C259.383 199.454 256.314 198.285 252.586 198.285C248.858 198.285 245.789 199.491 243.377 201.903C240.965 204.242 239.174 207.385 238.005 211.332C236.835 215.278 236.25 219.627 236.25 224.378C236.25 229.275 236.835 233.77 238.005 237.863C239.174 241.956 240.965 245.245 243.377 247.73C245.862 250.142 248.932 251.348 252.586 251.348ZM330.507 264.285V243.455L331.384 241.262V196.202L338.072 199.82L306.059 242.249L298.275 236.438H355.504V249.375H292.135V236.438L330.946 185.348H347.61V264.285H330.507Z" fill="black"/>
<path d="M251.941 170.64C251.67 170.329 251.187 170.242 250.916 169.854C250.64 169.459 250.486 168.931 250.584 168.453C250.683 167.972 251.012 167.56 251.423 167.302C251.868 167.023 252.395 166.924 252.906 167.062C253.335 167.178 253.698 167.433 253.913 167.828C254.159 168.277 254.228 168.913 254.067 169.403C253.872 169.998 253.374 170.334 252.844 170.606C252.536 170.638 252.251 170.65 251.941 170.64Z" fill="#D7A3FF"/>
<path d="M282.472 248.015C283.019 247.773 283.567 247.523 284.128 247.315C285.658 246.749 287.008 246.711 288.495 247.4C288.721 247.567 288.976 247.664 289.233 247.775L289.413 247.786C291.368 248.342 292.86 249.954 293.817 251.69C293.933 251.901 294.027 252.137 294.155 252.339V257.174C292.449 257.244 290.72 257.189 289.013 257.186L288.043 257.181C286.793 257.238 285.519 257.191 284.266 257.193C283.051 257.196 281.809 257.252 280.596 257.182C279.988 257.373 279.097 257.242 278.452 257.205L277.869 257.183C277.983 256.123 278.625 255.266 279.158 254.382C279.133 253.595 279.1 252.842 279.315 252.075C279.761 250.487 281.038 248.83 282.472 248.015Z" fill="#986FB8"/>
<path d="M216.602 247.068C217.15 246.826 217.697 246.576 218.259 246.368C219.789 245.802 221.139 245.764 222.626 246.453C222.852 246.62 223.107 246.717 223.364 246.828L223.544 246.839C225.499 247.395 226.991 249.007 227.947 250.743C228.064 250.953 228.158 251.19 228.286 251.392V256.227C226.58 256.297 224.851 256.242 223.144 256.238L222.174 256.234C220.924 256.29 219.65 256.243 218.397 256.246C217.182 256.249 215.94 256.305 214.727 256.234C214.119 256.425 213.227 256.294 212.583 256.258L212 256.236C212.114 255.176 212.755 254.319 213.289 253.435C213.263 252.648 213.231 251.895 213.446 251.127C213.892 249.54 215.169 247.883 216.602 247.068Z" fill="#986FB8"/>
<path d="M276.615 216.982C277.573 217.361 279.125 219.206 279.785 220.036C279.234 220.482 277.15 222.312 276.628 222.422L276.63 219.65C276.64 218.761 276.635 217.872 276.615 216.982Z" fill="#D7A3FF"/>
<path d="M282.52 245.005C284.573 244.846 286.627 244.57 288.677 244.359C288.691 245.262 288.854 246.556 288.495 247.399C287.008 246.71 285.658 246.748 284.128 247.314C283.566 247.522 283.019 247.772 282.471 248.014C282.506 247.011 282.522 246.008 282.52 245.005Z" fill="#D7A3FF"/>
<path d="M280.121 220.379C280.961 221.358 281.651 222.509 282.312 223.615C280.699 224.665 279.138 225.791 277.501 226.805C277.199 226.331 276.851 225.841 276.619 225.33L276.612 223.512L276.614 223.084C277.858 222.292 278.894 221.178 280.121 220.379Z" fill="#D7A3FF"/>
<path d="M288.216 240.352L288.294 240.356C288.503 240.632 288.645 243.358 288.681 243.864C286.692 244.1 284.679 244.176 282.697 244.455L282.602 244.432C282.401 244.242 282.263 241.782 282.222 241.366C284.229 241.079 286.212 240.652 288.216 240.352Z" fill="#D7A3FF"/>
<path d="M284.64 227.881C285.21 228.393 285.81 230.671 286.094 231.485C284.333 232.255 282.504 232.891 280.721 233.611C280.592 233.675 280.581 233.698 280.432 233.688C280.055 232.727 279.794 231.723 279.395 230.771C281.076 229.718 282.896 228.829 284.64 227.881Z" fill="#D7A3FF"/>
<path d="M282.558 224.087L282.644 224.074C283.075 224.376 284.171 226.824 284.453 227.42C282.761 228.218 281.126 229.232 279.498 230.154C279.393 230.207 279.301 230.238 279.187 230.266C278.611 229.278 278.322 228.174 277.699 227.186C279.359 226.219 280.915 225.08 282.558 224.087Z" fill="#D7A3FF"/>
<path d="M287.501 236.238L287.538 236.248C287.832 236.612 288.181 239.294 288.282 239.9L282.289 240.861L282.195 240.86C281.987 240.661 281.631 238.228 281.568 237.809C283.488 237.181 285.534 236.697 287.501 236.238Z" fill="#D7A3FF"/>
<path d="M286.262 231.99L286.35 232.031C286.837 233.246 287.068 234.538 287.48 235.775C286.627 236.026 285.741 236.19 284.876 236.397C283.821 236.65 282.775 236.944 281.728 237.226L281.562 237.261C281.282 237.072 280.8 234.725 280.621 234.221L280.593 234.144C282.5 233.493 284.373 232.7 286.262 231.99Z" fill="#D7A3FF"/>
<path d="M232.373 246.861C233.641 247.1 235.02 246.999 236.306 246.996C238.28 246.986 240.254 246.988 242.228 247.003C252.553 247.098 262.878 247.129 273.203 247.097L273.225 251.038C273.235 252.26 273.378 253.693 273.067 254.877C272.874 255.617 272.493 256.262 271.954 256.801C271.895 256.861 271.836 256.919 271.774 256.975C271.227 257.296 270.699 257.484 270.058 257.522C268.593 257.609 267.084 257.527 265.615 257.523L257.071 257.524L240.695 257.55C239.403 257.55 235.391 257.691 234.406 257.44C234.139 257.372 233.874 257.274 233.623 257.162C233.467 257.053 233.319 256.939 233.183 256.806C233.14 256.763 233.098 256.72 233.058 256.675C233.018 256.629 232.979 256.583 232.942 256.535C232.905 256.487 232.871 256.437 232.837 256.387C232.804 256.336 232.773 256.285 232.744 256.232C232.714 256.179 232.687 256.125 232.661 256.07C232.636 256.016 232.613 255.96 232.591 255.903C232.57 255.847 232.55 255.789 232.533 255.732C232.516 255.674 232.501 255.615 232.488 255.556C232.266 254.555 232.38 253.359 232.378 252.335L232.373 246.861Z" fill="#282828"/>
<path d="M276.698 235.996C276.698 237.437 276.713 238.878 276.74 240.319C276.762 241.495 276.92 242.803 276.689 243.953C276.543 244.686 276.222 245.394 275.697 245.934C275.038 246.613 274.122 246.958 273.202 247.099C262.877 247.131 252.552 247.1 242.228 247.005C240.254 246.99 238.28 246.987 236.306 246.998C235.02 247.001 233.641 247.102 232.373 246.863C231.947 246.713 231.549 246.545 231.172 246.292C230.043 245.531 229.437 244.399 229.185 243.087C229.337 240.943 229.22 238.519 229.215 236.343L258.805 236.285C263.224 236.303 267.643 236.238 272.06 236.092C273.6 236.047 275.163 236.108 276.698 235.996Z" fill="#444444"/>
<path d="M235.596 238.594C237.203 238.531 238.831 238.59 240.441 238.584C241.129 238.582 242.659 238.463 243.262 238.605C243.427 238.644 243.475 238.725 243.556 238.862C243.567 239.081 243.517 239.188 243.413 239.378C242.668 239.419 236.128 239.559 235.708 239.386C235.614 239.348 235.57 239.306 235.526 239.217C235.416 238.995 235.511 238.805 235.596 238.594Z" fill="#282828"/>
<path d="M235.674 243.455C236.751 243.453 242.903 243.329 243.417 243.605C243.503 243.738 243.544 243.799 243.504 243.967C243.461 244.15 243.334 244.201 243.193 244.296C242.329 244.315 235.93 244.44 235.476 244.204C235.397 244.059 235.38 244.018 235.405 243.847C235.432 243.664 235.527 243.56 235.674 243.455Z" fill="#282828"/>
<path d="M262.588 240.902C263.508 240.975 264.45 240.947 265.374 240.949C266.743 240.955 268.112 240.95 269.482 240.934C270.375 240.919 271.319 240.83 272.206 240.904C272.369 240.918 272.452 240.961 272.572 241.07C272.603 241.21 272.621 241.273 272.531 241.403C272.41 241.578 272.289 241.576 272.1 241.617L265.248 241.648C264.469 241.652 263.185 241.779 262.477 241.65C262.291 241.616 262.189 241.558 262.082 241.405L262.111 241.247C262.248 241.06 262.38 240.998 262.588 240.902Z" fill="#282828"/>
<path d="M262.464 239.032C264.54 238.974 266.634 239.027 268.712 239.033C269.766 239.036 270.886 238.941 271.929 239.025C272.118 239.041 272.348 239.054 272.49 239.195C272.556 239.261 272.53 239.308 272.527 239.393C272.414 239.557 272.385 239.619 272.202 239.709C271.13 239.754 262.73 239.876 262.222 239.691C262.104 239.571 262.105 239.583 262.103 239.415C262.191 239.212 262.278 239.148 262.464 239.032Z" fill="#282828"/>
<path d="M235.943 240.976C237.543 240.948 239.144 240.995 240.745 240.996C241.469 240.997 242.247 240.9 242.961 241.001C243.196 241.035 243.375 241.092 243.52 241.287C243.566 241.474 243.523 241.552 243.454 241.723C243.318 241.86 243.219 241.87 243.038 241.894L238.574 241.904C237.747 241.914 236.84 242.024 236.022 241.908C235.768 241.871 235.549 241.815 235.389 241.602C235.377 241.441 235.392 241.331 235.497 241.199C235.638 241.024 235.739 241.025 235.943 240.976Z" fill="#282828"/>
<path d="M262.779 242.777C264.853 242.81 266.926 242.82 269 242.806C269.94 242.8 270.888 242.755 271.826 242.782C272.123 242.791 272.348 242.774 272.564 243C272.602 243.173 272.61 243.178 272.534 243.335C272.357 243.444 272.23 243.474 272.025 243.5C269.756 243.544 267.486 243.561 265.217 243.549C264.345 243.549 263.381 243.657 262.522 243.551C262.312 243.525 262.203 243.49 262.075 243.321C262.07 243.223 262.044 243.157 262.103 243.072C262.256 242.851 262.533 242.816 262.779 242.777Z" fill="#282828"/>
<path d="M252.735 237.418C253.7 237.349 254.56 237.367 255.43 237.849C256.306 238.334 256.933 239.177 257.198 240.137C257.215 240.2 257.23 240.264 257.244 240.328C257.258 240.392 257.27 240.456 257.281 240.52C257.291 240.585 257.301 240.65 257.308 240.714C257.315 240.779 257.321 240.844 257.326 240.91C257.33 240.975 257.333 241.04 257.334 241.106C257.335 241.171 257.334 241.236 257.332 241.301C257.33 241.367 257.327 241.432 257.321 241.497C257.316 241.562 257.309 241.627 257.301 241.692C257.292 241.757 257.282 241.821 257.27 241.886C257.259 241.95 257.246 242.014 257.231 242.078C257.216 242.141 257.2 242.205 257.182 242.268C257.164 242.33 257.145 242.393 257.124 242.455C257.103 242.517 257.081 242.578 257.057 242.639C257.033 242.7 257.007 242.76 256.981 242.82C256.954 242.879 256.925 242.938 256.896 242.996C256.866 243.054 256.835 243.112 256.802 243.169C256.195 244.234 255.209 244.857 254.046 245.168C253.104 245.339 252.097 245.084 251.285 244.592C250.401 244.056 249.797 243.227 249.552 242.224C249.537 242.161 249.523 242.097 249.511 242.033C249.499 241.969 249.488 241.904 249.479 241.839C249.47 241.775 249.463 241.71 249.457 241.645C249.451 241.58 249.447 241.515 249.444 241.449C249.442 241.384 249.441 241.319 249.441 241.253C249.442 241.188 249.444 241.123 249.447 241.058C249.451 240.992 249.456 240.927 249.463 240.862C249.47 240.797 249.478 240.733 249.488 240.668C249.498 240.604 249.51 240.539 249.523 240.475C249.536 240.411 249.551 240.348 249.567 240.285C249.583 240.221 249.601 240.158 249.62 240.096C249.64 240.034 249.66 239.972 249.683 239.91C249.705 239.849 249.729 239.788 249.754 239.728C249.779 239.668 249.806 239.608 249.834 239.549C249.862 239.49 249.892 239.432 249.923 239.374C249.954 239.317 249.986 239.26 250.02 239.204C250.659 238.157 251.579 237.701 252.735 237.418Z" fill="#DADADA"/>
<path d="M253.195 239.286C253.555 239.268 253.88 239.333 254.208 239.484C254.268 239.512 254.326 239.543 254.382 239.576C254.439 239.61 254.493 239.646 254.546 239.686C254.599 239.725 254.649 239.767 254.697 239.812C254.746 239.856 254.791 239.903 254.835 239.953C254.878 240.002 254.919 240.053 254.957 240.107C254.995 240.161 255.03 240.216 255.062 240.273C255.095 240.331 255.124 240.389 255.15 240.45C255.176 240.51 255.199 240.572 255.219 240.634C255.384 241.144 255.356 241.707 255.102 242.183C254.783 242.781 254.266 243.026 253.65 243.219C253.601 243.225 253.551 243.23 253.501 243.233C253.452 243.235 253.402 243.236 253.352 243.235C253.302 243.234 253.252 243.231 253.203 243.226C253.153 243.221 253.104 243.214 253.055 243.205C253.005 243.196 252.957 243.185 252.909 243.173C252.86 243.16 252.812 243.146 252.765 243.13C252.718 243.113 252.672 243.095 252.626 243.076C252.58 243.056 252.535 243.034 252.491 243.011C252.434 242.981 252.378 242.947 252.324 242.911C252.27 242.874 252.218 242.835 252.169 242.794C252.119 242.752 252.071 242.708 252.026 242.661C251.981 242.615 251.938 242.566 251.898 242.515C251.857 242.464 251.82 242.411 251.785 242.356C251.751 242.301 251.719 242.244 251.69 242.186C251.661 242.128 251.635 242.068 251.613 242.007C251.59 241.947 251.571 241.885 251.554 241.822C251.537 241.756 251.524 241.69 251.513 241.623C251.503 241.556 251.496 241.489 251.493 241.421C251.489 241.354 251.489 241.286 251.492 241.219C251.495 241.151 251.502 241.084 251.512 241.017C251.522 240.95 251.536 240.884 251.553 240.818C251.569 240.753 251.589 240.688 251.613 240.625C251.636 240.561 251.662 240.499 251.692 240.438C251.722 240.377 251.754 240.318 251.79 240.26C252.116 239.721 252.6 239.444 253.195 239.286Z" fill="#282828"/>
<path d="M216.512 244.594C218.698 244.281 221.605 244.369 223.8 244.572C223.798 245.624 223.78 246.678 223.81 247.73C222.295 246.718 220.961 246.187 219.116 246.559C218.148 246.754 217.331 247.169 216.562 247.78C216.526 246.718 216.509 245.656 216.512 244.594Z" fill="#D7A3FF"/>
<path d="M229.093 232.533C229.276 233.406 229.198 235.361 229.215 236.347C229.22 238.522 229.337 240.947 229.185 243.09C229.028 242.519 229.154 240.935 229.158 240.264L229.152 235.19L225.109 235.212L225.184 234.927C226.081 234.912 226.958 234.819 227.746 234.355C228.459 233.935 228.874 233.319 229.093 232.533Z" fill="#001521"/>
<path d="M217.303 236.362C217.61 236.36 217.917 236.364 218.224 236.375C218.53 236.387 218.837 236.405 219.143 236.429C219.449 236.454 219.754 236.486 220.059 236.524C220.363 236.562 220.667 236.607 220.969 236.658C221.272 236.709 221.573 236.768 221.873 236.832C222.174 236.897 222.472 236.968 222.769 237.046C223.066 237.123 223.361 237.208 223.654 237.298C223.948 237.389 224.239 237.486 224.528 237.59C224.335 238.758 224.112 239.94 224.009 241.12C223.905 242.145 223.868 243.171 223.815 244.199L223.801 244.566C221.606 244.363 218.699 244.275 216.513 244.588L216.507 244.104C216.512 242.916 216.578 241.732 216.704 240.551L216.74 240.128C216.861 238.871 216.978 237.586 217.303 236.362Z" fill="#D7A3FF"/>
<path d="M216.74 240.13C218.067 240.122 222.956 240.16 223.973 240.738L224.008 241.122C221.645 240.507 219.13 240.425 216.703 240.552L216.74 240.13Z" fill="#DADADA"/>
<path d="M216.704 240.553C219.131 240.426 221.646 240.508 224.009 241.123C223.905 242.147 223.868 243.173 223.815 244.201L223.801 244.568C221.606 244.366 218.699 244.277 216.513 244.59L216.507 244.106C216.512 242.919 216.578 241.734 216.704 240.553Z" fill="#D7A3FF"/>
<path d="M216.507 244.105C218.925 244.063 221.41 243.916 223.815 244.2L223.801 244.567C221.606 244.364 218.699 244.276 216.513 244.588L216.507 244.105Z" fill="#DADADA"/>
<path d="M220.05 227.861C220.543 227.877 221.06 228.038 221.538 228.157C223.466 228.637 225.26 229.297 226.798 230.589L226.624 230.985L226.514 231.242C226.171 232.052 225.843 232.868 225.53 233.69L225.399 234.136L225.183 234.925L225.108 235.21C224.834 235.675 224.741 236.631 224.639 237.179L224.527 237.593C224.238 237.489 223.947 237.392 223.653 237.302C223.36 237.211 223.065 237.127 222.768 237.049C222.471 236.971 222.173 236.9 221.872 236.835C221.572 236.771 221.271 236.713 220.968 236.661C220.666 236.61 220.362 236.565 220.058 236.527C219.753 236.489 219.448 236.457 219.142 236.433C218.836 236.408 218.53 236.39 218.223 236.379C217.916 236.367 217.609 236.363 217.302 236.365L217.315 236.026C217.468 235.688 217.503 235.215 217.573 234.846C217.85 233.967 218.051 233.062 218.329 232.18L218.432 231.848C218.483 231.693 218.499 231.543 218.516 231.381L218.513 231.333C218.779 231.181 219.688 228.639 219.884 228.169C219.944 228.07 219.995 227.964 220.05 227.861Z" fill="#D7A3FF"/>
<path d="M220.051 227.861C220.543 227.877 221.061 228.038 221.539 228.157C223.467 228.637 225.26 229.297 226.798 230.589L226.625 230.985C225.383 229.714 223.186 228.896 221.473 228.516C221.024 228.416 220.266 228.406 219.885 228.169C219.945 228.07 219.996 227.964 220.051 227.861Z" fill="#DADADA"/>
<path d="M218.433 231.848C220.81 231.863 223.487 232.425 225.531 233.689L225.4 234.135C223.427 232.856 220.668 232.241 218.33 232.179L218.433 231.848Z" fill="#DADADA"/>
<path d="M218.329 232.18C220.667 232.241 223.426 232.856 225.399 234.136L225.183 234.925L225.108 235.21C224.834 235.675 224.741 236.631 224.639 237.179L224.527 237.592C224.238 237.489 223.947 237.392 223.653 237.301C223.36 237.21 223.065 237.126 222.768 237.048C222.471 236.971 222.173 236.9 221.872 236.835C221.572 236.77 221.271 236.712 220.968 236.661C220.666 236.609 220.362 236.565 220.058 236.526C219.753 236.488 219.448 236.457 219.142 236.432C218.836 236.407 218.53 236.389 218.223 236.378C217.916 236.367 217.609 236.362 217.302 236.364L217.315 236.026C217.468 235.687 217.503 235.215 217.573 234.845C217.85 233.967 218.051 233.062 218.329 232.18Z" fill="#D7A3FF"/>
<path d="M217.315 236.03C219.41 235.918 222.702 236.393 224.639 237.183L224.527 237.596C224.238 237.493 223.947 237.396 223.653 237.305C223.36 237.214 223.065 237.13 222.768 237.052C222.471 236.975 222.173 236.903 221.872 236.839C221.572 236.774 221.271 236.716 220.968 236.665C220.666 236.613 220.362 236.568 220.058 236.53C219.753 236.492 219.448 236.461 219.142 236.436C218.836 236.411 218.53 236.393 218.223 236.382C217.916 236.371 217.609 236.366 217.302 236.368L217.315 236.03Z" fill="#DADADA"/>
<path d="M229.165 219.213C229.186 219.4 229.181 219.575 229.283 219.737C229.995 219.813 230.736 219.773 231.452 219.772C232.779 219.774 234.105 219.767 235.432 219.753L246.449 219.693L268.458 219.707L273.402 219.668C274.474 219.666 275.561 219.706 276.63 219.651L276.628 222.423L276.614 223.085L276.612 223.513L276.619 225.33C276.621 225.641 276.612 225.955 276.629 226.264C276.678 229.508 276.63 232.756 276.698 235.998C275.164 236.111 273.6 236.05 272.06 236.094C267.643 236.241 263.224 236.305 258.805 236.287L229.215 236.346C229.198 235.36 229.276 233.405 229.093 232.532C228.875 233.318 228.459 233.934 227.746 234.354C226.958 234.818 226.081 234.911 225.184 234.926L225.4 234.137L225.531 233.69C225.843 232.868 226.171 232.052 226.515 231.242L226.625 230.985L226.798 230.59C227.29 229.735 227.661 228.752 228.088 227.857L228.26 227.535C228.525 226.955 228.863 226.387 229.163 225.823C229.11 225.246 229.14 224.633 229.121 224.052L229.151 223.955L229.143 223.6L229.153 219.547L229.165 219.213Z" fill="#444444"/>
<path d="M248.068 223.479C248.53 223.439 248.958 223.495 249.378 223.701C249.445 223.734 249.51 223.77 249.573 223.809C249.636 223.848 249.697 223.89 249.756 223.936C249.815 223.981 249.871 224.029 249.925 224.081C249.979 224.132 250.03 224.185 250.079 224.242C250.127 224.298 250.173 224.356 250.216 224.417C250.258 224.478 250.298 224.541 250.334 224.606C250.37 224.67 250.403 224.737 250.433 224.805C250.463 224.873 250.489 224.943 250.511 225.013C250.523 225.048 250.533 225.083 250.542 225.119C250.552 225.154 250.56 225.19 250.568 225.226C250.575 225.261 250.582 225.297 250.588 225.333C250.594 225.37 250.598 225.406 250.602 225.442C250.606 225.479 250.609 225.515 250.611 225.552C250.613 225.588 250.614 225.625 250.615 225.662C250.615 225.698 250.614 225.735 250.612 225.771C250.61 225.808 250.608 225.844 250.604 225.881C250.601 225.917 250.596 225.954 250.591 225.99C250.585 226.026 250.579 226.062 250.572 226.098C250.564 226.134 250.556 226.17 250.547 226.205C250.538 226.24 250.528 226.276 250.517 226.311C250.506 226.346 250.495 226.38 250.482 226.415C250.469 226.449 250.456 226.483 250.441 226.517C250.427 226.55 250.412 226.584 250.395 226.616C250.379 226.649 250.362 226.682 250.345 226.714C249.97 227.378 249.362 227.693 248.657 227.894C248.108 227.912 247.654 227.887 247.163 227.61C246.601 227.293 246.161 226.728 246.008 226.099C245.992 226.035 245.979 225.97 245.969 225.905C245.96 225.839 245.953 225.773 245.95 225.707C245.947 225.641 245.948 225.575 245.951 225.509C245.955 225.442 245.961 225.377 245.972 225.311C245.982 225.246 245.995 225.181 246.012 225.117C246.028 225.052 246.048 224.989 246.071 224.927C246.094 224.865 246.12 224.804 246.149 224.744C246.178 224.685 246.21 224.627 246.244 224.57C246.662 223.9 247.343 223.659 248.068 223.479Z" fill="#DADADA"/>
<path d="M239.375 223.482C239.962 223.409 240.487 223.456 241.014 223.744C241.546 224.035 241.985 224.535 242.154 225.123C242.314 225.68 242.236 226.315 241.95 226.819C241.607 227.423 241.062 227.709 240.416 227.885C239.893 227.952 239.384 227.943 238.888 227.744C238.854 227.73 238.819 227.716 238.786 227.7C238.752 227.685 238.718 227.669 238.685 227.652C238.652 227.635 238.619 227.617 238.587 227.598C238.555 227.579 238.524 227.56 238.492 227.539C238.461 227.519 238.431 227.498 238.401 227.476C238.371 227.454 238.341 227.431 238.312 227.408C238.283 227.385 238.255 227.361 238.227 227.336C238.199 227.311 238.172 227.285 238.146 227.259C238.12 227.233 238.094 227.206 238.069 227.179C238.044 227.151 238.019 227.123 237.996 227.094C237.972 227.066 237.949 227.036 237.927 227.006C237.905 226.977 237.883 226.946 237.863 226.915C237.842 226.884 237.822 226.853 237.803 226.821C237.784 226.789 237.766 226.756 237.749 226.723C237.732 226.69 237.715 226.657 237.699 226.623C237.684 226.59 237.669 226.556 237.655 226.521C237.628 226.453 237.604 226.383 237.584 226.312C237.563 226.241 237.547 226.169 237.534 226.097C237.521 226.025 237.511 225.952 237.506 225.878C237.5 225.805 237.498 225.731 237.5 225.657C237.501 225.584 237.507 225.51 237.516 225.437C237.525 225.364 237.538 225.292 237.554 225.22C237.571 225.148 237.591 225.077 237.614 225.007C237.638 224.937 237.665 224.869 237.695 224.802C238.032 224.058 238.648 223.743 239.375 223.482Z" fill="#DADADA"/>
<path d="M256.333 223.42C256.8 223.392 257.222 223.468 257.641 223.682C258.218 223.978 258.676 224.511 258.851 225.138C259.013 225.715 258.933 226.315 258.614 226.825C258.212 227.465 257.593 227.789 256.877 227.95C256.322 227.967 255.809 227.891 255.324 227.605C254.795 227.294 254.394 226.785 254.252 226.185C254.243 226.149 254.236 226.113 254.23 226.077C254.223 226.041 254.218 226.004 254.213 225.968C254.209 225.931 254.205 225.895 254.202 225.858C254.2 225.822 254.198 225.785 254.197 225.748C254.196 225.711 254.197 225.675 254.198 225.638C254.199 225.601 254.201 225.565 254.204 225.528C254.207 225.491 254.211 225.455 254.216 225.419C254.221 225.382 254.227 225.346 254.234 225.31C254.24 225.274 254.248 225.238 254.257 225.202C254.265 225.166 254.275 225.131 254.285 225.096C254.296 225.061 254.307 225.026 254.32 224.991C254.332 224.956 254.345 224.922 254.359 224.888C254.373 224.854 254.388 224.821 254.404 224.788C254.419 224.754 254.436 224.722 254.454 224.689C254.471 224.657 254.489 224.625 254.508 224.594C254.528 224.562 254.547 224.532 254.568 224.501C254.99 223.87 255.612 223.568 256.333 223.42Z" fill="#DADADA"/>
<path d="M264.739 223.426C265.266 223.394 265.809 223.493 266.269 223.761C266.793 224.067 267.189 224.56 267.338 225.152C267.477 225.706 267.374 226.277 267.078 226.763C266.686 227.407 266.107 227.726 265.392 227.885C264.725 227.9 264.176 227.829 263.608 227.437C263.114 227.097 262.748 226.583 262.645 225.987C262.639 225.951 262.633 225.915 262.629 225.879C262.625 225.843 262.621 225.807 262.619 225.771C262.616 225.735 262.614 225.698 262.614 225.662C262.613 225.626 262.613 225.589 262.614 225.553C262.616 225.517 262.618 225.48 262.621 225.444C262.624 225.408 262.627 225.372 262.632 225.336C262.637 225.3 262.643 225.264 262.65 225.228C262.656 225.193 262.664 225.157 262.672 225.122C262.681 225.086 262.69 225.051 262.7 225.016C262.711 224.982 262.722 224.947 262.734 224.913C262.746 224.878 262.759 224.844 262.773 224.811C262.786 224.777 262.801 224.744 262.817 224.711C262.832 224.678 262.848 224.646 262.865 224.614C262.882 224.582 262.9 224.55 262.919 224.519C262.938 224.488 262.957 224.457 262.978 224.427C262.998 224.397 263.019 224.367 263.041 224.338C263.461 223.786 264.073 223.531 264.739 223.426Z" fill="#DADADA"/>
<path d="M229.152 223.954C229.629 224.236 230.054 224.685 230.489 225.035C231.103 225.529 231.763 225.952 232.441 226.353C233.917 227.226 235.482 228.063 237.073 228.707C241.471 230.485 246.8 231.281 251.524 231.304C253.78 231.315 256.053 231.333 258.299 231.104C264.664 230.456 271.977 228.102 276.612 223.512L276.619 225.329C276.621 225.639 276.612 225.953 276.629 226.263C276.678 229.507 276.63 232.755 276.698 235.997C275.164 236.11 273.6 236.049 272.06 236.093C267.643 236.24 263.224 236.304 258.805 236.286L229.215 236.345C229.198 235.359 229.276 233.404 229.093 232.531C228.875 233.317 228.459 233.933 227.746 234.353C226.958 234.817 226.081 234.91 225.184 234.924L225.4 234.135L225.531 233.689C225.843 232.867 226.171 232.051 226.515 231.241L226.625 230.984L226.798 230.588C227.29 229.733 227.661 228.751 228.088 227.856L228.26 227.534C228.525 226.954 228.863 226.385 229.163 225.821C229.11 225.245 229.14 224.632 229.121 224.05L229.152 223.954Z" fill="#282828"/>
<path d="M228.26 227.535C228.525 226.955 228.863 226.386 229.163 225.822C229.171 227.631 229.169 229.439 229.158 231.247L227.951 231.256C227.475 231.231 226.992 231.245 226.515 231.242L226.625 230.985L226.798 230.589C227.29 229.734 227.661 228.752 228.088 227.857L228.26 227.535Z" fill="#444444"/>
<path d="M251.941 170.639C252.251 170.65 252.536 170.638 252.844 170.605L252.871 177.073L262.214 177.061C263.551 177.063 265.785 176.913 267.024 177.217C268.242 177.515 269.406 178.247 270.289 179.123C271.957 180.78 272.427 182.806 272.421 185.084C272.42 185.651 272.279 189.085 272.48 189.351C273.172 189.35 273.877 189.307 274.568 189.337C274.979 189.611 275.317 189.918 275.403 190.428C275.564 191.378 275.445 193.023 275.451 194.034C275.458 195.3 275.575 196.623 275.49 197.883C275.252 198.294 275.058 198.605 274.571 198.74C273.913 198.923 273.079 198.771 272.39 198.803C272.444 199.821 272.408 200.855 272.407 201.875C272.405 204.467 272.416 206.777 270.57 208.829C270.499 208.909 270.427 208.987 270.352 209.063C270.277 209.139 270.201 209.213 270.122 209.286C270.044 209.358 269.964 209.428 269.882 209.497C269.8 209.565 269.716 209.631 269.631 209.695C269.545 209.759 269.459 209.821 269.37 209.881C269.282 209.941 269.192 209.998 269.1 210.054C269.009 210.109 268.917 210.162 268.823 210.212C268.729 210.263 268.633 210.311 268.537 210.357C268.441 210.403 268.343 210.446 268.245 210.487C268.146 210.528 268.046 210.566 267.946 210.602C267.846 210.638 267.744 210.671 267.642 210.702C267.54 210.733 267.437 210.761 267.333 210.787C267.23 210.812 267.126 210.835 267.021 210.856C266.916 210.876 266.811 210.894 266.705 210.909C266.6 210.924 266.494 210.937 266.387 210.946C266.281 210.956 266.175 210.963 266.068 210.968C264.227 211.06 262.369 210.913 260.526 210.977L260.523 212.464C260.575 212.574 260.541 212.567 260.642 212.595C261.177 212.741 262.4 212.629 262.992 212.629L268.122 212.633C269.604 212.628 271.712 212.44 273.09 212.822C274.239 213.14 275.224 213.791 275.872 214.798C276.107 215.162 276.305 215.568 276.481 215.963C276.54 216.303 276.599 216.636 276.615 216.982C276.635 217.871 276.64 218.76 276.63 219.65C275.56 219.705 274.473 219.664 273.402 219.666L268.458 219.705L246.449 219.691L235.432 219.752C234.105 219.766 232.779 219.772 231.452 219.771C230.736 219.771 229.995 219.812 229.283 219.736C229.181 219.574 229.186 219.399 229.165 219.211L229.156 218.942C228.457 218.639 227.788 218.186 227.132 217.796C227.465 217.477 227.813 217.171 228.154 216.861C228.469 216.605 228.776 216.397 229.137 216.21C229.154 215.804 229.307 215.379 229.475 215.011C230.797 212.12 234.436 212.651 237.028 212.654L242.4 212.645C242.935 212.644 244.089 212.771 244.567 212.594L244.589 212.181L244.578 210.987C242.369 210.966 239.037 211.283 237.07 210.485C234.627 209.495 232.78 207.171 232.354 204.564C232.185 203.528 232.252 202.409 232.252 201.36C232.252 200.818 232.391 199.906 232.183 199.416L232.024 199.361C231.376 199.337 230.381 199.535 229.821 199.173C229.546 198.995 229.435 198.708 229.358 198.405C229.274 197.045 229.353 195.63 229.352 194.264C229.351 193.131 229.246 191.885 229.378 190.764C229.418 190.422 229.507 189.929 229.753 189.667C230.119 189.277 231.623 189.44 232.17 189.444C232.328 188.9 232.239 188.1 232.239 187.527C232.238 184.262 231.904 181.69 234.43 179.164C234.549 179.046 234.672 178.933 234.798 178.823C234.925 178.714 235.055 178.609 235.189 178.508C235.323 178.408 235.46 178.312 235.6 178.221C235.741 178.129 235.884 178.043 236.03 177.962C236.176 177.88 236.325 177.804 236.477 177.733C236.628 177.661 236.781 177.595 236.937 177.534C237.093 177.474 237.251 177.418 237.411 177.368C237.571 177.318 237.732 177.274 237.895 177.234C239.314 176.908 241.475 177.065 242.991 177.066L251.927 177.089C251.962 174.94 251.925 172.788 251.941 170.639Z" fill="#282828"/>
<path d="M229.137 216.211C229.178 217.119 229.158 218.033 229.156 218.943C228.457 218.639 227.788 218.186 227.132 217.796C227.465 217.477 227.813 217.171 228.154 216.861C228.469 216.605 228.776 216.397 229.137 216.211Z" fill="#D7A3FF"/>
<path d="M272.396 192.941C273.169 192.943 273.939 192.939 274.709 193.003C274.688 193.765 274.817 196.989 274.594 197.428L274.447 197.481C273.773 197.435 273.074 197.472 272.398 197.476L272.396 192.941Z" fill="#444444"/>
<path d="M238.974 177.711C238.992 177.71 239.01 177.708 239.029 177.706C240.976 177.586 242.982 177.684 244.934 177.686L256.298 177.703L262.757 177.709C263.998 177.708 265.38 177.591 266.599 177.807C267.702 178.003 268.758 178.573 269.581 179.324C270.922 180.547 271.69 182.153 271.759 183.966C271.815 185.424 271.765 186.902 271.763 188.362L271.745 197.265L271.75 202.339C271.752 203.325 271.845 204.46 271.652 205.425C271.433 206.531 270.823 207.623 270.056 208.441C268.87 209.709 267.361 210.308 265.642 210.361L246.923 210.401L242.06 210.398C240.937 210.398 239.768 210.458 238.655 210.287C237.55 210.117 236.427 209.632 235.551 208.936C234.038 207.736 233.077 205.854 232.879 203.947C232.749 202.701 232.817 201.402 232.818 200.149L232.821 193.569L232.816 187.249C232.816 185.968 232.707 184.57 232.941 183.309C233.168 182.084 233.737 180.997 234.525 180.038C235.659 178.66 237.205 177.88 238.974 177.711Z" fill="#D7A3FF"/>
<path d="M242.39 208.267C240.74 208.619 239.095 208.531 237.646 207.588C236.474 206.826 235.656 205.679 235.06 204.437C234.803 203.904 234.723 203.175 234.686 202.587C234.616 201.455 234.661 200.294 234.663 199.159L234.678 193.004L234.669 188.048C234.662 186.958 234.618 185.847 234.693 184.76C234.708 184.544 234.739 184.33 234.784 184.119C234.83 183.908 234.89 183.701 234.965 183.498C235.444 182.18 236.352 181.153 237.632 180.562C238.262 180.271 238.973 180.107 239.665 180.059C241.048 179.962 242.485 180.034 243.875 180.028C246.506 180.002 249.136 179.99 251.767 179.993L259.811 180.002C261.392 180.002 262.99 179.946 264.568 180.034C265.173 180.067 265.797 180.138 266.371 180.344C267.656 180.806 268.947 182.022 269.507 183.264C269.573 183.411 269.632 183.56 269.685 183.712C269.739 183.864 269.786 184.018 269.827 184.174C269.868 184.329 269.903 184.487 269.931 184.645C269.959 184.803 269.981 184.963 269.996 185.123C270.089 186.107 270.051 187.13 270.06 188.119L270.082 193.831L270.142 199.513C270.146 200.436 270.178 201.378 270.114 202.298C270.057 203.107 269.913 203.903 269.608 204.657C269.025 206.1 267.841 207.32 266.399 207.915C265.53 208.273 263.746 208.632 262.845 208.251C262.01 208.158 261.168 207.884 260.356 207.668C259.224 207.368 258.101 207.088 256.945 206.894C253.538 206.321 250.322 206.511 246.958 207.246C245.43 207.58 243.93 207.989 242.39 208.267Z" fill="#DADADA"/>
<path d="M239.786 186.078C239.816 186.083 239.841 186.107 239.867 186.124C239.533 186.522 239.152 186.878 238.823 187.279C238.013 188.266 237.342 189.388 236.747 190.514L236.681 190.507C236.658 190.121 236.79 189.738 236.907 189.374C237.424 187.765 238.294 186.839 239.786 186.078Z" fill="#282828"/>
<path d="M252.327 199.855C253.497 199.638 255.048 199.846 256.188 200.155C259.678 201.104 262.344 203.836 264.084 206.902C263.459 206.302 262.872 205.67 262.216 205.101C259.888 203.08 257.125 201.751 254.047 201.452C253.73 201.443 253.413 201.439 253.097 201.441C248.451 201.485 245.299 203.757 242.188 206.91C242.415 206.457 242.667 206.019 242.944 205.596C243.221 205.172 243.521 204.766 243.845 204.376C246.031 201.722 248.911 200.198 252.327 199.855Z" fill="#282828"/>
<path d="M262.039 185.676C263.246 185.729 264.265 186.049 265.188 186.855C266.232 187.766 266.886 189.153 266.97 190.532C267.055 191.938 266.607 193.439 265.659 194.495C264.73 195.53 263.453 195.962 262.096 196.042C260.981 196.041 259.832 195.588 258.98 194.877C257.905 193.98 257.207 192.595 257.089 191.203C257.082 191.118 257.077 191.033 257.075 190.948C257.072 190.863 257.072 190.778 257.074 190.693C257.076 190.608 257.079 190.524 257.085 190.439C257.091 190.354 257.099 190.269 257.109 190.185C257.119 190.1 257.131 190.016 257.145 189.932C257.159 189.848 257.176 189.765 257.194 189.682C257.212 189.599 257.232 189.516 257.255 189.434C257.277 189.352 257.301 189.271 257.328 189.19C257.354 189.109 257.382 189.029 257.413 188.95C257.443 188.87 257.475 188.791 257.509 188.714C257.543 188.636 257.579 188.559 257.617 188.482C257.655 188.406 257.695 188.331 257.736 188.257C257.778 188.183 257.821 188.11 257.866 188.038C257.912 187.966 257.959 187.895 258.007 187.825C258.056 187.755 258.106 187.687 258.158 187.62C258.21 187.552 258.264 187.486 258.319 187.422C259.315 186.263 260.546 185.789 262.039 185.676Z" fill="#282828"/>
<path d="M262.908 193.05C263.164 193.033 263.386 193.021 263.598 193.197C263.753 193.325 263.829 193.534 263.821 193.731C263.807 194.048 263.662 194.276 263.437 194.488C263.398 194.491 263.358 194.494 263.319 194.496C263.101 194.509 262.9 194.458 262.748 194.292C262.608 194.139 262.541 193.964 262.549 193.758C262.561 193.437 262.682 193.266 262.908 193.05Z" fill="#FEFEFE"/>
<path d="M259.761 188.014C259.88 188.017 260.003 188.018 260.12 188.039C260.43 188.097 260.703 188.37 260.853 188.634C261.141 189.137 261.15 189.816 260.973 190.357C260.805 190.869 260.55 191.161 260.074 191.399C259.938 191.412 259.792 191.423 259.659 191.385C259.341 191.294 259.1 191.032 258.964 190.74C258.711 190.199 258.709 189.487 258.912 188.931C259.081 188.467 259.316 188.216 259.761 188.014Z" fill="#FEFEFE"/>
<path d="M243.018 185.597C244.255 185.536 245.328 185.706 246.351 186.454C246.42 186.504 246.487 186.555 246.552 186.609C246.618 186.662 246.683 186.717 246.746 186.774C246.809 186.831 246.87 186.889 246.93 186.949C246.99 187.008 247.049 187.07 247.106 187.132C247.163 187.195 247.219 187.259 247.273 187.324C247.326 187.39 247.379 187.457 247.429 187.525C247.48 187.593 247.529 187.662 247.576 187.732C247.623 187.803 247.668 187.874 247.711 187.947C247.755 188.02 247.797 188.094 247.836 188.168C247.876 188.243 247.914 188.319 247.95 188.396C247.986 188.472 248.02 188.55 248.052 188.629C248.084 188.707 248.115 188.786 248.143 188.866C248.171 188.946 248.197 189.027 248.221 189.108C248.245 189.189 248.267 189.271 248.287 189.353C248.307 189.436 248.325 189.518 248.341 189.602C248.357 189.685 248.371 189.768 248.383 189.852C248.597 191.31 248.323 192.92 247.427 194.115C246.606 195.209 245.438 195.885 244.094 196.075C243.003 196.145 242.027 195.988 241.089 195.4C239.919 194.666 239.1 193.421 238.797 192.082C238.468 190.632 238.791 189.104 239.587 187.859C240.411 186.569 241.542 185.912 243.018 185.597Z" fill="#282828"/>
<path d="M244.584 193.112C244.608 193.11 244.633 193.107 244.657 193.106C244.915 193.091 245.139 193.11 245.337 193.294C245.466 193.413 245.54 193.567 245.546 193.745C245.557 194.054 245.408 194.252 245.208 194.469C245.138 194.478 245.067 194.487 244.997 194.492C244.767 194.507 244.565 194.44 244.4 194.279C244.255 194.137 244.192 193.956 244.205 193.756C244.225 193.461 244.377 193.305 244.584 193.112Z" fill="#FEFEFE"/>
<path d="M241.467 188.069C241.58 188.064 241.696 188.058 241.81 188.067C242.128 188.094 242.413 188.304 242.606 188.547C242.943 188.974 243.062 189.595 242.995 190.126C242.923 190.689 242.676 191.114 242.226 191.451C242.091 191.477 241.946 191.501 241.808 191.5C241.538 191.499 241.258 191.324 241.087 191.125C240.713 190.691 240.645 189.983 240.715 189.438C240.79 188.846 241.003 188.44 241.467 188.069Z" fill="#FEFEFE"/>
<path d="M221.886 224.393C221.911 224.402 221.936 224.412 221.961 224.422C222.427 224.598 222.962 224.648 223.443 224.806C225.454 225.47 226.675 226.332 228.088 227.857C227.661 228.751 227.29 229.734 226.799 230.589C225.261 229.296 223.468 228.636 221.54 228.156C221.061 228.037 220.544 227.876 220.051 227.861C220.109 227.724 220.144 227.604 220.171 227.458C220.009 227.287 216.196 227.396 215.587 227.376C217.129 227.221 218.762 227.326 220.312 227.329C220.797 226.359 221.256 225.273 221.886 224.393Z" fill="#D7A3FF"/>
<path d="M226.829 218.098L227.132 217.799C227.787 218.189 228.457 218.642 229.155 218.945L229.164 219.214L229.152 219.549L229.143 223.601L229.151 223.956L229.12 224.053C229.139 224.634 229.109 225.247 229.162 225.824C228.862 226.388 228.524 226.957 228.259 227.537L228.087 227.859C226.674 226.334 225.453 225.472 223.441 224.809C222.96 224.65 222.426 224.601 221.96 224.424C221.935 224.415 221.91 224.405 221.885 224.395L222.05 224.13C222.66 223.103 223.301 222.133 224.063 221.209L224.328 220.853L225.046 219.891C225.616 219.266 226.218 218.684 226.829 218.098Z" fill="#D7A3FF"/>
<path d="M224.328 220.852C226.135 221.4 227.804 222.253 229.143 223.6L229.151 223.955L229.121 224.051C227.628 222.623 226.044 221.752 224.064 221.208L224.328 220.852Z" fill="#DADADA"/>
<path d="M222.05 224.127C223.977 224.211 226.54 225.635 227.84 227.048C227.983 227.206 228.123 227.368 228.259 227.533L228.087 227.855C226.674 226.331 225.453 225.469 223.441 224.805C222.96 224.647 222.426 224.597 221.96 224.421C221.935 224.411 221.91 224.401 221.885 224.391L222.05 224.127Z" fill="#DADADA"/>
<path d="M226.829 218.098L227.132 217.799C227.788 218.189 228.457 218.642 229.156 218.945L229.165 219.214L229.153 219.549L229.143 223.601C227.805 222.255 226.135 221.401 224.329 220.853L225.047 219.891C225.617 219.266 226.219 218.684 226.829 218.098Z" fill="#D7A3FF"/>
<path d="M226.83 218.098L227.133 217.799C227.788 218.189 228.458 218.642 229.156 218.945L229.166 219.214L229.153 219.549C228.816 219.402 228.463 219.084 228.156 218.873C227.728 218.579 227.294 218.331 226.83 218.098Z" fill="#DADADA"/>
</svg>
