<svg width="25" height="25" viewBox="0 0 25 25" fill="none" xmlns="http://www.w3.org/2000/svg">
<rect width="25" height="25" rx="3" fill="#1C1C1C" fill-opacity="0.74"/>
<path d="M18.9982 8.53943C18.9954 7.70884 18.9954 6.99346 18.9982 6.897C18.9992 6.83668 18.9796 6.77776 18.9426 6.72967C18.9056 6.68158 18.8533 6.6471 18.794 6.63174C17.6696 6.3397 15.9299 5.88153 14.5741 5.52786C13.1238 5.15553 12.8083 5.05284 12.4995 5C12.195 5.04662 11.8696 5.16013 10.4195 5.53051C9.0637 5.88421 7.32674 6.3397 6.20506 6.63174C6.14755 6.64658 6.09651 6.67945 6.05967 6.72537C6.02283 6.7713 6.00219 6.82778 6.00087 6.88628C6.00087 6.92915 5.99543 12.0119 6.01176 12.186C6.05922 13.6995 6.58343 15.161 7.51187 16.3685C8.69499 17.8958 10.2464 19.1086 12.0258 19.8972C12.1618 19.9616 12.3104 19.9964 12.4614 19.999C12.6388 20.0066 12.8154 19.9717 12.976 19.8972C13.5902 19.623 14.1795 19.2976 14.7374 18.9246C17.078 17.3704 18.9346 15.0151 18.99 12.186C18.9956 12.0085 19.0037 11.164 18.9982 8.53943ZM17.9037 12.0949C17.8813 14.5976 16.1738 16.6575 14.1303 18.0296C13.648 18.3495 13.1409 18.6317 12.6139 18.8736C12.5779 18.8895 12.5389 18.8977 12.4995 18.8977C12.4601 18.8977 12.4211 18.8895 12.3852 18.8736C9.6767 17.5994 7.16252 15.2149 7.10075 12.1458C7.08988 11.8511 7.08716 9.05923 7.08716 7.70884C7.08789 7.64988 7.10826 7.59279 7.14515 7.54632C7.18203 7.49986 7.23339 7.46659 7.29134 7.45162C8.90819 7.02564 10.8088 6.53059 12.4315 6.10391C12.4771 6.09319 12.5247 6.09319 12.5703 6.10391C14.1929 6.53188 16.0859 7.02536 17.705 7.44894C17.7631 7.46417 17.8144 7.49796 17.8508 7.545C17.8873 7.59204 17.9069 7.64967 17.9064 7.70884L17.9092 8.53407C17.9119 9.76121 17.9146 11.8109 17.9037 12.0949ZM15.7121 15.9532C15.1588 16.5764 14.5245 17.125 13.8254 17.5849C13.4036 17.8673 12.9604 18.1172 12.4995 18.3324C11.2788 17.7583 10.1866 16.9503 9.28695 15.9558C9.60601 15.3931 10.0719 14.9243 10.6365 14.5979C11.2011 14.2715 11.8439 14.0993 12.4987 14.099C13.1535 14.0988 13.7965 14.2705 14.3614 14.5964C14.9263 14.9223 15.3925 15.3907 15.7121 15.9532ZM12.4859 13.5632C9.7073 13.446 9.72096 9.52653 12.4995 9.42362C12.7765 9.42334 13.0507 9.47689 13.3066 9.5812C13.5625 9.68552 13.7949 9.83853 13.9905 10.0315C14.1861 10.2244 14.3411 10.4535 14.4465 10.7055C14.5519 10.9575 14.6057 11.2276 14.6048 11.5001C14.6039 11.7727 14.5483 12.0424 14.4413 12.2937C14.3342 12.5451 14.1777 12.7731 13.9808 12.9648C13.784 13.1565 13.5506 13.3081 13.294 13.4107C13.0375 13.5134 12.7629 13.5652 12.4859 13.5632ZM17.3592 12.0654C17.3353 13.3235 16.886 14.5378 16.0823 15.5164C15.5561 14.6832 14.7453 14.0619 13.7954 13.7641C16.1407 12.4616 15.2268 8.90752 12.4996 8.88775C9.77255 8.90756 8.85976 12.459 11.2009 13.7641C10.2518 14.062 9.44183 14.6833 8.91669 15.5164C8.1211 14.5491 7.67311 13.3498 7.64255 12.1056C7.63711 11.8672 7.63166 9.45309 7.63166 7.91515C9.18492 7.50845 10.9531 7.05114 12.4995 6.63978C14.0457 7.0456 15.8068 7.50618 17.3647 7.91515C17.3677 9.0402 17.3682 11.6828 17.3592 12.0654Z" fill="white"/>
</svg>
