<svg width="114" height="147" viewBox="0 0 114 147" fill="none" xmlns="http://www.w3.org/2000/svg">
<path d="M36.6504 59.0203L113.127 50.4746V72.2141C113.127 73.4341 112.109 74.4736 110.726 74.667L36.6504 85.0137V59.0203Z" fill="#E3E3E3"/>
<path d="M1.47949 39.4355L36.6506 59.0197V85.0129L2.96758 66.2575C2.04039 65.7413 1.47949 64.8493 1.47949 63.891V39.4355Z" fill="white"/>
<path d="M113.127 50.4756L78.1269 31.986C77.2218 31.5078 76.1574 31.3098 75.1067 31.4242L1.47949 39.4373L36.6506 59.0214L113.127 50.4756Z" fill="white"/>
<path d="M106.954 75.1953V132.465C106.954 133.653 105.99 134.676 104.651 134.906L36.6504 146.616V85.0152L106.954 75.1953Z" fill="#E3E3E3"/>
<path d="M5.6377 67.7461V119.536C5.6377 120.643 6.23552 121.685 7.25191 122.351L36.6521 146.616V85.0156L5.6377 67.7461Z" fill="white"/>
<path d="M72.8652 79.9533V54.9718L83.5198 53.7812V78.4651L72.8652 79.9533Z" fill="#FF00B7"/>
<path d="M32.6778 93.6498C35.1982 92.3828 35.8215 89.2145 34.07 86.5732C32.3184 83.9319 28.8554 82.8179 26.335 84.0848C23.8146 85.3518 23.1914 88.5201 24.9429 91.1614C26.6944 93.8026 30.1574 94.9167 32.6778 93.6498Z" fill="#FF00B7"/>
<path d="M29.2828 75.2901C32.233 73.807 32.9626 70.0985 30.9124 67.0068C28.8621 63.9151 24.8085 62.611 21.8584 64.094C18.9082 65.5771 18.1786 69.2856 20.2288 72.3773C22.279 75.469 26.3326 76.7731 29.2828 75.2901Z" fill="#FF00B7"/>
<path d="M13.4713 57.5537C16.4215 56.0707 17.151 52.3621 15.1008 49.2704C13.0506 46.1787 8.99702 44.8746 6.04684 46.3577C3.09667 47.8407 2.3671 51.5493 4.4173 54.641C6.4675 57.7327 10.5211 59.0368 13.4713 57.5537Z" fill="#FF00B7"/>
<path d="M21.3042 50.4756V76.4689L12.8281 71.7493V45.7559L21.3042 50.4756Z" fill="#FF00B7"/>
<path d="M56.2081 101.507C56.8649 97.9827 54.1163 94.6622 50.0688 94.0903C46.0213 93.5184 42.2076 95.9115 41.5507 99.4356C40.8938 102.96 43.6425 106.28 47.69 106.852C51.7375 107.424 55.5512 105.031 56.2081 101.507Z" fill="#FF00B7"/>
<path d="M51.6617 74.2078C55.7622 74.2078 59.0862 71.3136 59.0862 67.7435C59.0862 64.1734 55.7622 61.2793 51.6617 61.2793C47.5613 61.2793 44.2373 64.1734 44.2373 67.7435C44.2373 71.3136 47.5613 74.2078 51.6617 74.2078Z" fill="#FF00B7"/>
<path d="M49.8795 54.9725C53.9799 54.9725 57.304 53.6385 57.304 51.9931C57.304 50.3476 53.9799 49.0137 49.8795 49.0137C45.7791 49.0137 42.4551 50.3476 42.4551 51.9931C42.4551 53.6385 45.7791 54.9725 49.8795 54.9725Z" fill="#FF00B7"/>
<path d="M74.8893 40.3181C78.9897 40.3181 82.3137 38.9842 82.3137 37.3388C82.3137 35.6933 78.9897 34.3594 74.8893 34.3594C70.7889 34.3594 67.4648 35.6933 67.4648 37.3388C67.4648 38.9842 70.7889 40.3181 74.8893 40.3181Z" fill="#FF00B7"/>
<path d="M26.8893 44.6033C30.9897 44.6033 34.3137 43.2694 34.3137 41.6239C34.3137 39.9784 30.9897 38.6445 26.8893 38.6445C22.7889 38.6445 19.4648 39.9784 19.4648 41.6239C19.4648 43.2694 22.7889 44.6033 26.8893 44.6033Z" fill="#FF00B7"/>
<path d="M90.3737 49.8631C94.4741 49.8631 97.7981 48.5291 97.7981 46.8837C97.7981 45.2382 94.4741 43.9043 90.3737 43.9043C86.2733 43.9043 82.9492 45.2382 82.9492 46.8837C82.9492 48.5291 86.2733 49.8631 90.3737 49.8631Z" fill="#FF00B7"/>
<path d="M76.0659 117.186C78.9653 114.662 78.9653 110.569 76.0659 108.044C73.1665 105.52 68.4656 105.52 65.5662 108.044C62.6668 110.569 62.6668 114.662 65.5662 117.186C68.4656 119.711 73.1665 119.71 76.0659 117.186Z" fill="#FF00B7"/>
<path d="M104.129 69.8267C106.284 66.7896 105.204 62.8061 101.716 60.9293C98.2276 59.0525 93.6524 59.9931 91.4968 63.0302C89.3412 66.0673 90.4215 70.0507 93.9097 71.9275C97.3979 73.8043 101.973 72.8637 104.129 69.8267Z" fill="#FF00B7"/>
<path d="M53.1442 135.684C57.2446 135.684 60.5686 132.79 60.5686 129.22C60.5686 125.65 57.2446 122.756 53.1442 122.756C49.0438 122.756 45.7197 125.65 45.7197 129.22C45.7197 132.79 49.0438 135.684 53.1442 135.684Z" fill="#FF00B7"/>
<path d="M94.0758 101.665C98.1762 101.665 101.5 98.7706 101.5 95.2006C101.5 91.6305 98.1762 88.7363 94.0758 88.7363C89.9754 88.7363 86.6514 91.6305 86.6514 95.2006C86.6514 98.7706 89.9754 101.665 94.0758 101.665Z" fill="#FF00B7"/>
<path d="M106.755 122.359C107.932 119.885 106.583 117.049 103.741 116.024C100.9 114.999 97.6428 116.174 96.4659 118.648C95.289 121.122 96.6382 123.958 99.4794 124.982C102.321 126.007 105.578 124.832 106.755 122.359Z" fill="#FF00B7"/>
<path d="M30.5973 126.708C33.5474 125.225 34.277 121.516 32.2268 118.425C30.1766 115.333 26.123 114.029 23.1728 115.512C20.2226 116.995 19.4931 120.704 21.5433 123.795C23.5935 126.887 27.6471 128.191 30.5973 126.708Z" fill="#FF00B7"/>
<path d="M18.2447 109.21C21.1949 107.727 21.9245 104.018 19.8743 100.927C17.8241 97.835 13.7705 96.5309 10.8203 98.0139C7.87011 99.497 7.14053 103.206 9.19074 106.297C11.2409 109.389 15.2946 110.693 18.2447 109.21Z" fill="#FF00B7"/>
<path d="M72.8652 79.9569V140.38L83.5198 138.545V78.4688L72.8652 79.9569Z" fill="#FF00B7"/>
<path d="M21.3042 76.4696L21.1443 133.817L12.8281 126.953V71.75L21.3042 76.4696Z" fill="#FF00B7"/>
<path d="M106.956 81.1736L36.6521 91.7688L5.6377 74.0016V67.7461L36.6521 85.0156L106.956 75.1957V81.1736Z" fill="#79A0A8" fill-opacity="0.63"/>
<path d="M83.5189 53.7849L52.8088 33.8516L43.2695 34.89L72.8643 54.9754L83.5189 53.7849Z" fill="#F35EBD"/>
<path d="M95.8892 41.3693L21.3042 50.4761L12.8281 45.7564L88.2616 37.3398L95.8892 41.3693Z" fill="#F35EBD"/>
<path opacity="0.5" d="M63.4069 44.4987C64.6276 43.5391 65.2111 42.4423 64.8014 41.5846C64.7423 41.4605 64.6582 41.349 64.5632 41.2437C69.5966 37.961 73.8831 34.7665 77.535 31.7237C76.7737 31.4407 75.9375 31.3335 75.1083 31.4238L63.9801 32.635C62.5004 35.7984 61.411 38.5338 60.6968 40.461C59.9745 40.5541 59.2096 40.7329 58.4387 41.003C57.474 39.2207 55.9276 36.6208 53.7697 33.7463L46.1956 34.5707C48.3569 36.357 50.502 38.3826 52.5998 40.6807C48.9495 40.4943 40.2638 39.6795 31.8419 36.1328L19.0967 37.5198C25.4408 41.2059 34.9853 44.2161 49.3361 44.7084C32.9637 48.5112 25.2795 56.983 25.2795 56.983C25.2795 56.983 20.385 62.3679 23.7106 68.0261C25.049 58.6044 47.6351 48.3226 54.2395 45.5061C54.9326 46.7365 57.5524 46.9845 60.2875 46.0986C64.9973 48.6709 77.2165 56.6916 80.3976 72.0561C88.178 69.2381 87.5046 62.6191 87.5046 62.6191C87.5046 62.6191 79.7078 50.3718 63.4069 44.4987Z" fill="#EBEBEB"/>
<path d="M100.084 3.79688C100.084 3.79688 96.2105 20.6756 65.0898 40.4938C66.4265 30.0455 90.3955 9.61574 100.084 3.79688Z" fill="#FF00B7"/>
<path d="M8.63379 20.0578C8.63379 20.0578 11.0113 43.9116 58.0784 43.0325C56.4229 39.0125 56.4229 39.0125 56.4229 39.0125C56.4229 39.0125 25.447 39.1449 16.3412 18.421C12.2903 18.2713 8.63379 20.0578 8.63379 20.0578Z" fill="#FF00B7"/>
<path d="M61.6969 41.7236C61.6969 41.7236 48.8097 11.9751 19.491 13.3552C11.1432 14.7619 8.63379 20.0593 8.63379 20.0593C8.63379 20.0593 36.8614 15.8407 58.0784 43.0341C61.6969 41.7236 61.6969 41.7236 61.6969 41.7236Z" fill="#F35EBD"/>
<path d="M61.6982 41.7219C61.6982 41.7219 70.6103 12.624 90.3075 1.10103C98.9574 -1.33904 100.085 3.79628 100.085 3.79628C100.085 3.79628 70.7877 29.6525 65.0904 40.4932C63.0734 42.379 61.6982 41.7219 61.6982 41.7219Z" fill="#F35EBD"/>
<path d="M60.0581 41.623C60.0581 41.623 47.5064 19.073 30.6055 17.1816C37.8768 19.6294 51.6432 30.1189 60.0581 41.623Z" fill="#FF00B7"/>
<path d="M65.8457 36.5243C65.8457 36.5243 75.7278 22.7818 83.8531 15.9121C76.5779 19.009 67.9225 29.7663 65.8457 36.5243Z" fill="#FF00B7"/>
<path d="M60.4551 43.4356C60.4551 43.4356 78.4674 51.1791 82.4328 70.3315C90.2131 67.5134 89.5397 60.8944 89.5397 60.8944C89.5397 60.8944 81.2246 47.8326 63.8146 42.2188C62.2235 42.7951 60.4551 43.4356 60.4551 43.4356Z" fill="#F35EBD"/>
<path d="M58.0783 43.0332C58.0783 43.0332 27.3149 55.26 25.746 66.3031C22.4202 60.6449 27.3149 55.26 27.3149 55.26C27.3149 55.26 36.824 44.7724 57.23 41.8964C60.0578 41.6234 58.0783 43.0332 58.0783 43.0332Z" fill="#F35EBD"/>
<path d="M56.2269 43.702C56.877 45.0625 59.7788 45.305 62.7086 44.2439C65.6383 43.1828 67.4864 41.2196 66.8363 39.8591C66.1862 38.4986 63.2844 38.256 60.3546 39.3171C57.4249 40.3785 55.5768 42.3416 56.2269 43.702Z" fill="#FF00B7"/>
<path d="M65.9375 44.4902C65.9375 44.4902 71.0916 45.7266 77.3344 51.412C72.2389 48.5618 65.9375 44.4902 65.9375 44.4902Z" fill="#FF00B7"/>
<path d="M52.3236 44.0352C52.3236 44.0352 48.2958 44.4678 43.2139 47.7246C48.9636 45.4327 52.3236 44.0352 52.3236 44.0352Z" fill="#FF00B7"/>
<path opacity="0.31" d="M5.6377 83.7441V119.537C5.6377 120.644 6.23552 121.687 7.25191 122.352L30.882 141.855C32.1656 105.902 14.044 89.4233 5.6377 83.7441Z" fill="white"/>
<path opacity="0.37" d="M44.2412 145.312L104.653 134.909C105.992 134.678 106.957 133.656 106.957 132.468V89.4141C106.957 89.4141 94.7856 136.68 44.2412 145.312Z" fill="#EBEBEB"/>
</svg>
