<svg width="73" height="83" viewBox="0 0 73 83" fill="none" xmlns="http://www.w3.org/2000/svg">
<path d="M22.1128 50.0141L15.0826 45.9516C14.9785 45.8915 14.892 45.8052 14.8316 45.7014C14.7712 45.5975 14.739 45.4796 14.7383 45.3594C14.7378 45.2381 14.7694 45.1188 14.8299 45.0136C14.8903 44.9084 14.9775 44.8211 15.0826 44.7604L22.1128 40.7048C22.2174 40.6444 22.3362 40.6125 22.457 40.6125C22.5779 40.6125 22.6966 40.6444 22.8013 40.7048L29.8315 44.7604L29.1429 45.9516L22.457 42.0957L16.804 45.3594L22.8013 48.8022L22.1128 50.0141Z" fill="url(#paint0_linear_14010_8452)"/>
<path d="M8.73111 48.834L8.04297 50.0269L15.0749 54.0835L15.763 52.8906L8.73111 48.834Z" fill="url(#paint1_linear_14010_8452)"/>
<path d="M15.7554 52.8799L15.0664 54.0723L22.0955 58.1338L22.7844 56.9414L15.7554 52.8799Z" fill="url(#paint2_linear_14010_8452)"/>
<path d="M22.7897 56.9529L22.1016 58.1458L29.1335 62.2023L29.8216 61.0095L22.7897 56.9529Z" fill="url(#paint3_linear_14010_8452)"/>
<path d="M29.814 60.9988L29.125 62.1912L36.154 66.2527L36.843 65.0603L29.814 60.9988Z" fill="url(#paint4_linear_14010_8452)"/>
<path d="M36.5128 82.5963C36.3915 82.5951 36.2728 82.5618 36.1685 82.4999C36.0644 82.4398 35.9779 82.3536 35.9175 82.2497C35.8571 82.1458 35.8249 82.0279 35.8242 81.9077V65.6716C35.8237 65.5502 35.8553 65.4309 35.9158 65.3257C35.9763 65.2205 36.0634 65.1332 36.1685 65.0725L71.285 44.7807C71.3893 44.7205 71.5076 44.6887 71.6282 44.6885C71.7487 44.6883 71.8671 44.7198 71.9717 44.7797C72.0762 44.8396 72.1633 44.926 72.224 45.0301C72.2847 45.1342 72.3171 45.2524 72.3178 45.3729V61.6091C72.3183 61.7304 72.2867 61.8497 72.2262 61.9549C72.1657 62.0601 72.0786 62.1474 71.9735 62.2081L36.8571 82.4999C36.7528 82.5618 36.634 82.5951 36.5128 82.5963ZM37.2013 66.0709V80.7165L70.9407 61.2235V46.571L37.2013 66.0709Z" fill="url(#paint5_linear_14010_8452)"/>
<path d="M8.72413 24.4658L8.03516 25.6582L15.0642 29.7197L15.7532 28.5273L8.72413 24.4658Z" fill="url(#paint6_linear_14010_8452)"/>
<path d="M15.7624 28.5484L15.0742 29.7412L22.1061 33.7978L22.7943 32.6049L15.7624 28.5484Z" fill="url(#paint7_linear_14010_8452)"/>
<path d="M22.7788 32.5918L22.0898 33.7842L29.1189 37.8457L29.8079 36.6533L22.7788 32.5918Z" fill="url(#paint8_linear_14010_8452)"/>
<path d="M29.8405 36.6765L29.1523 37.8694L36.1842 41.926L36.8724 40.7331L29.8405 36.6765Z" fill="url(#paint9_linear_14010_8452)"/>
<path d="M36.5128 50.1259C36.3915 50.1247 36.2728 50.0914 36.1685 50.0295C36.0644 49.9694 35.9779 49.8832 35.9175 49.7793C35.8571 49.6754 35.8249 49.5575 35.8242 49.4374V41.3193C35.8237 41.1979 35.8553 41.0786 35.9158 40.9734C35.9763 40.8682 36.0634 40.7809 36.1685 40.7202L71.285 20.4284C71.3897 20.368 71.5084 20.3362 71.6293 20.3362C71.7501 20.3362 71.8689 20.368 71.9735 20.4284C72.0786 20.4891 72.1657 20.5764 72.2262 20.6816C72.2867 20.7868 72.3183 20.9061 72.3178 21.0275V29.1456C72.3183 29.2669 72.2867 29.3862 72.2262 29.4914C72.1657 29.5966 72.0786 29.6839 71.9735 29.7446L43.9286 45.9257L43.8528 45.9808L36.8571 50.0157C36.7542 50.0825 36.6353 50.1205 36.5128 50.1259ZM37.2013 41.7186V48.2462L43.1229 44.8034L43.1987 44.7483L70.9751 28.7187V22.1911L37.2013 41.7186Z" fill="url(#paint10_linear_14010_8452)"/>
<path d="M50.25 40.7762L43.2188 44.834L43.9071 46.0267L50.9383 41.9689L50.25 40.7762Z" fill="url(#paint11_linear_14010_8452)"/>
<path d="M50.9347 50.0119L50.2461 48.8207L56.2434 45.3779L50.2461 41.9351L50.9347 40.7439L57.9648 44.7995C58.0699 44.8602 58.1571 44.9475 58.2175 45.0527C58.278 45.1579 58.3096 45.2772 58.3091 45.3985C58.3084 45.5187 58.2762 45.6366 58.2158 45.7405C58.1554 45.8443 58.0689 45.9306 57.9648 45.9907L50.9347 50.0119Z" fill="url(#paint12_linear_14010_8452)"/>
<path d="M8.05412 66.266L1.02397 62.2035C0.919905 62.1434 0.833346 62.0571 0.772949 61.9533C0.712552 61.8494 0.680418 61.7315 0.679693 61.6113V45.3751C0.679211 45.2538 0.71081 45.1345 0.771268 45.0293C0.831726 44.9241 0.918895 44.8368 1.02397 44.7761C1.12865 44.7157 1.24738 44.6838 1.36825 44.6838C1.48912 44.6838 1.60786 44.7157 1.71253 44.7761L8.74267 48.8386L8.05412 50.0298L2.04992 46.5732V61.2188L8.73582 65.0817L8.05412 66.266Z" fill="url(#paint13_linear_14010_8452)"/>
<path d="M8.73111 48.834L8.04297 50.0269L15.0749 54.0835L15.763 52.8906L8.73111 48.834Z" fill="url(#paint14_linear_14010_8452)"/>
<path d="M8.73111 65.0672L8.04297 66.26L15.0748 70.3166L15.763 69.1237L8.73111 65.0672Z" fill="url(#paint15_linear_14010_8452)"/>
<path d="M43.5459 54.1797C43.4249 54.1834 43.3052 54.1532 43.2005 54.0923C43.0958 54.0315 43.0103 53.9425 42.9537 53.8354C42.9261 53.7929 42.9052 53.7465 42.8917 53.6977C42.8561 53.5775 42.8539 53.4499 42.8854 53.3285C42.917 53.2072 42.9811 53.0968 43.0708 53.0092C43.1092 52.9755 43.1507 52.9455 43.1947 52.9196L50.2249 48.8572C50.3034 48.8116 50.3903 48.7821 50.4803 48.7703C50.5704 48.7584 50.6619 48.7645 50.7496 48.7882C50.8372 48.8119 50.9194 48.8527 50.9912 48.9082C51.0631 48.9638 51.1232 49.033 51.1682 49.1119C51.2493 49.2643 51.2703 49.4415 51.2269 49.6085C51.1836 49.7756 51.0791 49.9203 50.9341 50.0139L43.9039 54.0764H43.8488C43.7565 54.1322 43.6531 54.1675 43.5459 54.1797Z" fill="url(#paint16_linear_14010_8452)"/>
<path d="M15.7554 52.8799L15.0664 54.0723L22.0955 58.1338L22.7844 56.9414L15.7554 52.8799Z" fill="url(#paint17_linear_14010_8452)"/>
<path d="M15.7554 69.113L15.0664 70.3054L22.0955 74.3669L22.7844 73.1745L15.7554 69.113Z" fill="url(#paint18_linear_14010_8452)"/>
<path d="M22.7897 56.9529L22.1016 58.1458L29.1335 62.2023L29.8216 61.0095L22.7897 56.9529Z" fill="url(#paint19_linear_14010_8452)"/>
<path d="M22.7936 73.1931L22.1055 74.386L29.1374 78.4426L29.8255 77.2497L22.7936 73.1931Z" fill="url(#paint20_linear_14010_8452)"/>
<path d="M36.5151 82.597C36.3938 82.5958 36.2751 82.5625 36.1708 82.5006L29.1406 78.4381L29.8292 77.2469L35.8265 80.6897V66.0716L29.1406 62.202L29.8292 61.0107L36.8594 65.0732C36.9644 65.1339 37.0516 65.2212 37.1121 65.3264C37.1725 65.4316 37.2041 65.5509 37.2036 65.6723V81.9085C37.2029 82.0286 37.1707 82.1465 37.1103 82.2504C37.05 82.3543 36.9634 82.4405 36.8594 82.5006C36.7551 82.5625 36.6363 82.5958 36.5151 82.597Z" fill="url(#paint21_linear_14010_8452)"/>
<path d="M57.6073 54.181C57.457 54.1795 57.3114 54.1289 57.1926 54.0368C57.0738 53.9448 56.9884 53.8164 56.9494 53.6713C56.9104 53.5262 56.9199 53.3723 56.9765 53.2331C57.0332 53.0939 57.1338 52.977 57.263 52.9003L64.2932 48.8379C64.3981 48.7773 64.5171 48.7455 64.6382 48.7456C64.7593 48.7457 64.8782 48.7778 64.983 48.8385C65.0877 48.8993 65.1746 48.9866 65.2348 49.0916C65.2951 49.1967 65.3265 49.3158 65.3261 49.4369C65.3253 49.5571 65.2932 49.6749 65.2328 49.7788C65.1724 49.8827 65.0858 49.969 64.9818 50.029L57.9516 54.0916C57.8467 54.151 57.7279 54.1819 57.6073 54.181Z" fill="url(#paint22_linear_14010_8452)"/>
<path d="M50.5753 58.278C50.4551 58.2773 50.3372 58.2451 50.2334 58.1847C50.1295 58.1243 50.0432 58.0378 49.9831 57.9337C49.9212 57.8295 49.888 57.7107 49.8867 57.5895C49.8862 57.4681 49.9178 57.3488 49.9783 57.2436C50.0388 57.1384 50.1259 57.0511 50.231 56.9904L57.2612 52.9348C57.3394 52.889 57.4258 52.8591 57.5156 52.8467C57.6053 52.8344 57.6967 52.8399 57.7843 52.8629C57.8719 52.886 57.9542 52.9261 58.0263 52.9809C58.0984 53.0358 58.159 53.1044 58.2045 53.1827C58.25 53.2613 58.2796 53.3481 58.2914 53.4382C58.3033 53.5282 58.2971 53.6197 58.2734 53.7074C58.2498 53.7951 58.209 53.8772 58.1534 53.949C58.0979 54.0209 58.0286 54.081 57.9497 54.126L50.9333 58.1472C50.8287 58.2236 50.7046 58.269 50.5753 58.278Z" fill="url(#paint23_linear_14010_8452)"/>
<path d="M43.5479 62.2958C43.4278 62.2951 43.3099 62.2629 43.206 62.2026C43.1021 62.1422 43.0158 62.0556 42.9557 61.9515C42.8939 61.8473 42.8606 61.7285 42.8594 61.6073C42.8601 61.4871 42.8922 61.3692 42.9526 61.2653C43.013 61.1615 43.0996 61.0752 43.2037 61.0151L50.2338 56.9526C50.3124 56.9071 50.3992 56.8776 50.4893 56.8657C50.5793 56.8539 50.6708 56.86 50.7585 56.8837C50.8462 56.9074 50.9283 56.9482 51.0001 57.0037C51.072 57.0593 51.1321 57.1285 51.1771 57.2074C51.2669 57.3655 51.2905 57.5527 51.2428 57.7281C51.195 57.9036 51.0799 58.053 50.9224 58.1438L43.8922 62.2063C43.7873 62.2658 43.6686 62.2967 43.5479 62.2958Z" fill="url(#paint24_linear_14010_8452)"/>
<path d="M36.5176 66.3597C36.3651 66.3608 36.2166 66.3112 36.0954 66.2188C35.9741 66.1264 35.887 65.9963 35.8476 65.849C35.8082 65.7017 35.8188 65.5456 35.8778 65.405C35.9367 65.2644 36.0406 65.1473 36.1733 65.0721L43.2035 61.0303C43.2817 60.9845 43.3681 60.9545 43.4579 60.9422C43.5476 60.9299 43.6389 60.9354 43.7266 60.9584C43.8142 60.9814 43.8965 61.0215 43.9686 61.0764C44.0407 61.1313 44.1012 61.1998 44.1468 61.2782C44.2075 61.3851 44.2384 61.5064 44.2363 61.6293C44.2363 61.7488 44.2052 61.8663 44.146 61.9701C44.0868 62.0739 44.0017 62.1606 43.8989 62.2215L36.8687 66.2771C36.7611 66.3354 36.6399 66.3639 36.5176 66.3597Z" fill="url(#paint25_linear_14010_8452)"/>
<path d="M36.5191 50.1259C36.3979 50.1247 36.2791 50.0914 36.1748 50.0295L29.1446 45.9808L29.0689 45.9257L15.0843 37.8627L15.0086 37.8076L1.02397 29.7446C0.918895 29.6839 0.831726 29.5966 0.771268 29.4914C0.71081 29.3862 0.679211 29.2669 0.679693 29.1456V21.0275C0.679211 20.9061 0.71081 20.7868 0.771268 20.6816C0.831726 20.5764 0.918895 20.4891 1.02397 20.4284C1.12865 20.368 1.24738 20.3362 1.36825 20.3362C1.48912 20.3362 1.60786 20.368 1.71253 20.4284L36.829 40.7202C36.934 40.7809 37.0212 40.8682 37.0817 40.9734C37.1421 41.0786 37.1737 41.1979 37.1732 41.3193V49.4374C37.1725 49.5575 37.1403 49.6754 37.0799 49.7793C37.0195 49.8832 36.933 49.9694 36.829 50.0295C36.7348 50.0859 36.6286 50.1189 36.5191 50.1259ZM29.909 44.8309L35.8305 48.2737V41.7531L2.09123 22.2531V28.7806L15.8073 36.6922L15.8831 36.7473L29.8677 44.8103L29.909 44.8309Z" fill="url(#paint26_linear_14010_8452)"/>
<path d="M57.6065 29.8307C57.4864 29.8299 57.3685 29.7978 57.2646 29.7374C57.1607 29.677 57.0745 29.5904 57.0144 29.4864C56.9525 29.3821 56.9192 29.2633 56.918 29.1421C56.9175 29.0208 56.9491 28.9015 57.0095 28.7963C57.07 28.6911 57.1572 28.6037 57.2623 28.5431L64.2924 24.4806C64.4513 24.3893 64.6399 24.3648 64.8168 24.4126C64.9938 24.4603 65.1445 24.5765 65.2358 24.7353C65.3271 24.8942 65.3515 25.0828 65.3037 25.2598C65.2559 25.4367 65.1399 25.5873 64.981 25.6787L57.9508 29.7342C57.8465 29.7961 57.7278 29.8294 57.6065 29.8307Z" fill="url(#paint27_linear_14010_8452)"/>
<path d="M50.5734 33.8864C50.4532 33.8857 50.3353 33.8535 50.2314 33.7931C50.1275 33.7327 50.0413 33.6462 49.9812 33.5421C49.9354 33.4639 49.9055 33.3775 49.8931 33.2877C49.8808 33.198 49.8863 33.1066 49.9093 33.019C49.9324 32.9314 49.9725 32.8491 50.0274 32.777C50.0822 32.7049 50.1508 32.6443 50.2291 32.5988L57.2593 28.5432C57.3379 28.4977 57.4247 28.4681 57.5147 28.4563C57.6048 28.4445 57.6963 28.4506 57.784 28.4743C57.8716 28.4979 57.9538 28.5387 58.0256 28.5943C58.0975 28.6498 58.1576 28.7191 58.2026 28.798C58.2609 28.9009 58.2917 29.0171 58.2921 29.1353C58.2926 29.2567 58.261 29.376 58.2005 29.4812C58.1401 29.5864 58.0529 29.6737 57.9478 29.7344L50.9314 33.7969C50.8224 33.8588 50.6986 33.8897 50.5734 33.8864Z" fill="url(#paint28_linear_14010_8452)"/>
<path d="M43.545 37.9455H43.4486C43.277 37.9183 43.1221 37.8273 43.0148 37.6907C42.9964 37.6694 42.9803 37.6464 42.9666 37.6219V37.5737C42.8932 37.4213 42.8785 37.2473 42.9252 37.0848C42.9585 36.9668 43.0227 36.8598 43.1112 36.7749C43.148 36.7375 43.1897 36.705 43.2351 36.6786L50.2653 32.6161C50.344 32.5708 50.4307 32.5416 50.5207 32.5299C50.6107 32.5182 50.7021 32.5244 50.7897 32.5481C50.8773 32.5717 50.9594 32.6124 51.0313 32.6678C51.1031 32.7232 51.1634 32.7921 51.2086 32.8708C51.2538 32.9495 51.2831 33.0363 51.2948 33.1263C51.3064 33.2163 51.3002 33.3077 51.2766 33.3953C51.2529 33.4829 51.2123 33.5649 51.1569 33.6368C51.1015 33.7087 51.0325 33.7689 50.9539 33.8142L43.9237 37.8698C43.8072 37.9306 43.6758 37.9569 43.545 37.9455Z" fill="url(#paint29_linear_14010_8452)"/>
<path d="M36.5128 42.0055C36.3926 42.0048 36.2747 41.9727 36.1709 41.9123C36.067 41.8519 35.9807 41.7653 35.9206 41.6613C35.8587 41.557 35.8255 41.4382 35.8242 41.317C35.8237 41.1956 35.8553 41.0763 35.9158 40.9711C35.9763 40.8659 36.0634 40.7786 36.1685 40.7179L43.1987 36.6623C43.2773 36.6168 43.3641 36.5873 43.4541 36.5754C43.5442 36.5636 43.6357 36.5697 43.7233 36.5934C43.811 36.6171 43.8932 36.6579 43.965 36.7134C44.0369 36.769 44.097 36.8382 44.142 36.9171C44.2003 37.02 44.2312 37.1362 44.2315 37.2545C44.232 37.3758 44.2004 37.4951 44.14 37.6003C44.0795 37.7055 43.9923 37.7929 43.8872 37.8535L36.8571 41.916C36.7521 41.9755 36.6334 42.0064 36.5128 42.0055Z" fill="url(#paint30_linear_14010_8452)"/>
<path d="M8.05412 50.0124L1.02397 45.9499C0.919905 45.8898 0.833346 45.8035 0.772949 45.6997C0.712552 45.5958 0.680418 45.4779 0.679693 45.3577C0.679211 45.2364 0.71081 45.1171 0.771268 45.0119C0.831726 44.9067 0.918895 44.8194 1.02397 44.7587L15.0843 36.6406C15.189 36.5802 15.3077 36.5483 15.4286 36.5483C15.5494 36.5483 15.6682 36.5802 15.7729 36.6406L15.8486 36.6957L22.803 40.7031C22.9081 40.7638 22.9953 40.8511 23.0557 40.9563C23.1162 41.0615 23.1478 41.1808 23.1473 41.3021C23.1466 41.4223 23.1144 41.5402 23.054 41.6441C22.9936 41.7479 22.9071 41.8342 22.803 41.8943L15.7729 45.9499L15.0843 44.7587L21.0817 41.3159L15.4217 38.0521L2.73847 45.3715L8.73582 48.8143L8.05412 50.0124Z" fill="url(#paint31_linear_14010_8452)"/>
<path d="M57.263 45.9642L50.2466 41.9087C50.1426 41.8486 50.056 41.7623 49.9956 41.6584C49.9353 41.5545 49.9031 41.4366 49.9023 41.3165C49.9019 41.1952 49.9335 41.0758 49.9939 40.9706C50.0544 40.8655 50.1416 40.7781 50.2466 40.7174L57.2768 36.6618C57.3815 36.6014 57.5002 36.5696 57.6211 36.5696C57.742 36.5696 57.8607 36.6014 57.9654 36.6618L64.9955 40.7174L64.307 41.9087L57.6211 38.0527L51.968 41.3165L57.9654 44.7593L57.263 45.9642Z" fill="url(#paint32_linear_14010_8452)"/>
<path d="M36.5151 66.358C36.3938 66.3568 36.2751 66.3235 36.1708 66.2616L29.1406 62.1992L29.8292 61.0079L36.5151 64.8707L70.2544 45.3708L64.2571 41.928L64.9456 40.7368L71.9758 44.7924C72.0809 44.8531 72.168 44.9404 72.2285 45.0456C72.289 45.1508 72.3206 45.2701 72.3201 45.3915C72.3194 45.5116 72.2872 45.6295 72.2268 45.7334C72.1664 45.8373 72.0799 45.9235 71.9758 45.9836L36.8594 66.2823C36.7531 66.337 36.6345 66.3631 36.5151 66.358Z" fill="url(#paint33_linear_14010_8452)"/>
<path d="M57.2573 44.7611L36.168 56.9419L36.8567 58.1344L57.946 45.9536L57.2573 44.7611Z" fill="url(#paint34_linear_14010_8452)"/>
<path d="M23.6026 46.1747L22.9141 47.3728L37.0395 55.4909L37.7281 54.2928L23.6026 46.1747Z" fill="url(#paint35_linear_14010_8452)"/>
<path d="M22.7897 56.9529L22.1016 58.1458L29.1335 62.2023L29.8216 61.0095L22.7897 56.9529Z" fill="url(#paint36_linear_14010_8452)"/>
<path d="M15.7515 44.7656L15.0625 45.958L22.0916 50.0195L22.7805 48.8271L15.7515 44.7656Z" fill="url(#paint37_linear_14010_8452)"/>
<path d="M8.73934 48.8364L8.05078 50.0291L22.1117 58.1471L22.8003 56.9545L8.73934 48.8364Z" fill="url(#paint38_linear_14010_8452)"/>
<path d="M8.05109 25.6788L1.02094 21.6232C0.914977 21.5631 0.826832 21.4761 0.765509 21.3708C0.704187 21.2656 0.671875 21.1459 0.671875 21.0241C0.671875 20.9023 0.704187 20.7827 0.765509 20.6775C0.826832 20.5722 0.914977 20.4852 1.02094 20.4251L36.1374 0.126427C36.2421 0.0659937 36.3608 0.0341797 36.4817 0.0341797C36.6025 0.0341797 36.7213 0.0659937 36.8259 0.126427L43.8561 4.18891L43.1675 5.38011L36.4817 1.51732L2.73545 21.0241L8.7328 24.4669L8.05109 25.6788Z" fill="url(#paint39_linear_14010_8452)"/>
<path d="M43.8756 4.18678L43.1875 5.37964L50.2194 9.43623L50.9075 8.24338L43.8756 4.18678Z" fill="url(#paint40_linear_14010_8452)"/>
<path d="M8.72413 24.4658L8.03516 25.6582L15.0642 29.7197L15.7532 28.5273L8.72413 24.4658Z" fill="url(#paint41_linear_14010_8452)"/>
<path d="M15.7624 28.5484L15.0742 29.7412L22.1061 33.7978L22.7943 32.6049L15.7624 28.5484Z" fill="url(#paint42_linear_14010_8452)"/>
<path d="M51.38 5.31729L50.6914 6.51538L57.7542 10.5744L58.4427 9.37634L51.38 5.31729Z" fill="url(#paint43_linear_14010_8452)"/>
<path d="M22.7788 32.5918L22.0898 33.7842L29.1189 37.8457L29.8079 36.6533L22.7788 32.5918Z" fill="url(#paint44_linear_14010_8452)"/>
<path d="M57.942 12.3081L57.2539 13.501L64.2858 17.5576L64.9739 16.3647L57.942 12.3081Z" fill="url(#paint45_linear_14010_8452)"/>
<path d="M36.5151 42.0062C36.3938 42.0049 36.2751 41.9717 36.1708 41.9098L29.1406 37.8611L29.8292 36.663L36.5151 40.5189L70.2545 21.0258L64.2571 17.583L64.9456 16.3918L71.9758 20.4543C72.0818 20.5144 72.1699 20.6015 72.2312 20.7067C72.2925 20.8119 72.3248 20.9316 72.3248 21.0534C72.3248 21.1752 72.2925 21.2948 72.2312 21.4C72.1699 21.5053 72.0818 21.5924 71.9758 21.6524L36.8594 41.9373C36.7525 41.9896 36.6339 42.0134 36.5151 42.0062Z" fill="url(#paint46_linear_14010_8452)"/>
<path d="M36.5179 58.2723C36.3966 58.271 36.2779 58.2377 36.1736 58.1759L22.1133 50.0096L22.8018 48.8184L36.5179 56.7368L50.2477 48.8321L50.9363 50.0233L36.876 58.1414C36.7713 58.2179 36.6472 58.2632 36.5179 58.2723Z" fill="url(#paint47_linear_14010_8452)"/>
<path d="M36.5156 50.1234C36.3944 50.1222 36.2756 50.0889 36.1713 50.027L29.1412 45.9783C29.0361 45.9177 28.9489 45.8303 28.8885 45.7251C28.828 45.6199 28.7964 45.5006 28.7969 45.3793H29.4854L29.8297 44.7871L36.5156 48.643L43.2015 44.7871L43.5458 45.3793H44.2344C44.2361 45.5018 44.205 45.6225 44.1445 45.729C44.084 45.8355 43.9962 45.924 43.8901 45.9852L36.8599 50.0133C36.757 50.08 36.6381 50.118 36.5156 50.1234Z" fill="url(#paint48_linear_14010_8452)"/>
<defs>
<linearGradient id="paint0_linear_14010_8452" x1="15.6187" y1="42.1795" x2="23.9764" y2="52.8382" gradientUnits="userSpaceOnUse">
<stop stop-color="#F35EBD"/>
<stop offset="1" stop-color="#512579"/>
</linearGradient>
<linearGradient id="paint1_linear_14010_8452" x1="9.25509" y1="50.6334" x2="10.4677" y2="49.0619" gradientUnits="userSpaceOnUse">
<stop stop-color="#F35EBD"/>
<stop offset="1" stop-color="#512579"/>
</linearGradient>
<linearGradient id="paint2_linear_14010_8452" x1="16.2781" y1="54.6796" x2="17.4918" y2="53.109" gradientUnits="userSpaceOnUse">
<stop stop-color="#F35EBD"/>
<stop offset="1" stop-color="#512579"/>
</linearGradient>
<linearGradient id="paint3_linear_14010_8452" x1="23.3137" y1="58.7523" x2="24.5263" y2="57.1808" gradientUnits="userSpaceOnUse">
<stop stop-color="#F35EBD"/>
<stop offset="1" stop-color="#512579"/>
</linearGradient>
<linearGradient id="paint4_linear_14010_8452" x1="30.3367" y1="62.7985" x2="31.5504" y2="61.2279" gradientUnits="userSpaceOnUse">
<stop stop-color="#F35EBD"/>
<stop offset="1" stop-color="#512579"/>
</linearGradient>
<linearGradient id="paint5_linear_14010_8452" x1="37.953" y1="51.0064" x2="71.4419" y2="76.6173" gradientUnits="userSpaceOnUse">
<stop stop-color="#F35EBD"/>
<stop offset="1" stop-color="#512579"/>
</linearGradient>
<linearGradient id="paint6_linear_14010_8452" x1="9.24686" y1="26.2656" x2="10.4605" y2="24.695" gradientUnits="userSpaceOnUse">
<stop stop-color="#F35EBD"/>
<stop offset="1" stop-color="#512579"/>
</linearGradient>
<linearGradient id="paint7_linear_14010_8452" x1="16.2863" y1="30.3477" x2="17.4989" y2="28.7763" gradientUnits="userSpaceOnUse">
<stop stop-color="#F35EBD"/>
<stop offset="1" stop-color="#512579"/>
</linearGradient>
<linearGradient id="paint8_linear_14010_8452" x1="23.3015" y1="34.3915" x2="24.5152" y2="32.8209" gradientUnits="userSpaceOnUse">
<stop stop-color="#F35EBD"/>
<stop offset="1" stop-color="#512579"/>
</linearGradient>
<linearGradient id="paint9_linear_14010_8452" x1="30.3645" y1="38.4759" x2="31.577" y2="36.9045" gradientUnits="userSpaceOnUse">
<stop stop-color="#F35EBD"/>
<stop offset="1" stop-color="#512579"/>
</linearGradient>
<linearGradient id="paint10_linear_14010_8452" x1="37.953" y1="25.3011" x2="65.2122" y2="51.8288" gradientUnits="userSpaceOnUse">
<stop stop-color="#F35EBD"/>
<stop offset="1" stop-color="#512579"/>
</linearGradient>
<linearGradient id="paint11_linear_14010_8452" x1="43.7436" y1="44.7961" x2="45.3948" y2="46.6271" gradientUnits="userSpaceOnUse">
<stop stop-color="#F35EBD"/>
<stop offset="1" stop-color="#512579"/>
</linearGradient>
<linearGradient id="paint12_linear_14010_8452" x1="50.7164" y1="42.2886" x2="58.6525" y2="47.7732" gradientUnits="userSpaceOnUse">
<stop stop-color="#F35EBD"/>
<stop offset="1" stop-color="#512579"/>
</linearGradient>
<linearGradient id="paint13_linear_14010_8452" x1="1.15003" y1="48.2809" x2="11.9273" y2="51.4793" gradientUnits="userSpaceOnUse">
<stop stop-color="#F35EBD"/>
<stop offset="1" stop-color="#512579"/>
</linearGradient>
<linearGradient id="paint14_linear_14010_8452" x1="9.25509" y1="50.6334" x2="10.4677" y2="49.0619" gradientUnits="userSpaceOnUse">
<stop stop-color="#F35EBD"/>
<stop offset="1" stop-color="#512579"/>
</linearGradient>
<linearGradient id="paint15_linear_14010_8452" x1="9.25509" y1="66.8665" x2="10.4677" y2="65.2951" gradientUnits="userSpaceOnUse">
<stop stop-color="#F35EBD"/>
<stop offset="1" stop-color="#512579"/>
</linearGradient>
<linearGradient id="paint16_linear_14010_8452" x1="43.3524" y1="49.667" x2="48.2054" y2="55.6365" gradientUnits="userSpaceOnUse">
<stop stop-color="#F35EBD"/>
<stop offset="1" stop-color="#512579"/>
</linearGradient>
<linearGradient id="paint17_linear_14010_8452" x1="16.2781" y1="54.6796" x2="17.4918" y2="53.109" gradientUnits="userSpaceOnUse">
<stop stop-color="#F35EBD"/>
<stop offset="1" stop-color="#512579"/>
</linearGradient>
<linearGradient id="paint18_linear_14010_8452" x1="16.2781" y1="70.9128" x2="17.4918" y2="69.3422" gradientUnits="userSpaceOnUse">
<stop stop-color="#F35EBD"/>
<stop offset="1" stop-color="#512579"/>
</linearGradient>
<linearGradient id="paint19_linear_14010_8452" x1="23.3137" y1="58.7523" x2="24.5263" y2="57.1808" gradientUnits="userSpaceOnUse">
<stop stop-color="#F35EBD"/>
<stop offset="1" stop-color="#512579"/>
</linearGradient>
<linearGradient id="paint20_linear_14010_8452" x1="23.3176" y1="74.9925" x2="24.5302" y2="73.4211" gradientUnits="userSpaceOnUse">
<stop stop-color="#F35EBD"/>
<stop offset="1" stop-color="#512579"/>
</linearGradient>
<linearGradient id="paint21_linear_14010_8452" x1="29.611" y1="64.6085" x2="40.3886" y2="67.8065" gradientUnits="userSpaceOnUse">
<stop stop-color="#F35EBD"/>
<stop offset="1" stop-color="#512579"/>
</linearGradient>
<linearGradient id="paint22_linear_14010_8452" x1="57.4158" y1="49.6515" x2="62.2885" y2="55.6337" gradientUnits="userSpaceOnUse">
<stop stop-color="#F35EBD"/>
<stop offset="1" stop-color="#512579"/>
</linearGradient>
<linearGradient id="paint23_linear_14010_8452" x1="50.3773" y1="53.7466" x2="55.2512" y2="59.7351" gradientUnits="userSpaceOnUse">
<stop stop-color="#F35EBD"/>
<stop offset="1" stop-color="#512579"/>
</linearGradient>
<linearGradient id="paint24_linear_14010_8452" x1="43.3498" y1="57.7659" x2="48.2222" y2="63.7523" gradientUnits="userSpaceOnUse">
<stop stop-color="#F35EBD"/>
<stop offset="1" stop-color="#512579"/>
</linearGradient>
<linearGradient id="paint25_linear_14010_8452" x1="36.3149" y1="61.8398" x2="41.1742" y2="67.8263" gradientUnits="userSpaceOnUse">
<stop stop-color="#F35EBD"/>
<stop offset="1" stop-color="#512579"/>
</linearGradient>
<linearGradient id="paint26_linear_14010_8452" x1="2.80848" y1="25.3011" x2="30.0677" y2="51.8287" gradientUnits="userSpaceOnUse">
<stop stop-color="#F35EBD"/>
<stop offset="1" stop-color="#512579"/>
</linearGradient>
<linearGradient id="paint27_linear_14010_8452" x1="57.4085" y1="25.2957" x2="62.2871" y2="31.2846" gradientUnits="userSpaceOnUse">
<stop stop-color="#F35EBD"/>
<stop offset="1" stop-color="#512579"/>
</linearGradient>
<linearGradient id="paint28_linear_14010_8452" x1="50.377" y1="29.3565" x2="55.2499" y2="35.3417" gradientUnits="userSpaceOnUse">
<stop stop-color="#F35EBD"/>
<stop offset="1" stop-color="#512579"/>
</linearGradient>
<linearGradient id="paint29_linear_14010_8452" x1="43.3886" y1="33.4282" x2="48.2486" y2="39.4088" gradientUnits="userSpaceOnUse">
<stop stop-color="#F35EBD"/>
<stop offset="1" stop-color="#512579"/>
</linearGradient>
<linearGradient id="paint30_linear_14010_8452" x1="36.3146" y1="37.4756" x2="41.1871" y2="43.4619" gradientUnits="userSpaceOnUse">
<stop stop-color="#F35EBD"/>
<stop offset="1" stop-color="#512579"/>
</linearGradient>
<linearGradient id="paint31_linear_14010_8452" x1="1.9903" y1="38.7923" x2="13.8413" y2="54.5021" gradientUnits="userSpaceOnUse">
<stop stop-color="#F35EBD"/>
<stop offset="1" stop-color="#512579"/>
</linearGradient>
<linearGradient id="paint32_linear_14010_8452" x1="50.7828" y1="38.1354" x2="59.1329" y2="48.7922" gradientUnits="userSpaceOnUse">
<stop stop-color="#F35EBD"/>
<stop offset="1" stop-color="#512579"/>
</linearGradient>
<linearGradient id="paint33_linear_14010_8452" x1="31.6594" y1="45.0071" x2="54.1495" y2="75.116" gradientUnits="userSpaceOnUse">
<stop stop-color="#F35EBD"/>
<stop offset="1" stop-color="#512579"/>
</linearGradient>
<linearGradient id="paint34_linear_14010_8452" x1="37.513" y1="56.4301" x2="38.9222" y2="58.513" gradientUnits="userSpaceOnUse">
<stop stop-color="#F35EBD"/>
<stop offset="1" stop-color="#512579"/>
</linearGradient>
<linearGradient id="paint35_linear_14010_8452" x1="25.3085" y1="48.6559" x2="26.4222" y2="46.9885" gradientUnits="userSpaceOnUse">
<stop stop-color="#F35EBD"/>
<stop offset="1" stop-color="#512579"/>
</linearGradient>
<linearGradient id="paint36_linear_14010_8452" x1="23.3137" y1="58.7523" x2="24.5263" y2="57.1808" gradientUnits="userSpaceOnUse">
<stop stop-color="#F35EBD"/>
<stop offset="1" stop-color="#512579"/>
</linearGradient>
<linearGradient id="paint37_linear_14010_8452" x1="16.2742" y1="46.5654" x2="17.4879" y2="44.9948" gradientUnits="userSpaceOnUse">
<stop stop-color="#F35EBD"/>
<stop offset="1" stop-color="#512579"/>
</linearGradient>
<linearGradient id="paint38_linear_14010_8452" x1="10.4344" y1="51.3125" x2="11.5477" y2="49.653" gradientUnits="userSpaceOnUse">
<stop stop-color="#F35EBD"/>
<stop offset="1" stop-color="#512579"/>
</linearGradient>
<linearGradient id="paint39_linear_14010_8452" x1="3.19095" y1="4.30828" x2="25.706" y2="34.4271" gradientUnits="userSpaceOnUse">
<stop stop-color="#F35EBD"/>
<stop offset="1" stop-color="#512579"/>
</linearGradient>
<linearGradient id="paint40_linear_14010_8452" x1="44.3996" y1="5.98615" x2="45.6122" y2="4.41471" gradientUnits="userSpaceOnUse">
<stop stop-color="#F35EBD"/>
<stop offset="1" stop-color="#512579"/>
</linearGradient>
<linearGradient id="paint41_linear_14010_8452" x1="9.24686" y1="26.2656" x2="10.4605" y2="24.695" gradientUnits="userSpaceOnUse">
<stop stop-color="#F35EBD"/>
<stop offset="1" stop-color="#512579"/>
</linearGradient>
<linearGradient id="paint42_linear_14010_8452" x1="16.2863" y1="30.3477" x2="17.4989" y2="28.7763" gradientUnits="userSpaceOnUse">
<stop stop-color="#F35EBD"/>
<stop offset="1" stop-color="#512579"/>
</linearGradient>
<linearGradient id="paint43_linear_14010_8452" x1="51.9087" y1="7.122" x2="53.1229" y2="5.54316" gradientUnits="userSpaceOnUse">
<stop stop-color="#F35EBD"/>
<stop offset="1" stop-color="#512579"/>
</linearGradient>
<linearGradient id="paint44_linear_14010_8452" x1="23.3015" y1="34.3915" x2="24.5152" y2="32.8209" gradientUnits="userSpaceOnUse">
<stop stop-color="#F35EBD"/>
<stop offset="1" stop-color="#512579"/>
</linearGradient>
<linearGradient id="paint45_linear_14010_8452" x1="58.466" y1="14.1075" x2="59.6786" y2="12.536" gradientUnits="userSpaceOnUse">
<stop stop-color="#F35EBD"/>
<stop offset="1" stop-color="#512579"/>
</linearGradient>
<linearGradient id="paint46_linear_14010_8452" x1="31.6597" y1="20.6611" x2="54.1421" y2="50.7702" gradientUnits="userSpaceOnUse">
<stop stop-color="#F35EBD"/>
<stop offset="1" stop-color="#512579"/>
</linearGradient>
<linearGradient id="paint47_linear_14010_8452" x1="23.7946" y1="50.394" x2="29.9001" y2="65.1812" gradientUnits="userSpaceOnUse">
<stop stop-color="#F35EBD"/>
<stop offset="1" stop-color="#512579"/>
</linearGradient>
<linearGradient id="paint48_linear_14010_8452" x1="29.6974" y1="45.6765" x2="33.2718" y2="53.8908" gradientUnits="userSpaceOnUse">
<stop stop-color="#F35EBD"/>
<stop offset="1" stop-color="#512579"/>
</linearGradient>
</defs>
</svg>
