<svg width="73" height="83" viewBox="0 0 73 83" fill="none" xmlns="http://www.w3.org/2000/svg">
<path d="M50.6961 74.4635C50.5749 74.4622 50.4562 74.429 50.352 74.3671C50.2479 74.3071 50.1615 74.2208 50.1011 74.117C50.0407 74.0131 50.0085 73.8953 50.0078 73.7752V33.2004C50.0073 33.0791 50.0389 32.9598 50.0993 32.8547C50.1598 32.7495 50.2469 32.6622 50.352 32.6016L57.3725 28.5475C57.4771 28.4871 57.5958 28.4553 57.7167 28.4553C57.8375 28.4553 57.9562 28.4871 58.0608 28.5475C58.1658 28.6082 58.253 28.6955 58.3134 28.8006C58.3739 28.9058 58.4054 29.0251 58.4049 29.1463V69.7143C58.4042 69.8344 58.3721 69.9522 58.3118 70.0561C58.2514 70.1599 58.1648 70.2461 58.0608 70.3062L51.0403 74.3671C50.936 74.429 50.8173 74.4622 50.6961 74.4635ZM51.3844 33.5996V72.5776L57.0284 69.315V30.3371L51.3844 33.5996Z" fill="white"/>
<path d="M36.6531 82.5802C36.5319 82.5789 36.4132 82.5457 36.309 82.4838C36.205 82.4238 36.1185 82.3375 36.0581 82.2337C35.9977 82.1299 35.9656 82.012 35.9648 81.8919V41.3171C35.9644 41.1958 35.996 41.0765 36.0564 40.9714C36.1169 40.8662 36.204 40.7789 36.309 40.7183L43.3296 36.6642C43.4343 36.6038 43.5529 36.572 43.6738 36.572C43.7946 36.572 43.9133 36.6038 44.0179 36.6642C44.1229 36.7249 44.21 36.8122 44.2705 36.9174C44.3309 37.0225 44.3625 37.1418 44.3621 37.2631V77.831C44.3625 77.9523 44.3309 78.0715 44.2705 78.1767C44.21 78.2818 44.1229 78.3692 44.0179 78.4298L36.9904 82.4838C36.8882 82.5445 36.772 82.5777 36.6531 82.5802ZM37.3414 41.7163V80.6943L42.9924 77.4318V38.4538L37.3414 41.7163Z" fill="white"/>
<path d="M36.3018 17.5681L29.2812 13.5141L29.6185 12.9222V12.2339C29.7388 12.2349 29.8571 12.2656 29.9627 12.3234L36.9832 16.3774L36.3018 17.5681Z" fill="white"/>
<path d="M29.6265 21.7213C29.5053 21.7201 29.3866 21.6868 29.2823 21.625L22.2617 17.564L22.95 16.3733L29.9706 20.4342L29.6265 21.0262V21.7213Z" fill="white"/>
<path d="M8.8684 24.4758L8.17969 25.6677L15.206 29.7277L15.8947 28.5357L8.8684 24.4758Z" fill="white"/>
<path d="M36.6538 25.7784C36.5334 25.7774 36.4152 25.7467 36.3096 25.6889L29.2891 21.6349L29.9774 20.4373L36.9979 24.4913L36.6538 25.0832V25.7784Z" fill="white"/>
<path d="M43.3292 21.6231L36.3086 17.5622L36.6459 16.9771V16.2888C36.7684 16.2898 36.8888 16.3205 36.9969 16.3783L44.0175 20.4392L43.3292 21.6231Z" fill="white"/>
<path d="M22.5967 25.7748H22.5898V24.3982L22.5967 25.7748Z" fill="white"/>
<path d="M15.9066 28.5466L15.2188 29.739L22.2479 33.794L22.9358 32.6016L15.9066 28.5466Z" fill="white"/>
<path d="M43.6803 29.8378C43.5567 29.8377 43.4355 29.8044 43.3292 29.7414L36.3086 25.6805L36.9969 24.4897L44.0175 28.5507L43.6734 29.1426L43.6803 29.8378Z" fill="white"/>
<path d="M29.628 29.8343H29.6211V28.4578L29.628 29.8343Z" fill="white"/>
<path d="M22.927 32.5879L22.2383 33.7798L29.2646 37.8397L29.9533 36.6478L22.927 32.5879Z" fill="white"/>
<path d="M50.6958 33.888C50.5733 33.887 50.4528 33.8563 50.3448 33.7985L43.3242 29.7445L44.0125 28.5469L51.0331 32.6009L50.6889 33.1928L50.6958 33.888Z" fill="white"/>
<path d="M43.6827 37.951H43.6758V36.5745L43.6827 37.951Z" fill="white"/>
<path d="M29.9848 36.6843L29.2969 37.8767L36.3261 41.9317L37.0139 40.7393L29.9848 36.6843Z" fill="white"/>
<path d="M36.6553 33.889H36.6484V32.5125L36.6553 33.889Z" fill="white"/>
<path d="M37.4188 4.90491L36.7305 6.10254L43.7905 10.16L44.4788 8.96239L37.4188 4.90491Z" fill="white"/>
<path d="M44.0121 12.3181L43.3242 13.5105L50.3534 17.5655L51.0413 16.3731L44.0121 12.3181Z" fill="white"/>
<path d="M51.0286 16.3569L50.3398 17.5488L57.3662 21.6088L58.0549 20.4168L51.0286 16.3569Z" fill="white"/>
<path d="M58.0551 20.4299L57.3672 21.6223L64.3964 25.6773L65.0842 24.4849L58.0551 20.4299Z" fill="white"/>
<path d="M64.7547 66.347C64.6335 66.3458 64.5148 66.3125 64.4106 66.2507C64.3065 66.1906 64.22 66.1044 64.1596 66.0005C64.0992 65.8967 64.0671 65.7788 64.0664 65.6587V25.0839C64.0659 24.9627 64.0975 24.8434 64.1579 24.7382C64.2183 24.6331 64.3055 24.5458 64.4106 24.4851L71.438 20.4311C71.5426 20.3707 71.6613 20.3389 71.7821 20.3389C71.903 20.3389 72.0216 20.3707 72.1263 20.4311C72.2313 20.4917 72.3185 20.579 72.3789 20.6842C72.4394 20.7893 72.4709 20.9086 72.4704 21.0299V61.5978C72.4697 61.7179 72.4375 61.8358 72.3772 61.9396C72.3168 62.0434 72.2303 62.1297 72.1263 62.1898L65.0988 66.2507C64.9946 66.3125 64.8759 66.3458 64.7547 66.347ZM65.443 25.4831V64.4611L71.0938 61.1917V22.2206L65.443 25.4831Z" fill="white"/>
<path d="M64.7549 66.3532C64.6337 66.3519 64.515 66.3187 64.4107 66.2569L57.3832 62.1959C57.2792 62.1359 57.1927 62.0496 57.1323 61.9458C57.072 61.8419 57.0398 61.7241 57.0391 61.604V29.151H58.4156V61.2048L64.0666 64.4742V25.4893L57.3832 21.6349L58.0715 20.4373L65.099 24.4913C65.2041 24.5519 65.2911 24.6393 65.3516 24.7444C65.412 24.8496 65.4436 24.9688 65.4432 25.0901V65.6649C65.4424 65.785 65.4103 65.9029 65.3499 66.0067C65.2895 66.1106 65.203 66.1968 65.099 66.2569C64.9948 66.3187 64.8761 66.3519 64.7549 66.3532Z" fill="white"/>
<path d="M50.6962 74.4628C50.575 74.4616 50.4563 74.4283 50.352 74.3665L43.3246 70.3055C43.2206 70.2455 43.134 70.1593 43.0736 70.0554C43.0133 69.9516 42.9812 69.8337 42.9805 69.7136V37.2607H44.3571V69.3144L50.0079 72.5838V33.5989L43.3246 29.7445L44.0129 28.5469L51.0059 32.5871C51.1194 32.6443 51.2149 32.7319 51.2817 32.84C51.3485 32.9481 51.3841 33.0726 51.3845 33.1997V73.7745C51.3838 73.8946 51.3516 74.0125 51.2912 74.1163C51.2308 74.2202 51.1444 74.3064 51.0403 74.3665C50.9361 74.4283 50.8174 74.4616 50.6962 74.4628Z" fill="white"/>
<path d="M36.3013 17.5692L29.3083 13.5289C29.1948 13.4717 29.0993 13.3842 29.0324 13.2761C28.9656 13.168 28.9301 13.0434 28.9297 12.9163V4.80138C28.9292 4.6801 28.9608 4.56084 29.0212 4.45568C29.0816 4.35053 29.1688 4.2632 29.2738 4.20256C29.3785 4.14215 29.4972 4.11035 29.618 4.11035C29.7388 4.11035 29.8575 4.14215 29.9621 4.20256L36.9896 8.2566L36.3013 9.45423L30.3063 6.01277V12.5378L36.9896 16.3922L36.3013 17.5692Z" fill="white"/>
<path d="M22.6035 25.7751C22.4831 25.7742 22.3649 25.7434 22.2593 25.6857L15.2387 21.6316C15.1336 21.571 15.0466 21.4837 14.9861 21.3785C14.9257 21.2733 14.8941 21.1541 14.8945 21.0328V12.9178C14.8941 12.7966 14.9257 12.6773 14.9861 12.5721C15.0466 12.467 15.1336 12.3797 15.2387 12.319C15.3433 12.2586 15.462 12.2268 15.5828 12.2268C15.7036 12.2268 15.8223 12.2586 15.927 12.319L22.9544 16.3731L22.2661 17.5707L16.2711 14.1292V20.6542L22.9476 24.5087L22.6035 25.1006V25.7751Z" fill="white"/>
<path d="M43.3292 21.6231L36.3086 17.5622L36.6459 16.9771V16.2888C36.7662 16.2898 36.8844 16.3205 36.99 16.3783L44.0106 20.4392L43.3292 21.6231Z" fill="white"/>
<path d="M37.4188 4.90491L36.7305 6.10254L43.7905 10.16L44.4788 8.96239L37.4188 4.90491Z" fill="white"/>
<path d="M29.6255 29.8378C29.5019 29.8377 29.3807 29.8044 29.2744 29.7414L22.2539 25.6805L22.9422 24.4897L29.9627 28.5507L29.6186 29.1426L29.6255 29.8378Z" fill="white"/>
<path d="M29.6255 21.7213C29.5019 21.7213 29.3807 21.688 29.2744 21.625L22.2539 17.564L22.9422 16.3733L29.9627 20.4342L29.6186 21.0262L29.6255 21.7213Z" fill="white"/>
<path d="M44.0043 20.4277L43.3164 21.6201L50.3456 25.6751L51.0334 24.4827L44.0043 20.4277Z" fill="white"/>
<path d="M44.0121 12.3181L43.3242 13.5105L50.3534 17.5655L51.0413 16.3731L44.0121 12.3181Z" fill="white"/>
<path d="M36.6528 33.888C36.5303 33.887 36.4098 33.8563 36.3018 33.7985L29.2812 29.7445L29.9695 28.5469L36.9901 32.6009L36.6459 33.1928L36.6528 33.888Z" fill="white"/>
<path d="M36.6528 25.7784C36.5303 25.7774 36.4098 25.7467 36.3018 25.6889L29.2812 21.6349L29.9695 20.4373L36.9901 24.4913L36.6459 25.0832L36.6528 25.7784Z" fill="white"/>
<path d="M51.0286 24.4712L50.3398 25.6631L57.3662 29.723L58.0549 28.5311L51.0286 24.4712Z" fill="white"/>
<path d="M51.0286 16.3569L50.3398 17.5488L57.3662 21.6088L58.0549 20.4168L51.0286 16.3569Z" fill="white"/>
<path d="M43.6803 37.9498C43.5567 37.9498 43.4355 37.9165 43.3292 37.8535L36.3086 33.7926L36.9969 32.6018L44.0175 36.6627L43.6734 37.2547L43.6803 37.9498Z" fill="white"/>
<path d="M43.6803 29.8378C43.5567 29.8377 43.4355 29.8044 43.3292 29.7414L36.3086 25.6805L36.9969 24.4897L44.0175 28.5507L43.6734 29.1426L43.6803 29.8378Z" fill="white"/>
<path d="M8.20362 66.2507L1.17618 62.1898C1.07216 62.1297 0.985589 62.0435 0.925215 61.9396C0.864841 61.8358 0.832762 61.7179 0.832037 61.5978V21.0299C0.831555 20.9086 0.8631 20.7893 0.923534 20.6842C0.983969 20.579 1.07115 20.4917 1.17618 20.4311C1.28082 20.3707 1.39951 20.3389 1.52033 20.3389C1.64115 20.3389 1.75984 20.3707 1.86447 20.4311L8.89191 24.4851L8.20362 25.6827L2.20862 22.2413V61.2193L8.89191 65.0806L8.20362 66.2507Z" fill="white"/>
<path d="M8.8684 24.4758L8.17969 25.6677L15.206 29.7277L15.8947 28.5357L8.8684 24.4758Z" fill="white"/>
<path d="M8.88319 65.0608L8.19531 66.2532L15.2245 70.3082L15.9124 69.1158L8.88319 65.0608Z" fill="white"/>
<path d="M15.9066 28.5466L15.2188 29.739L22.2479 33.794L22.9358 32.6016L15.9066 28.5466Z" fill="white"/>
<path d="M15.8918 69.1042L15.2031 70.2961L22.2295 74.3561L22.9182 73.1642L15.8918 69.1042Z" fill="white"/>
<path d="M22.927 32.5879L22.2383 33.7798L29.2646 37.8397L29.9533 36.6478L22.927 32.5879Z" fill="white"/>
<path d="M22.934 73.1821L22.2461 74.3745L29.2753 78.4295L29.9632 77.2371L22.934 73.1821Z" fill="white"/>
<path d="M36.6528 82.5778C36.5316 82.5766 36.4129 82.5433 36.3087 82.4815L29.2812 78.4205L29.9695 77.2298L35.9645 80.6712V41.7483L29.2812 37.8939L29.9695 36.6963L36.997 40.7503C37.102 40.811 37.1892 40.8983 37.2496 41.0034C37.3101 41.1086 37.3416 41.2279 37.3411 41.3491V81.9239C37.3404 82.0441 37.3082 82.1619 37.2479 82.2657C37.1875 82.3696 37.101 82.4558 36.997 82.5159C36.8895 82.5658 36.771 82.5871 36.6528 82.5778Z" fill="white"/>
<path d="M36.3013 9.45558L29.2738 5.39465C29.1698 5.3346 29.0833 5.24837 29.023 5.14453C28.9626 5.04068 28.9304 4.92285 28.9297 4.80273C28.9292 4.68145 28.9608 4.56219 29.0212 4.45703C29.0816 4.35188 29.1688 4.26455 29.2738 4.20391L36.3013 0.142993C36.4059 0.082583 36.5246 0.0507812 36.6454 0.0507812C36.7662 0.0507812 36.8849 0.082583 36.9896 0.142993L44.0171 4.20391L43.3288 5.39465L36.6454 1.53335L30.9946 4.80273L36.9896 8.24419L36.3013 9.45558Z" fill="white"/>
<path d="M22.2554 17.5724L15.2278 13.5322C15.1219 13.4721 15.0338 13.3851 14.9725 13.2799C14.9112 13.1747 14.8789 13.0551 14.8789 12.9333C14.8789 12.8116 14.9112 12.692 14.9725 12.5868C15.0338 12.4816 15.1219 12.3946 15.2278 12.3345L22.2554 8.27361C22.36 8.2132 22.4787 8.1814 22.5995 8.1814C22.7203 8.1814 22.839 8.2132 22.9437 8.27361L29.9642 12.3345L29.2759 13.5253L22.5995 9.66396L16.9486 12.9333L22.9437 16.3748L22.2554 17.5724Z" fill="white"/>
<path d="M8.20059 25.6865L1.17315 21.6325C1.06723 21.5725 0.979116 21.4854 0.917817 21.3802C0.856518 21.275 0.824219 21.1554 0.824219 21.0337C0.824219 20.9119 0.856518 20.7924 0.917817 20.6872C0.979116 20.582 1.06723 20.4949 1.17315 20.4349L8.20059 16.374C8.30522 16.3135 8.42391 16.2817 8.54473 16.2817C8.66555 16.2817 8.78425 16.3135 8.88888 16.374L15.9163 20.4349L15.228 21.6256L8.54473 17.7643L2.89388 21.0337L8.88888 24.4751L8.20059 25.6865Z" fill="white"/>
<path d="M36.6538 25.7784C36.5334 25.7774 36.4152 25.7467 36.3096 25.6889L29.2891 21.6349L29.9774 20.4373L36.9979 24.4913L36.6538 25.0832V25.7784Z" fill="white"/>
<path d="M43.3292 21.6231L36.3086 17.5622L36.6459 16.9771V16.2888C36.7662 16.2898 36.8844 16.3205 36.99 16.3783L44.0106 20.4392L43.3292 21.6231Z" fill="white"/>
<path d="M44.0043 20.4277L43.3164 21.6201L50.3456 25.6751L51.0334 24.4827L44.0043 20.4277Z" fill="white"/>
<path d="M43.6803 29.8378C43.5567 29.8377 43.4355 29.8044 43.3292 29.7414L36.3086 25.6805L36.9969 24.4897L44.0175 28.5507L43.6734 29.1426L43.6803 29.8378Z" fill="white"/>
<path d="M22.927 32.5879L22.2383 33.7798L29.2646 37.8397L29.9533 36.6478L22.927 32.5879Z" fill="white"/>
<path d="M29.628 29.8343H29.6211V28.4578L29.628 29.8343Z" fill="white"/>
<path d="M15.9066 28.5466L15.2188 29.739L22.2479 33.794L22.9358 32.6016L15.9066 28.5466Z" fill="white"/>
<path d="M8.8684 24.4758L8.17969 25.6677L15.206 29.7277L15.8947 28.5357L8.8684 24.4758Z" fill="white"/>
<path d="M22.5967 25.7748H22.5898V24.3982L22.5967 25.7748Z" fill="white"/>
<path d="M36.6568 33.8895C36.5343 33.8885 36.4138 33.8578 36.3057 33.8L29.3609 29.7735L29.3059 29.7391L22.3335 25.7126H22.2784L15.2578 21.6586L15.9461 20.4609L22.9116 24.4874H22.9735L29.9459 28.5208H30.0011L37.0216 32.5749L36.6775 33.1668L36.6568 33.8895Z" fill="white"/>
<path d="M44.0043 4.19896L43.3164 5.39136L50.3456 9.44639L51.0335 8.25399L44.0043 4.19896Z" fill="white"/>
<path d="M37.4188 4.90491L36.7305 6.10254L43.7905 10.16L44.4788 8.96239L37.4188 4.90491Z" fill="white"/>
<path d="M36.3018 17.5681L29.2812 13.5141L29.6185 12.9222V12.2339C29.7388 12.2349 29.8571 12.2656 29.9627 12.3234L36.9832 16.3774L36.3018 17.5681Z" fill="white"/>
<path d="M29.6265 21.7213C29.5053 21.7201 29.3866 21.6868 29.2823 21.625L22.2617 17.564L22.95 16.3733L29.9706 20.4342L29.6265 21.0262V21.7213Z" fill="white"/>
<path d="M43.3292 21.6231L36.3086 17.5622L36.6459 16.9771V16.2888C36.7684 16.2898 36.8888 16.3205 36.9969 16.3783L44.0175 20.4392L43.3292 21.6231Z" fill="white"/>
<path d="M44.0121 12.3181L43.3242 13.5105L50.3534 17.5655L51.0413 16.3731L44.0121 12.3181Z" fill="white"/>
<path d="M51.0207 8.24485L50.332 9.43677L57.3584 13.4967L58.0471 12.3048L51.0207 8.24485Z" fill="white"/>
<path d="M51.0286 16.3569L50.3398 17.5488L57.3662 21.6088L58.0549 20.4168L51.0286 16.3569Z" fill="white"/>
<path d="M58.0629 12.3181L57.375 13.5105L64.4042 17.5655L65.0921 16.3731L58.0629 12.3181Z" fill="white"/>
<path d="M64.7545 25.7759C64.6342 25.7741 64.5162 25.7434 64.4103 25.6864L57.3828 21.6324L58.0711 20.4348L64.7545 24.2892L70.4053 21.0336L64.4103 17.5921L65.0986 16.4014L72.1261 20.4623C72.232 20.5223 72.3201 20.6094 72.3814 20.7146C72.4427 20.8198 72.475 20.9394 72.475 21.0611C72.475 21.1829 72.4427 21.3024 72.3814 21.4076C72.3201 21.5128 72.232 21.5999 72.1261 21.6599L65.0986 25.714C64.9901 25.7605 64.8724 25.7817 64.7545 25.7759Z" fill="white"/>
<path d="M36.6528 42.0069C36.5316 42.0057 36.4129 41.9724 36.3087 41.9106L29.2812 37.8634L29.9695 36.6658L36.6528 40.5202L43.3293 36.6658L44.0176 37.8634L36.997 41.9106C36.8927 41.9724 36.774 42.0057 36.6528 42.0069Z" fill="white"/>
<path d="M43.6803 37.9526C43.5567 37.9526 43.4355 37.9193 43.3292 37.8562L36.3086 33.7953L36.6459 33.2103V32.522C36.7662 32.523 36.8844 32.5537 36.99 32.6115L44.0106 36.6724L43.6665 37.2643L43.6803 37.9526Z" fill="white"/>
</svg>
