<svg width="117" height="143" viewBox="0 0 117 143" fill="none" xmlns="http://www.w3.org/2000/svg">
<path d="M88.6111 38.209H28.9678V51.8284H88.6111V38.209Z" fill="#DDE9E7"/>
<path d="M88.6111 51.8281H28.9678V142.68H88.6111V51.8281Z" fill="#DDE9E7"/>
<path d="M116.971 26.7031L88.6113 38.2091V51.8285L115.181 39.9487C116.27 39.4619 116.971 38.3803 116.971 37.1876L116.971 26.7031Z" fill="#8EA5A0"/>
<path d="M88.6113 142.678L108.88 131.367C111.589 129.855 113.267 126.996 113.267 123.895V40.8027L88.6113 51.8267V142.678Z" fill="#8EA5A0"/>
<path d="M112.909 115.683L113.267 116.189V106.104L106.771 102.783L109.62 109.729L106.096 114.505L112.909 115.683Z" fill="#930069"/>
<path d="M104.399 63.8887L105.118 71.3614L110.463 73.9423L104.986 78.1624L103.97 85.898L99.8653 81.0336L93.8926 83.2333L96.833 76.0067L94.1575 69.6307L100.08 70.0289L104.399 63.8887Z" fill="#930069"/>
<path d="M100.127 33.5403V136.257L107.591 132.091V30.5117L100.127 33.5403Z" fill="#FF00B7"/>
<path d="M0.608398 26.7031L28.9681 38.2091V51.8285L2.39843 39.9487C1.30949 39.4619 0.608398 38.3803 0.608398 37.1876V26.7031Z" fill="#EAF4F2"/>
<path d="M28.9673 142.678L8.69856 131.367C5.99015 129.855 4.31152 126.996 4.31152 123.895V40.8027L28.9673 51.8267V142.678Z" fill="#EAF4F2"/>
<path d="M37.9259 62.5469L42.6152 67.6698L49.4938 66.7113L46.0705 72.754L49.1078 78.9999L42.3028 77.6115L37.3015 82.4301L36.5191 75.5292L30.3906 72.2614L36.712 69.385L37.9259 62.5469Z" fill="#FF00B7"/>
<path d="M48.8506 92.2285L50.41 99.9231L57.6328 103.001L50.7965 106.862L50.1016 114.682L44.317 109.373L36.6647 111.129L39.926 103.987L35.8916 97.252L43.6916 98.1466L48.8506 92.2285Z" fill="#FF00B7"/>
<path d="M37.4157 124.475L32.2569 130.393L28.9678 130.016V142.518L32.8823 141.62L34.0357 142.678H39.0446L39.3618 139.108L46.1981 135.247L38.9753 132.169L37.4157 124.475Z" fill="#FF00B7"/>
<path d="M88.6121 109.738L88.116 107.291L82.9572 113.209L75.1572 112.315L79.1914 119.05L75.9304 126.192L83.5826 124.436L88.6121 129.052V109.738Z" fill="#FF00B7"/>
<path d="M75.0926 72.0352L76.6522 79.73L83.875 82.8074L77.0387 86.6685L76.3436 94.4887L70.5592 89.1801L62.9069 90.9358L66.1682 83.7941L62.1338 77.0586L69.9338 77.9533L75.0926 72.0352Z" fill="#FF00B7"/>
<path d="M6.71536 57.7559L13.3997 61.1728L18.4527 58.0583L19.0598 64.9464L25.0314 69.9673L18.7222 70.8072L17.36 77.0248L12.8535 70.656L6.04004 69.4777L9.56417 64.7015L6.71536 57.7559Z" fill="#FF6CD4"/>
<path d="M21.2653 105.738L19.675 112.969L23.2342 117.183L17.5926 119.284L14.5268 126.175L12.6306 120.243L7.17676 120.288L11.6462 114.521L11.3413 107.657L15.9997 110.025L21.2653 105.738Z" fill="#FF6CD4"/>
<path d="M17.4539 33.5403V136.257L9.98926 132.091V30.5117L17.4539 33.5403Z" fill="#FF00B7"/>
<path d="M88.6114 14.2559H58.7896H28.9679L0.608398 26.7012L28.9679 38.2071H58.7896H88.6114L116.971 26.7012L88.6114 14.2559Z" fill="#EAF4F2"/>
<path d="M92.7057 33.5012L88.6667 30.6494L80.9189 31.4603L85.9721 27.7764L83.9855 24.2037L91.1477 24.7787L97.6677 21.7598L97.041 25.799L103.057 27.506L95.5076 29.4274L92.7057 33.5012Z" fill="#FF00B7"/>
<path d="M66.5387 38.209H52.6846V142.68H66.5387V38.209Z" fill="#FF00B7"/>
<path d="M36.6513 24.9004L39.9932 28.5444L47.7366 29.3963L42.0168 31.924L43.1997 35.8369L36.3229 33.755L29.3108 35.3216L30.7804 31.5072L25.2637 28.5624L33.0487 28.2869L36.6513 24.9004Z" fill="#FF00B7"/>
<path d="M52.6846 38.2071L55.5023 14.2559H63.0164L66.5387 38.2071H52.6846Z" fill="#FF00B7"/>
<path d="M100.129 33.5386L107.593 30.51L63.0176 24.8262L64.2543 28.8182L100.129 33.5386Z" fill="#FF00B7"/>
<path d="M102.791 20.4818L64.6003 25.0279L64.0166 21.06L96.2326 17.6035L102.791 20.4818Z" fill="#FF00B7"/>
<path d="M17.4539 33.5386L9.98926 30.51L54.5647 24.8262V28.6553L17.4539 33.5386Z" fill="#FF00B7"/>
<path d="M14.7881 20.4818L55.8668 25.3715L55.4338 21.2607L21.3468 17.6035L14.7881 20.4818Z" fill="#FF00B7"/>
<path opacity="0.55" d="M88.6116 51.8267H28.9681L4.3125 40.8027V46.3146L28.9681 57.3386H88.6116L113.267 46.3146V40.8027L88.6116 51.8267Z" fill="#2B7189"/>
<path opacity="0.53" d="M2.71289 27.502C4.9826 28.0424 7.18832 28.7403 9.3747 29.4853C11.5588 30.2368 13.7176 31.05 15.8551 31.9162C17.9927 32.7818 20.108 33.703 22.1982 34.6856C24.286 35.6739 26.3541 36.7111 28.358 37.9066C26.0876 37.3682 23.8816 36.671 21.6952 35.9252C19.5114 35.1737 17.3524 34.3606 15.2157 33.4924C13.0791 32.6244 10.9638 31.7035 8.87362 30.7209C6.78598 29.7321 4.71744 28.6956 2.71289 27.502Z" fill="#FCF9F2"/>
<path opacity="0.55" d="M93.7918 20.8231C94.5937 20.006 95.1404 18.738 95.438 17.2518L88.6114 14.2559H62.3183C61.3926 15.1547 60.6549 15.9398 60.134 16.5198C59.4675 16.433 58.7703 16.3861 58.0519 16.3861C57.3336 16.3861 56.6364 16.4328 55.9698 16.5198C55.4489 15.9398 54.7115 15.1547 53.7855 14.2559H28.9678L20.7998 17.8403C21.1156 19.0715 21.6183 20.116 22.3123 20.8231C25.0651 23.6277 38.2009 25.1634 49.7303 24.4354C49.4946 24.5769 49.2548 24.7254 49.0118 24.8796L49.0108 24.8803C41.3377 29.7468 30.1314 40.7411 30.5344 48.6647C32.5479 44.3338 41.441 40.4669 41.441 40.4669C41.441 40.4669 41.6088 45.7259 46.9782 49.1287C47.5246 41.9085 50.7403 34.9696 53.5668 30.133C53.567 30.1334 53.5673 30.1339 53.5675 30.1344C54.7658 28.084 55.8941 26.4111 56.7192 25.2545C57.1538 25.29 57.5989 25.3089 58.0524 25.3089C58.506 25.3089 58.951 25.29 59.3855 25.2545C60.2107 26.4109 61.339 28.084 62.5372 30.1344C62.5375 30.1339 62.5377 30.1334 62.5379 30.133C65.3644 34.9698 68.5801 41.9087 69.1265 49.1287C74.4959 45.7259 74.6637 40.4669 74.6637 40.4669C74.6637 40.4669 83.5568 44.3338 85.5703 48.6647C85.9731 40.7411 74.7669 29.7468 67.0939 24.8803L67.093 24.8796C66.8497 24.7254 66.6099 24.5769 66.3744 24.4354C77.9029 25.1634 91.039 23.6277 93.7918 20.8231Z" fill="#2B7189"/>
<path d="M59.2275 20.7775C59.2275 20.7775 69.2952 33.1284 70.3017 46.4304C75.6711 43.0275 75.8389 37.7686 75.8389 37.7686C75.8389 37.7686 84.732 41.6355 86.7453 45.9663C87.2487 36.0672 69.6305 21.3729 63.4222 19.8262C61.9122 20.3289 59.2275 20.7775 59.2275 20.7775Z" fill="#FF00B7"/>
<path opacity="0.55" d="M63.4224 19.8262C61.9122 20.3289 59.2275 20.7775 59.2275 20.7775C59.2275 20.7775 61.3322 23.3632 63.7124 27.4361C64.8324 25.2895 66.5978 23.5147 68.2689 22.1822C66.3557 20.9685 64.6614 20.1348 63.4224 19.8262Z" fill="#1B5A6B"/>
<path d="M60.4014 14.8752C60.4014 14.8752 75.167 -3.68596 92.7851 1.57319C97.3156 4.51201 98.1546 14.8752 94.9665 18.1233C91.7784 21.3715 74.6636 22.9182 62.2471 21.2168C61.2403 18.742 60.4014 14.8752 60.4014 14.8752Z" fill="#FF00B7"/>
<path opacity="0.55" d="M63.2535 16.7323C63.2535 16.7323 73.8245 13.0201 84.7309 13.7935C95.6373 14.5669 100.168 21.2179 67.2805 20.7538C61.9111 20.3283 61.9111 20.3283 61.9111 20.3283L63.2535 16.7323Z" fill="#1B5A6B"/>
<path opacity="0.55" d="M64.4287 14.2575C64.4287 14.2575 73.993 7.76119 87.2485 10.8547C80.8723 10.8547 70.8049 11.0094 64.4287 14.2575Z" fill="#1B5A6B"/>
<path d="M59.226 20.7775C59.226 20.7775 49.1584 33.1284 48.1516 46.4304C42.7822 43.0275 42.6144 37.7686 42.6144 37.7686C42.6144 37.7686 33.7214 41.6355 31.7078 45.9663C31.2045 36.0672 48.8226 21.3729 55.031 19.8262C56.5413 20.3289 59.226 20.7775 59.226 20.7775Z" fill="#FF00B7"/>
<path opacity="0.55" d="M55.032 19.8262C56.5422 20.3289 59.2269 20.7775 59.2269 20.7775C59.2269 20.7775 57.1222 23.3632 54.742 27.4361C53.622 25.2895 51.8566 23.5147 50.1855 22.1822C52.099 20.9685 53.793 20.1348 55.032 19.8262Z" fill="#1B5A6B"/>
<path d="M58.0526 14.8752C58.0526 14.8752 43.287 -3.68596 25.6688 1.57319C21.1384 4.51201 20.2994 14.8752 23.4875 18.1233C26.6756 21.3715 43.7904 22.9182 56.2069 21.2168C57.2136 18.742 58.0526 14.8752 58.0526 14.8752Z" fill="#FF00B7"/>
<path opacity="0.55" d="M55.2 16.7323C55.2 16.7323 44.6292 13.0201 33.7226 13.7935C22.8162 14.5669 18.2858 21.2179 51.1729 20.7538C56.5423 20.3283 56.5423 20.3283 56.5423 20.3283L55.2 16.7323Z" fill="#1B5A6B"/>
<path opacity="0.55" d="M54.0248 14.2575C54.0248 14.2575 44.4608 7.76119 31.2051 10.8547C37.5813 10.8547 47.6489 11.0094 54.0248 14.2575Z" fill="#1B5A6B"/>
<path d="M59.2274 22.6098C63.9536 22.6098 67.7849 20.6125 67.7849 18.1487C67.7849 15.6848 63.9536 13.6875 59.2274 13.6875C54.5012 13.6875 50.6699 15.6848 50.6699 18.1487C50.6699 20.6125 54.5012 22.6098 59.2274 22.6098Z" fill="#FF00B7"/>
<path opacity="0.53" d="M59.2266 15.1095C59.2266 15.1095 65.4267 15.0574 66.5387 17.6034C67.6506 20.1493 65.0893 21.5544 61.5368 21.7607C57.9842 21.9669 60.215 20.8929 61.5368 19.6537C62.8587 18.4145 59.9376 16.7602 58.0523 16.3894C56.1665 16.0182 57.495 15.3573 59.2266 15.1095Z" fill="#FCF9F2"/>
</svg>
