<svg width="25" height="25" viewBox="0 0 25 25" fill="none" xmlns="http://www.w3.org/2000/svg">
<rect width="25" height="25" rx="3" fill="#1C1C1C" fill-opacity="0.74"/>
<path d="M13.8449 8.48499C14.446 8.85379 14.8675 9.47789 14.9443 10.2023C15.1894 10.3144 15.4615 10.3789 15.7499 10.3789C16.803 10.3789 17.6565 9.54362 17.6565 8.51325C17.6565 7.48271 16.803 6.64746 15.7499 6.64746C14.7069 6.64778 13.8608 7.46811 13.8449 8.48499ZM12.5959 12.3051C13.649 12.3051 14.5025 11.4697 14.5025 10.4394C14.5025 9.40899 13.6488 8.57374 12.5959 8.57374C11.543 8.57374 10.689 9.40915 10.689 10.4395C10.689 11.4699 11.543 12.3051 12.5959 12.3051ZM13.4046 12.4323H11.7868C10.4407 12.4323 9.34564 13.5041 9.34564 14.8214V16.7575L9.35067 16.7878L9.48695 16.8296C10.7715 17.2224 11.8876 17.3533 12.8061 17.3533C14.6003 17.3533 15.6402 16.8528 15.7043 16.8209L15.8317 16.7578H15.8453V14.8214C15.8458 13.5041 14.7507 12.4323 13.4046 12.4323ZM16.559 10.5062H14.9537C14.9363 11.1347 14.6621 11.7007 14.2285 12.1078C15.425 12.456 16.3004 13.5418 16.3004 14.8242V15.4209C17.8854 15.364 18.7988 14.9244 18.859 14.8949L18.9864 14.8317H19V12.895C19 11.5779 17.9049 10.5062 16.559 10.5062ZM9.25041 10.3792C9.62339 10.3792 9.97041 10.2727 10.2644 10.0912C10.3578 9.49472 10.6846 8.9735 11.1513 8.61851C11.1533 8.58358 11.1567 8.54897 11.1567 8.51372C11.1567 7.48319 10.303 6.64794 9.25041 6.64794C8.19717 6.64794 7.3438 7.48319 7.3438 8.51372C7.3438 9.54378 8.19717 10.3792 9.25041 10.3792ZM10.9626 12.1078C10.5311 11.7028 10.2579 11.1398 10.2379 10.5151C10.1784 10.5108 10.1195 10.5062 10.0588 10.5062H8.44117C7.0951 10.5062 6 11.5779 6 12.895V14.8314L6.00503 14.8612L6.14131 14.9033C7.17183 15.2181 8.09155 15.3632 8.8904 15.409V14.8242C8.89073 13.5418 9.76583 12.4563 10.9626 12.1078Z" fill="white"/>
</svg>
