<svg width="25" height="25" viewBox="0 0 25 25" fill="none" xmlns="http://www.w3.org/2000/svg">
<rect width="25" height="25" rx="3" fill="#1C1C1C" fill-opacity="0.74"/>
<path d="M10.7165 14.2669C11.1168 14.4964 11.5806 14.6276 12.0751 14.6276C13.5644 14.6276 14.7757 13.4376 14.81 11.9566L14.8107 11.892V10.8399C14.8107 10.6075 14.9992 10.419 15.2316 10.419C15.4535 10.419 15.6352 10.5907 15.6513 10.8085L15.6524 10.8399V11.892C15.6524 13.7253 14.2734 15.2365 12.4961 15.4449L12.496 17.7841H13.7586C13.991 17.7841 14.1795 17.9725 14.1795 18.205C14.1795 18.4268 14.0078 18.6086 13.79 18.6247L13.7586 18.6258H10.3917C10.1592 18.6258 9.97082 18.4374 9.97082 18.2049C9.97082 17.9831 10.1425 17.8013 10.3603 17.7852L10.3917 17.7841H11.6543L11.6544 15.4449C11.0866 15.3784 10.5595 15.1789 10.105 14.8785L6.71847 18.2648C6.55411 18.4291 6.28765 18.4291 6.12327 18.2648C5.95891 18.1004 5.95891 17.834 6.12327 17.6696L17.4318 6.36103C17.5962 6.19667 17.8626 6.19667 18.027 6.36103C18.1914 6.52538 18.1914 6.79185 18.027 6.95623L14.1794 10.8037V11.892C14.1794 13.0542 13.2373 13.9964 12.0751 13.9964C11.7567 13.9964 11.4548 13.9256 11.1843 13.799L10.7165 14.2669ZM8.91868 10.419C9.14054 10.419 9.32233 10.5907 9.33839 10.8085L9.33953 10.8399V11.892C9.33953 12.4507 9.50698 12.9702 9.79445 13.4032L9.19009 14.0076C8.76737 13.4321 8.5127 12.7255 8.49845 11.96L8.49781 11.892V10.8399C8.49784 10.6075 8.68626 10.419 8.91868 10.419ZM12.0752 6C13.2373 6 14.1795 6.94213 14.1795 8.10431V9.01801L10.2528 12.945C10.0735 12.6353 9.97085 12.2757 9.97085 11.892V8.10431C9.97085 6.94213 10.913 6 12.0752 6Z" fill="white"/>
</svg>
