<svg width="474" height="334" viewBox="0 0 474 334" fill="none" xmlns="http://www.w3.org/2000/svg">
<path d="M356.269 222.371C356.328 219.881 356.191 211.626 348.419 203.584C341.172 196.087 329.92 195.095 325.709 197.307C328.922 192.815 327.816 181.848 322.061 174.429C312.791 162.478 300.059 164.499 296.849 164.914C296.718 163.603 296.158 160.158 293.774 156.363C291.04 152.012 285.281 146.388 273.371 144.3C260.081 141.971 251.343 145.394 246.352 148.673C241.945 151.569 239.638 154.799 238.875 156.007C236.361 154.242 223.798 146.343 210.097 153.906C203.927 157.312 200.552 161.924 198.723 166.219C193.696 164.766 189.762 166.452 188.137 167.364C188.137 167.364 175.171 162.277 167.488 173.181C159.804 184.084 166.085 193.104 166.085 193.104C166.085 193.104 155.405 193.389 146.299 203.972C132.973 219.46 138.79 235.219 138.79 235.219H368.106C368.38 235.219 368.601 234.997 368.601 234.724C368.601 225.22 358.537 222.796 356.269 222.371Z" fill="#E3BFFF"/>
<path d="M167.381 234.846H325.731C325.731 234.846 326.23 228.227 320.192 225.521C314.154 222.814 308.791 227.046 308.791 227.046C308.791 227.046 308.473 223.179 304.009 222.115C299.545 221.051 297.397 224.329 297.397 224.329C297.397 224.329 299.76 213.752 289.884 208.129C279.213 202.054 269.01 210.766 269.01 210.766C269.01 210.766 258.342 201.436 243.431 205.837C229.914 209.826 227.566 221.603 227.566 221.603C227.566 221.603 226.414 217.063 221.253 215.647C215.275 214.005 211.346 216.981 211.346 216.981C211.346 216.981 208.159 205.333 193.495 207.716C177.528 210.311 179.367 222.223 179.367 222.223C179.367 222.223 173.665 219.855 169.195 223.946C164.725 228.038 167.381 234.846 167.381 234.846Z" fill="#D7A3FF"/>
<path d="M335.21 122.989L333.803 122.158L334.634 120.751C334.856 120.375 334.73 119.885 334.354 119.662C333.978 119.44 333.488 119.566 333.266 119.942L332.435 121.35L331.027 120.519C330.651 120.296 330.161 120.422 329.939 120.798C329.716 121.175 329.843 121.665 330.219 121.887L331.626 122.718L330.795 124.125C330.573 124.502 330.699 124.991 331.075 125.213C331.451 125.436 331.941 125.31 332.163 124.933L332.994 123.526L334.402 124.357C334.778 124.579 335.268 124.453 335.49 124.077C335.713 123.701 335.587 123.211 335.21 122.989Z" fill="#D7A3FF"/>
<path d="M119.218 154.439L117.811 153.608L118.642 152.201C118.864 151.825 118.738 151.335 118.362 151.113C117.985 150.891 117.496 151.017 117.273 151.393L116.442 152.8L115.035 151.969C114.658 151.747 114.169 151.873 113.947 152.249C113.725 152.625 113.85 153.115 114.227 153.337L115.634 154.168L114.803 155.575C114.581 155.952 114.707 156.442 115.083 156.664C115.459 156.886 115.949 156.76 116.171 156.383L117.002 154.976L118.409 155.807C118.786 156.029 119.276 155.903 119.498 155.527C119.721 155.151 119.595 154.662 119.218 154.439Z" fill="#D7A3FF"/>
<path d="M381.922 170.344L381.02 169.811L381.553 168.908C381.695 168.667 381.615 168.353 381.373 168.21C381.132 168.067 380.818 168.148 380.675 168.39L380.142 169.293L379.239 168.759C378.998 168.616 378.684 168.697 378.541 168.939C378.398 169.18 378.479 169.495 378.721 169.637L379.624 170.17L379.09 171.073C378.947 171.314 379.028 171.629 379.27 171.771C379.511 171.914 379.825 171.833 379.968 171.591L380.501 170.689L381.404 171.222C381.645 171.365 381.959 171.284 382.102 171.042C382.245 170.801 382.164 170.487 381.922 170.344Z" fill="#D7A3FF"/>
<path d="M160.723 126.629L159.556 125.939L160.245 124.773C160.429 124.461 160.325 124.055 160.013 123.87C159.701 123.686 159.295 123.79 159.111 124.102L158.422 125.269L157.255 124.58C156.943 124.396 156.537 124.5 156.353 124.812C156.168 125.124 156.273 125.531 156.585 125.715L157.752 126.404L157.062 127.57C156.878 127.882 156.983 128.289 157.295 128.473C157.607 128.657 158.012 128.552 158.197 128.241L158.886 127.074L160.053 127.763C160.365 127.947 160.771 127.843 160.955 127.531C161.139 127.219 161.035 126.813 160.723 126.629Z" fill="#D7A3FF"/>
<path d="M408.046 241.839C408.046 241.839 409.298 245.486 400.486 249.494C390.144 254.196 365.009 250.653 362.551 259.335C359.867 268.815 379.678 266.142 379.451 277.211C379.258 286.621 365.784 286.277 350.597 286.277C335.409 286.277 192.647 286.277 180.347 286.277C168.047 286.277 170.273 278.074 172.014 274.34C174.543 268.917 173.431 263.914 162.363 263.222C151.62 262.552 143.752 261.975 137.888 261.975C122.251 261.975 125.32 250.626 113.137 250.626C105.26 250.626 95.7832 246.263 95.7832 241.206C145.594 234.188 198.611 230.138 254.515 230.384C308.499 230.621 359.772 234.841 408.046 241.839Z" fill="white"/>
<path d="M184.897 204.921C184.897 204.921 185.596 224.427 190.114 240.87L194.458 239.371C194.458 239.371 192.676 227.554 195.702 208.966L184.897 204.921Z" fill="#444444"/>
<path d="M193.612 238.165C193.612 238.165 198.488 237.987 201.138 239.769C203.788 241.551 203.214 245.211 203.214 245.211H190.508C190.508 245.211 188.923 242.611 189.6 239.408L193.612 238.165Z" fill="#444444"/>
<path d="M198.196 243.414C198.226 243.414 198.257 243.411 198.288 243.407C198.635 243.356 198.875 243.034 198.824 242.687C198.569 240.942 198.784 239.504 199.012 238.596C198.588 238.501 198.166 238.426 197.757 238.367C197.505 239.405 197.29 240.973 197.568 242.871C197.615 243.186 197.886 243.414 198.196 243.414Z" fill="#3D3D3D"/>
<path d="M195.11 243.414C195.141 243.414 195.172 243.412 195.202 243.408C195.549 243.357 195.789 243.034 195.739 242.688C195.449 240.708 195.764 239.124 196.018 238.261C195.533 238.214 195.091 238.188 194.722 238.175C194.449 239.205 194.188 240.85 194.483 242.871C194.529 243.187 194.8 243.414 195.11 243.414Z" fill="#3D3D3D"/>
<path d="M221.12 204.921C221.12 204.921 222.761 226.851 229.722 240.87L234.065 239.371C234.065 239.371 230.367 231.126 232.771 209.389L221.12 204.921Z" fill="#444444"/>
<path d="M233.221 238.165C233.221 238.165 238.097 237.987 240.746 239.769C243.396 241.551 242.823 245.211 242.823 245.211H230.116C230.116 245.211 228.531 242.611 229.208 239.408L233.221 238.165Z" fill="#444444"/>
<path d="M237.804 243.414C237.835 243.414 237.865 243.411 237.896 243.407C238.243 243.356 238.483 243.034 238.433 242.687C238.177 240.942 238.392 239.504 238.621 238.596C238.197 238.501 237.774 238.426 237.366 238.367C237.113 239.405 236.899 240.973 237.176 242.871C237.223 243.186 237.494 243.414 237.804 243.414Z" fill="#3D3D3D"/>
<path d="M234.718 243.414C234.749 243.414 234.78 243.412 234.811 243.408C235.158 243.357 235.398 243.034 235.347 242.688C235.058 240.708 235.373 239.124 235.626 238.261C235.141 238.214 234.7 238.188 234.33 238.175C234.058 239.205 233.796 240.85 234.091 242.871C234.137 243.187 234.408 243.414 234.718 243.414Z" fill="#3D3D3D"/>
<path d="M249.888 164.335C249.888 164.335 263.335 176.045 283.87 173.852C304.404 171.659 307.275 157.443 304.387 146.138C301.499 134.833 296.484 133.099 296.484 133.099L300.103 128.545C300.103 128.545 318.1 142.043 307.57 166.824C298.604 187.924 261.748 185.222 247.906 174.698L249.888 164.335Z" fill="#444444"/>
<path d="M222.496 142.571L218.379 148.889L251.211 166.035L254.491 160.424L222.496 142.571Z" fill="white"/>
<path d="M219.974 142.771C210.736 137.592 202.772 128.449 225.973 113.236C249.174 98.0238 267.002 107.237 281.926 120.38C296.851 133.522 289.652 151.638 281.273 158.316C272.894 164.993 266.576 168.863 253.653 161.752C240.729 154.64 219.974 142.771 219.974 142.771Z" fill="#DADADA"/>
<path d="M235.645 117.231C246.155 110.34 255.668 107.978 264.373 108.587C253.324 103.767 240.737 103.555 225.973 113.235C202.772 128.448 210.736 137.592 219.974 142.771C219.974 142.771 220.31 142.963 220.921 143.312C216.62 137.32 217.873 128.884 235.645 117.231Z" fill="white"/>
<path d="M239.271 120.617C230.401 129.051 225.184 139.919 249.399 154.502C269.863 166.826 279.616 157.09 282.778 150.727C285.939 144.364 287.523 134.452 274.807 122.846C262.091 111.241 250.085 110.335 239.271 120.617Z" fill="white"/>
<path d="M259.65 197.083L240.351 223.155C239.376 224.473 239.758 226.346 241.173 227.175C242.389 227.888 243.947 227.57 244.786 226.436L264.319 200.03L259.65 197.083Z" fill="#292929"/>
<path d="M295.034 156.685C287.651 149.961 270.647 150.708 259.347 165.923C248.753 180.187 252.343 193.182 262.688 199.056C271.803 204.231 284.681 200.402 292.514 188.83C300.348 177.258 302.041 163.067 295.034 156.685ZM289.62 186.352C283.352 195.611 271.967 199.029 266.094 195.888C260.221 192.746 257.923 182.36 266.467 170.054C275.116 157.598 287.577 157.555 292.313 161.647C297.049 165.739 295.888 177.093 289.62 186.352Z" fill="#292929"/>
<path d="M216.371 144.602C225.202 149.147 243.96 161.351 249.203 163.962C254.446 166.573 253.31 170.69 251.219 175.14C249.129 179.59 241.126 191.636 237.952 204.232C234.779 216.828 225.656 213.522 215.525 212.84C205.394 212.158 198.477 211.618 193.892 211.264C188.405 210.841 182.564 210.927 181.766 195.396C180.967 179.865 185.455 160.455 191.914 150.076C198.373 139.697 204.87 138.682 216.371 144.602Z" fill="#DADADA"/>
<path d="M193.081 199.89C192.282 184.358 196.77 164.949 203.229 154.57C207.715 147.363 212.22 144.675 218.405 145.685C217.684 145.29 217 144.924 216.371 144.6C204.87 138.68 198.373 139.695 191.914 150.074C185.455 160.453 180.967 179.863 181.766 195.394C182.564 210.925 188.405 210.839 193.892 211.262C194.455 211.306 195.056 211.352 195.692 211.401C194.329 209.108 193.371 205.533 193.081 199.89Z" fill="white"/>
<path d="M205.448 148.554C207.942 148.954 209.571 151.374 209.019 153.839C207.277 161.631 205.616 177.897 217.954 189.545C233.265 204 246.671 202.533 246.671 202.533L244.954 208.17C244.954 208.17 220.957 206.886 206.174 187.921C195.018 173.609 198.327 158.164 200.621 151.446C201.308 149.435 203.349 148.217 205.448 148.554Z" fill="#444444"/>
<path d="M257.708 199.944L254.36 204.231C254.36 204.231 261.385 205.468 260.316 208.169C259.449 210.36 256.402 209.691 256.402 209.691C256.402 209.691 258.654 211.204 257.047 213.39C256.156 214.603 253.23 213.779 253.23 213.779C253.23 213.779 253.937 214.863 252.971 216.038C252.006 217.213 246.887 216.916 243.567 214.919C240.247 212.922 240.801 209.542 242.804 206.05C244.808 202.558 248.102 197.243 257.708 199.944Z" fill="#444444"/>
<path d="M282.97 121.602L285.787 112.262L293.654 110.196L302.714 119.282C302.714 119.282 305.813 129.823 298.578 134.523C298.578 134.523 290.678 134.734 286.857 128.47C286.857 126.655 288.712 125.43 290.381 126.144L294.741 128.007L296.374 122.259L291.459 115.951L289.397 116.246C289.397 116.246 287.927 122.741 282.97 121.602Z" fill="#444444"/>
<path d="M255.558 138.643C254.52 139.663 252.85 139.648 251.83 138.609C250.809 137.57 250.824 135.901 251.863 134.881C252.902 133.86 254.571 133.875 255.592 134.914C256.612 135.953 256.597 137.622 255.558 138.643Z" fill="#3A3A3A"/>
<path d="M270.538 149.78C269.499 150.801 267.83 150.786 266.809 149.747C265.789 148.708 265.804 147.039 266.843 146.018C267.882 144.998 269.551 145.013 270.571 146.052C271.592 147.091 271.577 148.76 270.538 149.78Z" fill="#3A3A3A"/>
<path d="M237.859 174.278C237.117 173.93 236.793 173.038 237.141 172.296L242.829 160.144C243.177 159.402 244.069 159.078 244.812 159.426C245.554 159.774 245.877 160.665 245.53 161.408L239.841 173.56C239.493 174.303 238.601 174.626 237.859 174.278Z" fill="white"/>
<path d="M245.061 88.9178C243.245 86.5873 241.331 84.896 239.942 83.8252C240.352 82.3512 239.591 80.7754 238.136 80.2007C236.581 79.5865 234.822 80.3498 234.208 81.905C233.593 83.4607 234.356 85.2195 235.912 85.8337C236.988 86.2586 238.16 86.0238 238.985 85.3246C240.284 86.3402 242.053 87.9212 243.707 90.0557C247.838 95.3857 249.342 101.477 248.176 108.158L249.917 108.462C251.485 99.4731 248.142 92.8722 245.061 88.9178Z" fill="#292929"/>
<path d="M223.942 271V257.434H227.692L233.721 269.417L232.798 269.643V257.434H235.624V271H231.875L225.845 259.017L226.768 258.79V271H223.942ZM242.251 271.188C241.196 271.188 240.267 270.981 239.463 270.567C238.671 270.14 238.049 269.549 237.597 268.796C237.158 268.029 236.938 267.15 236.938 266.158C236.938 265.165 237.158 264.299 237.597 263.557C238.049 262.816 238.671 262.239 239.463 261.824C240.267 261.41 241.196 261.202 242.251 261.202C243.319 261.202 244.248 261.41 245.04 261.824C245.844 262.239 246.466 262.816 246.905 263.557C247.345 264.299 247.565 265.165 247.565 266.158C247.565 267.15 247.339 268.029 246.886 268.796C246.447 269.549 245.825 270.14 245.021 270.567C244.23 270.981 243.306 271.188 242.251 271.188ZM242.251 268.965C242.691 268.965 243.087 268.852 243.438 268.626C243.803 268.4 244.091 268.08 244.305 267.665C244.519 267.238 244.625 266.729 244.625 266.139C244.625 265.272 244.393 264.606 243.928 264.142C243.476 263.664 242.917 263.426 242.251 263.426C241.585 263.426 241.02 263.664 240.555 264.142C240.103 264.619 239.877 265.285 239.877 266.139C239.877 266.729 239.984 267.238 240.197 267.665C240.411 268.08 240.694 268.4 241.045 268.626C241.41 268.852 241.812 268.965 242.251 268.965ZM257.003 271.188C255.998 271.188 255.113 270.975 254.347 270.548C253.58 270.121 252.977 269.53 252.538 268.777C252.111 268.023 251.897 267.163 251.897 266.195C251.897 265.228 252.111 264.368 252.538 263.614C252.977 262.86 253.58 262.27 254.347 261.843C255.113 261.416 255.998 261.202 257.003 261.202C257.845 261.202 258.599 261.359 259.264 261.673C259.943 261.975 260.495 262.396 260.922 262.936C261.362 263.476 261.645 264.11 261.77 264.839H259.038C258.9 264.374 258.649 264.022 258.285 263.784C257.933 263.545 257.518 263.426 257.041 263.426C256.589 263.426 256.193 263.539 255.854 263.765C255.527 263.991 255.276 264.311 255.1 264.726C254.924 265.14 254.837 265.63 254.837 266.195C254.837 266.761 254.924 267.25 255.1 267.665C255.276 268.08 255.527 268.4 255.854 268.626C256.193 268.852 256.589 268.965 257.041 268.965C257.518 268.965 257.933 268.846 258.285 268.607C258.649 268.368 258.9 268.017 259.038 267.552H261.77C261.645 268.28 261.362 268.915 260.922 269.455C260.495 269.995 259.943 270.422 259.264 270.736C258.599 271.038 257.845 271.188 257.003 271.188ZM263.231 271V257.434H266.057V271H263.231ZM269.92 271V265.046C269.92 264.518 269.782 264.123 269.505 263.859C269.242 263.595 268.852 263.463 268.337 263.463C267.898 263.463 267.502 263.564 267.15 263.765C266.811 263.966 266.541 264.242 266.34 264.594C266.152 264.945 266.057 265.36 266.057 265.837L265.812 263.52C266.126 262.816 266.585 262.257 267.188 261.843C267.803 261.416 268.557 261.202 269.449 261.202C270.517 261.202 271.333 261.504 271.898 262.107C272.464 262.697 272.746 263.495 272.746 264.5V271H269.92ZM280.706 271C280.63 270.724 280.574 270.428 280.536 270.114C280.511 269.8 280.499 269.436 280.499 269.022H280.423V264.481C280.423 264.091 280.291 263.79 280.027 263.576C279.776 263.35 279.399 263.237 278.897 263.237C278.42 263.237 278.037 263.319 277.748 263.482C277.471 263.645 277.289 263.884 277.201 264.198H274.507C274.632 263.331 275.078 262.615 275.845 262.05C276.611 261.485 277.66 261.202 278.991 261.202C280.373 261.202 281.428 261.51 282.157 262.125C282.885 262.741 283.249 263.627 283.249 264.782V269.022C283.249 269.336 283.268 269.656 283.306 269.983C283.356 270.297 283.432 270.636 283.532 271H280.706ZM277.352 271.188C276.397 271.188 275.637 270.95 275.072 270.472C274.507 269.983 274.224 269.336 274.224 268.532C274.224 267.64 274.557 266.924 275.223 266.384C275.901 265.831 276.843 265.473 278.049 265.31L280.857 264.914V266.553L278.52 266.911C278.018 266.987 277.647 267.125 277.408 267.326C277.17 267.527 277.05 267.803 277.05 268.155C277.05 268.469 277.164 268.708 277.39 268.871C277.616 269.034 277.917 269.116 278.294 269.116C278.884 269.116 279.387 268.959 279.801 268.645C280.216 268.318 280.423 267.941 280.423 267.514L280.687 269.022C280.411 269.738 279.99 270.278 279.425 270.642C278.859 271.006 278.168 271.188 277.352 271.188ZM289.319 271.207C288.088 271.207 287.171 270.912 286.568 270.322C285.978 269.719 285.683 268.808 285.683 267.59V259.243L288.509 258.188V267.684C288.509 268.111 288.628 268.431 288.867 268.645C289.105 268.858 289.476 268.965 289.978 268.965C290.167 268.965 290.343 268.946 290.506 268.909C290.669 268.871 290.833 268.827 290.996 268.777V270.925C290.833 271.013 290.6 271.082 290.299 271.132C290.01 271.182 289.683 271.207 289.319 271.207ZM283.893 263.539V261.391H290.996V263.539H283.893ZM297.013 271V260.75C297.013 259.594 297.327 258.721 297.955 258.131C298.583 257.541 299.512 257.245 300.743 257.245C301.007 257.245 301.233 257.258 301.422 257.283C301.623 257.308 301.817 257.352 302.006 257.415V259.582C301.918 259.544 301.811 259.519 301.685 259.506C301.56 259.481 301.409 259.469 301.233 259.469C300.756 259.469 300.404 259.582 300.178 259.808C299.952 260.034 299.839 260.361 299.839 260.788V271H297.013ZM295.411 263.539V261.391H301.799V263.539H295.411ZM307.517 271.188C306.462 271.188 305.532 270.981 304.728 270.567C303.937 270.14 303.315 269.549 302.863 268.796C302.423 268.029 302.203 267.15 302.203 266.158C302.203 265.165 302.423 264.299 302.863 263.557C303.315 262.816 303.937 262.239 304.728 261.824C305.532 261.41 306.462 261.202 307.517 261.202C308.585 261.202 309.514 261.41 310.305 261.824C311.109 262.239 311.731 262.816 312.171 263.557C312.61 264.299 312.83 265.165 312.83 266.158C312.83 267.15 312.604 268.029 312.152 268.796C311.712 269.549 311.091 270.14 310.287 270.567C309.495 270.981 308.572 271.188 307.517 271.188ZM307.517 268.965C307.957 268.965 308.352 268.852 308.704 268.626C309.068 268.4 309.357 268.08 309.571 267.665C309.784 267.238 309.891 266.729 309.891 266.139C309.891 265.272 309.659 264.606 309.194 264.142C308.742 263.664 308.183 263.426 307.517 263.426C306.851 263.426 306.286 263.664 305.821 264.142C305.369 264.619 305.143 265.285 305.143 266.139C305.143 266.729 305.25 267.238 305.463 267.665C305.677 268.08 305.959 268.4 306.311 268.626C306.675 268.852 307.077 268.965 307.517 268.965ZM317.437 271.188C316.759 271.188 316.175 271.044 315.685 270.755C315.208 270.454 314.843 270.058 314.592 269.568C314.341 269.066 314.215 268.507 314.215 267.891V261.391H317.042V267.345C317.042 267.872 317.174 268.268 317.437 268.532C317.701 268.796 318.072 268.927 318.549 268.927C318.976 268.927 319.353 268.827 319.68 268.626C320.006 268.425 320.264 268.149 320.452 267.797C320.653 267.433 320.754 267.018 320.754 266.553L320.998 268.871C320.684 269.562 320.226 270.121 319.623 270.548C319.02 270.975 318.292 271.188 317.437 271.188ZM320.81 271V268.739H320.754V261.391H323.58V271H320.81ZM325.847 271V261.391H328.617V263.652H328.673V271H325.847ZM332.536 271V265.046C332.536 264.518 332.398 264.123 332.121 263.859C331.858 263.595 331.468 263.463 330.953 263.463C330.514 263.463 330.118 263.564 329.766 263.765C329.427 263.966 329.157 264.242 328.956 264.594C328.768 264.945 328.673 265.36 328.673 265.837L328.428 263.52C328.742 262.816 329.201 262.257 329.804 261.843C330.419 261.416 331.173 261.202 332.065 261.202C333.133 261.202 333.949 261.504 334.514 262.107C335.08 262.697 335.362 263.495 335.362 264.5V271H332.536ZM344.315 271V268.871L344.503 268.909C344.377 269.599 344.001 270.152 343.373 270.567C342.757 270.981 342.016 271.188 341.149 271.188C340.27 271.188 339.504 270.987 338.851 270.585C338.21 270.171 337.714 269.593 337.362 268.852C337.01 268.111 336.834 267.238 336.834 266.233C336.834 265.216 337.017 264.33 337.381 263.576C337.745 262.823 338.254 262.239 338.907 261.824C339.573 261.41 340.345 261.202 341.225 261.202C342.142 261.202 342.883 261.416 343.448 261.843C344.026 262.27 344.365 262.854 344.465 263.595L344.258 263.614V257.434H347.084V271H344.315ZM342.054 268.927C342.719 268.927 343.26 268.695 343.674 268.23C344.089 267.753 344.296 267.075 344.296 266.195C344.296 265.316 344.082 264.644 343.655 264.179C343.241 263.702 342.694 263.463 342.016 263.463C341.363 263.463 340.823 263.702 340.396 264.179C339.981 264.657 339.774 265.335 339.774 266.214C339.774 267.093 339.981 267.765 340.396 268.23C340.823 268.695 341.375 268.927 342.054 268.927Z" fill="black"/>
</svg>
