<svg width="467" height="333" viewBox="0 0 467 333" fill="none" xmlns="http://www.w3.org/2000/svg">
<path d="M356.269 221.37C356.328 218.88 356.191 210.625 348.419 202.583C341.172 195.086 329.92 194.094 325.709 196.306C328.922 191.814 327.816 180.847 322.061 173.428C312.791 161.477 300.059 163.498 296.849 163.913C296.718 162.602 296.158 159.157 293.774 155.362C291.04 151.011 285.281 145.387 273.371 143.299C260.081 140.97 251.343 144.393 246.352 147.673C241.945 150.568 239.638 153.798 238.875 155.006C236.361 153.241 223.798 145.342 210.097 152.905C203.927 156.311 200.552 160.923 198.723 165.218C193.696 163.765 189.762 165.451 188.137 166.363C188.137 166.363 175.171 161.276 167.488 172.18C159.804 183.083 166.085 192.104 166.085 192.104C166.085 192.104 155.405 192.388 146.299 202.971C132.973 218.459 138.79 234.218 138.79 234.218H368.106C368.38 234.218 368.601 233.996 368.601 233.724C368.601 224.219 358.537 221.795 356.269 221.37Z" fill="#E3BFFF"/>
<path d="M167.381 233.845H325.731C325.731 233.845 326.23 227.226 320.192 224.52C314.154 221.813 308.791 226.045 308.791 226.045C308.791 226.045 308.473 222.178 304.009 221.114C299.545 220.05 297.397 223.328 297.397 223.328C297.397 223.328 299.76 212.751 289.884 207.128C279.213 201.053 269.01 209.765 269.01 209.765C269.01 209.765 258.342 200.435 243.431 204.836C229.914 208.825 227.566 220.602 227.566 220.602C227.566 220.602 226.414 216.062 221.253 214.646C215.275 213.004 211.346 215.98 211.346 215.98C211.346 215.98 208.159 204.332 193.495 206.715C177.528 209.31 179.367 221.222 179.367 221.222C179.367 221.222 173.665 218.854 169.195 222.945C164.725 227.037 167.381 233.845 167.381 233.845Z" fill="#D7A3FF"/>
<path d="M335.21 121.989L333.803 121.158L334.634 119.751C334.856 119.375 334.73 118.885 334.354 118.662C333.978 118.44 333.488 118.566 333.266 118.942L332.435 120.35L331.027 119.519C330.651 119.296 330.161 119.422 329.939 119.798C329.716 120.175 329.843 120.665 330.219 120.887L331.626 121.718L330.795 123.125C330.573 123.502 330.699 123.991 331.075 124.213C331.451 124.436 331.941 124.31 332.163 123.933L332.994 122.526L334.402 123.357C334.778 123.579 335.268 123.453 335.49 123.077C335.713 122.701 335.587 122.211 335.21 121.989Z" fill="#D7A3FF"/>
<path d="M119.218 153.438L117.811 152.607L118.642 151.2C118.864 150.824 118.738 150.334 118.362 150.112C117.985 149.89 117.496 150.016 117.273 150.392L116.442 151.799L115.035 150.968C114.658 150.746 114.169 150.872 113.947 151.248C113.725 151.624 113.85 152.114 114.227 152.336L115.634 153.167L114.803 154.574C114.581 154.951 114.707 155.441 115.083 155.663C115.459 155.885 115.949 155.759 116.171 155.382L117.002 153.975L118.409 154.806C118.786 155.028 119.276 154.902 119.498 154.526C119.721 154.15 119.595 153.661 119.218 153.438Z" fill="#D7A3FF"/>
<path d="M381.922 169.345L381.02 168.812L381.553 167.909C381.695 167.668 381.615 167.354 381.373 167.211C381.132 167.068 380.818 167.149 380.675 167.391L380.142 168.293L379.239 167.76C378.998 167.617 378.684 167.698 378.541 167.94C378.398 168.181 378.479 168.495 378.721 168.638L379.624 169.171L379.09 170.074C378.947 170.315 379.028 170.63 379.27 170.772C379.511 170.915 379.825 170.834 379.968 170.592L380.501 169.69L381.404 170.223C381.645 170.366 381.959 170.285 382.102 170.043C382.245 169.802 382.164 169.488 381.922 169.345Z" fill="#D7A3FF"/>
<path d="M160.723 125.629L159.556 124.939L160.245 123.773C160.429 123.461 160.325 123.055 160.013 122.87C159.701 122.686 159.295 122.79 159.111 123.102L158.422 124.269L157.255 123.58C156.943 123.396 156.537 123.5 156.353 123.812C156.168 124.124 156.273 124.531 156.585 124.715L157.752 125.404L157.062 126.57C156.878 126.882 156.983 127.289 157.295 127.473C157.607 127.657 158.012 127.552 158.197 127.241L158.886 126.074L160.053 126.763C160.365 126.947 160.771 126.843 160.955 126.531C161.139 126.219 161.035 125.813 160.723 125.629Z" fill="#D7A3FF"/>
<path d="M408.046 240.839C408.046 240.839 409.298 244.486 400.486 248.494C390.144 253.196 365.009 249.653 362.551 258.335C359.867 267.815 379.678 265.142 379.451 276.211C379.258 285.621 365.784 285.277 350.597 285.277C335.409 285.277 192.647 285.277 180.347 285.277C168.047 285.277 170.273 277.074 172.014 273.34C174.543 267.917 173.431 262.914 162.363 262.222C151.62 261.552 143.752 260.975 137.888 260.975C122.251 260.975 125.32 249.626 113.137 249.626C105.26 249.626 95.7832 245.263 95.7832 240.206C145.594 233.188 198.611 229.138 254.515 229.384C308.499 229.621 359.772 233.841 408.046 240.839Z" fill="white"/>
<path d="M184.897 203.922C184.897 203.922 185.596 223.428 190.114 239.871L194.458 238.372C194.458 238.372 192.676 226.555 195.702 207.967L184.897 203.922Z" fill="#444444"/>
<path d="M193.612 237.165C193.612 237.165 198.488 236.987 201.138 238.769C203.788 240.551 203.214 244.211 203.214 244.211H190.508C190.508 244.211 188.923 241.611 189.6 238.408L193.612 237.165Z" fill="#444444"/>
<path d="M198.196 242.414C198.226 242.414 198.257 242.411 198.288 242.407C198.635 242.356 198.875 242.034 198.824 241.687C198.569 239.942 198.784 238.504 199.012 237.596C198.588 237.501 198.166 237.426 197.757 237.367C197.505 238.405 197.29 239.973 197.568 241.871C197.615 242.186 197.886 242.414 198.196 242.414Z" fill="#3D3D3D"/>
<path d="M195.11 242.415C195.141 242.415 195.172 242.413 195.202 242.409C195.549 242.358 195.789 242.035 195.739 241.689C195.449 239.709 195.764 238.125 196.018 237.262C195.533 237.215 195.091 237.189 194.722 237.176C194.449 238.206 194.188 239.851 194.483 241.872C194.529 242.188 194.8 242.415 195.11 242.415Z" fill="#3D3D3D"/>
<path d="M221.12 203.922C221.12 203.922 222.761 225.852 229.722 239.871L234.065 238.372C234.065 238.372 230.367 230.127 232.771 208.39L221.12 203.922Z" fill="#444444"/>
<path d="M233.221 237.165C233.221 237.165 238.097 236.987 240.746 238.769C243.396 240.551 242.823 244.211 242.823 244.211H230.116C230.116 244.211 228.531 241.611 229.208 238.408L233.221 237.165Z" fill="#444444"/>
<path d="M237.804 242.414C237.835 242.414 237.865 242.411 237.896 242.407C238.243 242.356 238.483 242.034 238.433 241.687C238.177 239.942 238.392 238.504 238.621 237.596C238.197 237.501 237.774 237.426 237.366 237.367C237.113 238.405 236.899 239.973 237.176 241.871C237.223 242.186 237.494 242.414 237.804 242.414Z" fill="#3D3D3D"/>
<path d="M234.718 242.415C234.749 242.415 234.78 242.413 234.811 242.409C235.158 242.358 235.398 242.035 235.347 241.689C235.058 239.709 235.373 238.125 235.626 237.262C235.141 237.215 234.7 237.189 234.33 237.176C234.058 238.206 233.796 239.851 234.091 241.872C234.137 242.188 234.408 242.415 234.718 242.415Z" fill="#3D3D3D"/>
<path d="M249.888 163.335C249.888 163.335 263.335 175.045 283.87 172.852C304.404 170.659 307.275 156.443 304.387 145.138C301.499 133.833 296.484 132.099 296.484 132.099L300.103 127.545C300.103 127.545 318.1 141.043 307.57 165.824C298.604 186.924 261.748 184.222 247.906 173.698L249.888 163.335Z" fill="#444444"/>
<path d="M222.496 141.57L218.379 147.888L251.211 165.034L254.491 159.423L222.496 141.57Z" fill="white"/>
<path d="M219.974 141.771C210.736 136.592 202.772 127.449 225.973 112.236C249.174 97.0238 267.002 106.237 281.926 119.38C296.851 132.522 289.652 150.638 281.273 157.316C272.894 163.993 266.576 167.863 253.653 160.752C240.729 153.64 219.974 141.771 219.974 141.771Z" fill="#DADADA"/>
<path d="M235.645 116.231C246.155 109.34 255.668 106.978 264.373 107.587C253.324 102.767 240.737 102.555 225.973 112.235C202.772 127.448 210.736 136.592 219.974 141.771C219.974 141.771 220.31 141.963 220.921 142.312C216.62 136.32 217.873 127.884 235.645 116.231Z" fill="white"/>
<path d="M239.271 119.616C230.401 128.05 225.184 138.918 249.399 153.501C269.863 165.825 279.616 156.089 282.778 149.726C285.939 143.363 287.523 133.451 274.807 121.845C262.091 110.24 250.085 109.334 239.271 119.616Z" fill="white"/>
<path d="M259.65 196.082L240.351 222.154C239.376 223.472 239.758 225.345 241.173 226.174C242.389 226.887 243.947 226.569 244.786 225.435L264.319 199.029L259.65 196.082Z" fill="#292929"/>
<path d="M295.034 155.686C287.651 148.962 270.647 149.709 259.347 164.924C248.753 179.188 252.343 192.183 262.688 198.056C271.803 203.232 284.681 199.403 292.514 187.831C300.348 176.259 302.041 162.068 295.034 155.686ZM289.62 185.353C283.352 194.612 271.967 198.03 266.094 194.889C260.221 191.747 257.923 181.361 266.467 169.055C275.116 156.599 287.577 156.556 292.313 160.648C297.049 164.74 295.888 176.094 289.62 185.353Z" fill="#292929"/>
<path d="M216.371 143.602C225.202 148.147 243.96 160.351 249.203 162.962C254.446 165.573 253.31 169.69 251.219 174.14C249.129 178.59 241.126 190.636 237.952 203.232C234.779 215.828 225.656 212.522 215.525 211.84C205.394 211.158 198.477 210.618 193.892 210.264C188.405 209.841 182.564 209.927 181.766 194.396C180.967 178.865 185.455 159.455 191.914 149.076C198.373 138.697 204.87 137.682 216.371 143.602Z" fill="#DADADA"/>
<path d="M193.081 198.89C192.282 183.358 196.77 163.949 203.229 153.57C207.715 146.363 212.22 143.675 218.405 144.685C217.684 144.29 217 143.924 216.371 143.6C204.87 137.68 198.373 138.695 191.914 149.074C185.455 159.453 180.967 178.863 181.766 194.394C182.564 209.925 188.405 209.839 193.892 210.262C194.455 210.306 195.056 210.352 195.692 210.401C194.329 208.108 193.371 204.533 193.081 198.89Z" fill="white"/>
<path d="M205.448 147.554C207.942 147.954 209.571 150.374 209.019 152.839C207.277 160.631 205.616 176.897 217.954 188.545C233.265 203 246.671 201.533 246.671 201.533L244.954 207.17C244.954 207.17 220.957 205.886 206.174 186.921C195.018 172.609 198.327 157.164 200.621 150.446C201.308 148.435 203.349 147.217 205.448 147.554Z" fill="#444444"/>
<path d="M257.708 198.944L254.36 203.231C254.36 203.231 261.385 204.468 260.316 207.169C259.449 209.36 256.402 208.691 256.402 208.691C256.402 208.691 258.654 210.204 257.047 212.39C256.156 213.603 253.23 212.779 253.23 212.779C253.23 212.779 253.937 213.863 252.971 215.038C252.006 216.213 246.887 215.916 243.567 213.919C240.247 211.922 240.801 208.542 242.804 205.05C244.808 201.558 248.102 196.243 257.708 198.944Z" fill="#444444"/>
<path d="M282.97 120.601L285.787 111.261L293.654 109.195L302.714 118.281C302.714 118.281 305.813 128.822 298.578 133.522C298.578 133.522 290.678 133.733 286.857 127.469C286.857 125.654 288.712 124.429 290.381 125.143L294.741 127.006L296.374 121.258L291.459 114.95L289.397 115.245C289.397 115.245 287.927 121.74 282.97 120.601Z" fill="#444444"/>
<path d="M255.558 137.643C254.52 138.663 252.85 138.648 251.83 137.609C250.809 136.57 250.824 134.901 251.863 133.881C252.902 132.86 254.571 132.875 255.592 133.914C256.612 134.953 256.597 136.622 255.558 137.643Z" fill="#3A3A3A"/>
<path d="M270.538 148.779C269.499 149.8 267.83 149.785 266.809 148.746C265.789 147.707 265.804 146.038 266.843 145.017C267.882 143.997 269.551 144.012 270.571 145.051C271.592 146.09 271.577 147.759 270.538 148.779Z" fill="#3A3A3A"/>
<path d="M237.859 173.279C237.117 172.931 236.793 172.039 237.141 171.297L242.829 159.145C243.177 158.403 244.069 158.079 244.812 158.427C245.554 158.775 245.877 159.666 245.53 160.409L239.841 172.561C239.493 173.304 238.601 173.627 237.859 173.279Z" fill="white"/>
<path d="M245.061 87.9178C243.245 85.5873 241.331 83.896 239.942 82.8252C240.352 81.3512 239.591 79.7754 238.136 79.2007C236.581 78.5865 234.822 79.3498 234.208 80.905C233.593 82.4607 234.356 84.2195 235.912 84.8337C236.988 85.2586 238.16 85.0238 238.985 84.3246C240.284 85.3402 242.053 86.9212 243.707 89.0557C247.838 94.3857 249.342 100.477 248.176 107.158L249.917 107.462C251.485 98.4731 248.142 91.8722 245.061 87.9178Z" fill="#292929"/>
<path d="M223.942 270V256.434H227.692L233.721 268.417L232.798 268.643V256.434H235.624V270H231.875L225.845 258.017L226.768 257.79V270H223.942ZM242.251 270.188C241.196 270.188 240.267 269.981 239.463 269.567C238.671 269.14 238.049 268.549 237.597 267.796C237.158 267.029 236.938 266.15 236.938 265.158C236.938 264.165 237.158 263.299 237.597 262.557C238.049 261.816 238.671 261.239 239.463 260.824C240.267 260.41 241.196 260.202 242.251 260.202C243.319 260.202 244.248 260.41 245.04 260.824C245.844 261.239 246.466 261.816 246.905 262.557C247.345 263.299 247.565 264.165 247.565 265.158C247.565 266.15 247.339 267.029 246.886 267.796C246.447 268.549 245.825 269.14 245.021 269.567C244.23 269.981 243.306 270.188 242.251 270.188ZM242.251 267.965C242.691 267.965 243.087 267.852 243.438 267.626C243.803 267.4 244.091 267.08 244.305 266.665C244.519 266.238 244.625 265.729 244.625 265.139C244.625 264.272 244.393 263.606 243.928 263.142C243.476 262.664 242.917 262.426 242.251 262.426C241.585 262.426 241.02 262.664 240.555 263.142C240.103 263.619 239.877 264.285 239.877 265.139C239.877 265.729 239.984 266.238 240.197 266.665C240.411 267.08 240.694 267.4 241.045 267.626C241.41 267.852 241.812 267.965 242.251 267.965ZM257.003 270.188C255.998 270.188 255.113 269.975 254.347 269.548C253.58 269.121 252.977 268.53 252.538 267.777C252.111 267.023 251.897 266.163 251.897 265.195C251.897 264.228 252.111 263.368 252.538 262.614C252.977 261.86 253.58 261.27 254.347 260.843C255.113 260.416 255.998 260.202 257.003 260.202C257.845 260.202 258.599 260.359 259.264 260.673C259.943 260.975 260.495 261.396 260.922 261.936C261.362 262.476 261.645 263.11 261.77 263.839H259.038C258.9 263.374 258.649 263.022 258.285 262.784C257.933 262.545 257.518 262.426 257.041 262.426C256.589 262.426 256.193 262.539 255.854 262.765C255.527 262.991 255.276 263.311 255.1 263.726C254.924 264.14 254.837 264.63 254.837 265.195C254.837 265.761 254.924 266.25 255.1 266.665C255.276 267.08 255.527 267.4 255.854 267.626C256.193 267.852 256.589 267.965 257.041 267.965C257.518 267.965 257.933 267.846 258.285 267.607C258.649 267.368 258.9 267.017 259.038 266.552H261.77C261.645 267.28 261.362 267.915 260.922 268.455C260.495 268.995 259.943 269.422 259.264 269.736C258.599 270.038 257.845 270.188 257.003 270.188ZM263.231 270V256.434H266.057V270H263.231ZM269.92 270V264.046C269.92 263.518 269.782 263.123 269.505 262.859C269.242 262.595 268.852 262.463 268.337 262.463C267.898 262.463 267.502 262.564 267.15 262.765C266.811 262.966 266.541 263.242 266.34 263.594C266.152 263.945 266.057 264.36 266.057 264.837L265.812 262.52C266.126 261.816 266.585 261.257 267.188 260.843C267.803 260.416 268.557 260.202 269.449 260.202C270.517 260.202 271.333 260.504 271.898 261.107C272.464 261.697 272.746 262.495 272.746 263.5V270H269.92ZM280.706 270C280.63 269.724 280.574 269.428 280.536 269.114C280.511 268.8 280.499 268.436 280.499 268.022H280.423V263.481C280.423 263.091 280.291 262.79 280.027 262.576C279.776 262.35 279.399 262.237 278.897 262.237C278.42 262.237 278.037 262.319 277.748 262.482C277.471 262.645 277.289 262.884 277.201 263.198H274.507C274.632 262.331 275.078 261.615 275.845 261.05C276.611 260.485 277.66 260.202 278.991 260.202C280.373 260.202 281.428 260.51 282.157 261.125C282.885 261.741 283.249 262.627 283.249 263.782V268.022C283.249 268.336 283.268 268.656 283.306 268.983C283.356 269.297 283.432 269.636 283.532 270H280.706ZM277.352 270.188C276.397 270.188 275.637 269.95 275.072 269.472C274.507 268.983 274.224 268.336 274.224 267.532C274.224 266.64 274.557 265.924 275.223 265.384C275.901 264.831 276.843 264.473 278.049 264.31L280.857 263.914V265.553L278.52 265.911C278.018 265.987 277.647 266.125 277.408 266.326C277.17 266.527 277.05 266.803 277.05 267.155C277.05 267.469 277.164 267.708 277.39 267.871C277.616 268.034 277.917 268.116 278.294 268.116C278.884 268.116 279.387 267.959 279.801 267.645C280.216 267.318 280.423 266.941 280.423 266.514L280.687 268.022C280.411 268.738 279.99 269.278 279.425 269.642C278.859 270.006 278.168 270.188 277.352 270.188ZM289.319 270.207C288.088 270.207 287.171 269.912 286.568 269.322C285.978 268.719 285.683 267.808 285.683 266.59V258.243L288.509 257.188V266.684C288.509 267.111 288.628 267.431 288.867 267.645C289.105 267.858 289.476 267.965 289.978 267.965C290.167 267.965 290.343 267.946 290.506 267.909C290.669 267.871 290.833 267.827 290.996 267.777V269.925C290.833 270.013 290.6 270.082 290.299 270.132C290.01 270.182 289.683 270.207 289.319 270.207ZM283.893 262.539V260.391H290.996V262.539H283.893ZM297.013 270V259.75C297.013 258.594 297.327 257.721 297.955 257.131C298.583 256.541 299.512 256.245 300.743 256.245C301.007 256.245 301.233 256.258 301.422 256.283C301.623 256.308 301.817 256.352 302.006 256.415V258.582C301.918 258.544 301.811 258.519 301.685 258.506C301.56 258.481 301.409 258.469 301.233 258.469C300.756 258.469 300.404 258.582 300.178 258.808C299.952 259.034 299.839 259.361 299.839 259.788V270H297.013ZM295.411 262.539V260.391H301.799V262.539H295.411ZM307.517 270.188C306.462 270.188 305.532 269.981 304.728 269.567C303.937 269.14 303.315 268.549 302.863 267.796C302.423 267.029 302.203 266.15 302.203 265.158C302.203 264.165 302.423 263.299 302.863 262.557C303.315 261.816 303.937 261.239 304.728 260.824C305.532 260.41 306.462 260.202 307.517 260.202C308.585 260.202 309.514 260.41 310.305 260.824C311.109 261.239 311.731 261.816 312.171 262.557C312.61 263.299 312.83 264.165 312.83 265.158C312.83 266.15 312.604 267.029 312.152 267.796C311.712 268.549 311.091 269.14 310.287 269.567C309.495 269.981 308.572 270.188 307.517 270.188ZM307.517 267.965C307.957 267.965 308.352 267.852 308.704 267.626C309.068 267.4 309.357 267.08 309.571 266.665C309.784 266.238 309.891 265.729 309.891 265.139C309.891 264.272 309.659 263.606 309.194 263.142C308.742 262.664 308.183 262.426 307.517 262.426C306.851 262.426 306.286 262.664 305.821 263.142C305.369 263.619 305.143 264.285 305.143 265.139C305.143 265.729 305.25 266.238 305.463 266.665C305.677 267.08 305.959 267.4 306.311 267.626C306.675 267.852 307.077 267.965 307.517 267.965ZM317.437 270.188C316.759 270.188 316.175 270.044 315.685 269.755C315.208 269.454 314.843 269.058 314.592 268.568C314.341 268.066 314.215 267.507 314.215 266.891V260.391H317.042V266.345C317.042 266.872 317.174 267.268 317.437 267.532C317.701 267.796 318.072 267.927 318.549 267.927C318.976 267.927 319.353 267.827 319.68 267.626C320.006 267.425 320.264 267.149 320.452 266.797C320.653 266.433 320.754 266.018 320.754 265.553L320.998 267.871C320.684 268.562 320.226 269.121 319.623 269.548C319.02 269.975 318.292 270.188 317.437 270.188ZM320.81 270V267.739H320.754V260.391H323.58V270H320.81ZM325.847 270V260.391H328.617V262.652H328.673V270H325.847ZM332.536 270V264.046C332.536 263.518 332.398 263.123 332.121 262.859C331.858 262.595 331.468 262.463 330.953 262.463C330.514 262.463 330.118 262.564 329.766 262.765C329.427 262.966 329.157 263.242 328.956 263.594C328.768 263.945 328.673 264.36 328.673 264.837L328.428 262.52C328.742 261.816 329.201 261.257 329.804 260.843C330.419 260.416 331.173 260.202 332.065 260.202C333.133 260.202 333.949 260.504 334.514 261.107C335.08 261.697 335.362 262.495 335.362 263.5V270H332.536ZM344.315 270V267.871L344.503 267.909C344.377 268.599 344.001 269.152 343.373 269.567C342.757 269.981 342.016 270.188 341.149 270.188C340.27 270.188 339.504 269.987 338.851 269.585C338.21 269.171 337.714 268.593 337.362 267.852C337.01 267.111 336.834 266.238 336.834 265.233C336.834 264.216 337.017 263.33 337.381 262.576C337.745 261.823 338.254 261.239 338.907 260.824C339.573 260.41 340.345 260.202 341.225 260.202C342.142 260.202 342.883 260.416 343.448 260.843C344.026 261.27 344.365 261.854 344.465 262.595L344.258 262.614V256.434H347.084V270H344.315ZM342.054 267.927C342.719 267.927 343.26 267.695 343.674 267.23C344.089 266.753 344.296 266.075 344.296 265.195C344.296 264.316 344.082 263.644 343.655 263.179C343.241 262.702 342.694 262.463 342.016 262.463C341.363 262.463 340.823 262.702 340.396 263.179C339.981 263.657 339.774 264.335 339.774 265.214C339.774 266.093 339.981 266.765 340.396 267.23C340.823 267.695 341.375 267.927 342.054 267.927Z" fill="black"/>
<path d="M356.269 221.37C356.328 218.88 356.191 210.625 348.419 202.583C341.172 195.086 329.92 194.094 325.709 196.306C328.922 191.814 327.816 180.847 322.061 173.428C312.791 161.477 300.059 163.498 296.849 163.913C296.718 162.602 296.158 159.157 293.774 155.362C291.04 151.011 285.281 145.387 273.371 143.299C260.081 140.97 251.343 144.393 246.352 147.673C241.945 150.568 239.638 153.798 238.875 155.006C236.361 153.241 223.798 145.342 210.097 152.905C203.927 156.311 200.552 160.923 198.723 165.218C193.696 163.765 189.762 165.451 188.137 166.363C188.137 166.363 175.171 161.276 167.488 172.18C159.804 183.083 166.085 192.103 166.085 192.103C166.085 192.103 155.405 192.388 146.299 202.971C132.973 218.459 138.79 234.218 138.79 234.218H368.106C368.38 234.218 368.601 233.996 368.601 233.724C368.601 224.219 358.537 221.795 356.269 221.37Z" fill="#E3BFFF"/>
<path d="M167.381 233.845H325.731C325.731 233.845 326.23 227.226 320.192 224.52C314.154 221.813 308.791 226.045 308.791 226.045C308.791 226.045 308.473 222.178 304.009 221.114C299.545 220.05 297.397 223.328 297.397 223.328C297.397 223.328 299.76 212.751 289.884 207.128C279.213 201.053 269.01 209.765 269.01 209.765C269.01 209.765 258.342 200.435 243.431 204.836C229.914 208.825 227.566 220.602 227.566 220.602C227.566 220.602 226.414 216.062 221.253 214.646C215.275 213.004 211.346 215.98 211.346 215.98C211.346 215.98 208.159 204.332 193.495 206.715C177.528 209.31 179.367 221.222 179.367 221.222C179.367 221.222 173.665 218.854 169.195 222.945C164.725 227.037 167.381 233.845 167.381 233.845Z" fill="#D7A3FF"/>
<path d="M335.21 121.989L333.803 121.158L334.634 119.751C334.856 119.375 334.73 118.885 334.354 118.662C333.978 118.44 333.488 118.566 333.266 118.942L332.435 120.35L331.027 119.519C330.651 119.296 330.161 119.422 329.939 119.798C329.716 120.175 329.843 120.665 330.219 120.887L331.626 121.718L330.795 123.125C330.573 123.502 330.699 123.991 331.075 124.213C331.451 124.436 331.941 124.31 332.163 123.933L332.994 122.526L334.402 123.357C334.778 123.579 335.268 123.453 335.49 123.077C335.713 122.701 335.587 122.211 335.21 121.989Z" fill="#D7A3FF"/>
<path d="M119.218 153.438L117.811 152.607L118.642 151.2C118.864 150.824 118.738 150.334 118.362 150.112C117.985 149.89 117.496 150.016 117.273 150.392L116.442 151.799L115.035 150.968C114.658 150.746 114.169 150.872 113.947 151.248C113.725 151.624 113.85 152.114 114.227 152.336L115.634 153.167L114.803 154.574C114.581 154.951 114.707 155.441 115.083 155.663C115.459 155.885 115.949 155.759 116.171 155.382L117.002 153.975L118.409 154.806C118.786 155.028 119.276 154.902 119.498 154.526C119.721 154.15 119.595 153.661 119.218 153.438Z" fill="#D7A3FF"/>
<path d="M381.922 169.345L381.02 168.812L381.553 167.909C381.695 167.668 381.615 167.354 381.373 167.211C381.132 167.068 380.818 167.149 380.675 167.391L380.142 168.293L379.239 167.76C378.998 167.617 378.684 167.698 378.541 167.94C378.398 168.181 378.479 168.495 378.721 168.638L379.624 169.171L379.09 170.074C378.947 170.315 379.028 170.63 379.27 170.772C379.511 170.915 379.825 170.834 379.968 170.592L380.501 169.69L381.404 170.223C381.645 170.366 381.959 170.285 382.102 170.043C382.245 169.802 382.164 169.488 381.922 169.345Z" fill="#D7A3FF"/>
<path d="M160.723 125.629L159.556 124.939L160.245 123.773C160.429 123.461 160.325 123.055 160.013 122.87C159.701 122.686 159.295 122.79 159.111 123.102L158.422 124.269L157.255 123.58C156.943 123.396 156.537 123.5 156.353 123.812C156.168 124.124 156.273 124.531 156.585 124.715L157.752 125.404L157.062 126.57C156.878 126.882 156.983 127.289 157.295 127.473C157.607 127.657 158.012 127.552 158.197 127.241L158.886 126.074L160.053 126.763C160.365 126.947 160.771 126.843 160.955 126.531C161.139 126.219 161.035 125.813 160.723 125.629Z" fill="#D7A3FF"/>
<path d="M408.046 240.839C408.046 240.839 409.298 244.486 400.486 248.494C390.144 253.196 365.009 249.653 362.551 258.335C359.867 267.815 379.678 265.142 379.451 276.211C379.258 285.621 365.784 285.277 350.597 285.277C335.409 285.277 192.647 285.277 180.347 285.277C168.047 285.277 170.273 277.074 172.014 273.34C174.543 267.917 173.431 262.914 162.363 262.222C151.62 261.552 143.752 260.975 137.888 260.975C122.251 260.975 125.32 249.626 113.137 249.626C105.26 249.626 95.7832 245.263 95.7832 240.206C145.594 233.188 198.611 229.138 254.515 229.384C308.499 229.621 359.772 233.841 408.046 240.839Z" fill="white"/>
<path d="M184.897 203.922C184.897 203.922 185.596 223.428 190.114 239.871L194.458 238.372C194.458 238.372 192.676 226.555 195.702 207.967L184.897 203.922Z" fill="#444444"/>
<path d="M193.612 237.165C193.612 237.165 198.488 236.987 201.138 238.769C203.788 240.551 203.214 244.211 203.214 244.211H190.508C190.508 244.211 188.923 241.611 189.6 238.408L193.612 237.165Z" fill="#444444"/>
<path d="M198.196 242.414C198.226 242.414 198.257 242.411 198.288 242.407C198.635 242.356 198.875 242.034 198.824 241.687C198.569 239.942 198.784 238.504 199.012 237.596C198.588 237.501 198.166 237.426 197.757 237.367C197.505 238.405 197.29 239.973 197.568 241.871C197.615 242.186 197.886 242.414 198.196 242.414Z" fill="#3D3D3D"/>
<path d="M195.11 242.415C195.141 242.415 195.172 242.413 195.202 242.409C195.549 242.358 195.789 242.035 195.739 241.689C195.449 239.709 195.764 238.125 196.018 237.262C195.533 237.215 195.091 237.189 194.722 237.176C194.449 238.206 194.188 239.851 194.483 241.872C194.529 242.188 194.8 242.415 195.11 242.415Z" fill="#3D3D3D"/>
<path d="M221.12 203.922C221.12 203.922 222.761 225.852 229.722 239.871L234.065 238.372C234.065 238.372 230.367 230.127 232.771 208.39L221.12 203.922Z" fill="#444444"/>
<path d="M233.221 237.165C233.221 237.165 238.097 236.987 240.746 238.769C243.396 240.551 242.823 244.211 242.823 244.211H230.116C230.116 244.211 228.531 241.611 229.208 238.408L233.221 237.165Z" fill="#444444"/>
<path d="M237.804 242.414C237.835 242.414 237.865 242.411 237.896 242.407C238.243 242.356 238.483 242.034 238.433 241.687C238.177 239.942 238.392 238.504 238.621 237.596C238.197 237.501 237.774 237.426 237.366 237.367C237.113 238.405 236.899 239.973 237.176 241.871C237.223 242.186 237.494 242.414 237.804 242.414Z" fill="#3D3D3D"/>
<path d="M234.718 242.415C234.749 242.415 234.78 242.413 234.811 242.409C235.158 242.358 235.398 242.035 235.347 241.689C235.058 239.709 235.373 238.125 235.626 237.262C235.141 237.215 234.7 237.189 234.33 237.176C234.058 238.206 233.796 239.851 234.091 241.872C234.137 242.188 234.408 242.415 234.718 242.415Z" fill="#3D3D3D"/>
<path d="M249.888 163.335C249.888 163.335 263.335 175.045 283.87 172.852C304.404 170.659 307.275 156.443 304.387 145.138C301.499 133.833 296.484 132.099 296.484 132.099L300.103 127.545C300.103 127.545 318.1 141.043 307.57 165.824C298.604 186.924 261.748 184.222 247.906 173.698L249.888 163.335Z" fill="#444444"/>
<path d="M222.496 141.57L218.379 147.888L251.211 165.034L254.491 159.423L222.496 141.57Z" fill="white"/>
<path d="M219.974 141.771C210.736 136.592 202.772 127.449 225.973 112.236C249.174 97.0238 267.002 106.237 281.926 119.38C296.851 132.522 289.652 150.638 281.273 157.316C272.894 163.993 266.576 167.863 253.653 160.752C240.729 153.64 219.974 141.771 219.974 141.771Z" fill="#DADADA"/>
<path d="M235.645 116.231C246.155 109.34 255.668 106.978 264.373 107.587C253.324 102.767 240.737 102.555 225.973 112.235C202.772 127.448 210.736 136.592 219.974 141.771C219.974 141.771 220.31 141.963 220.921 142.312C216.62 136.32 217.873 127.884 235.645 116.231Z" fill="white"/>
<path d="M239.271 119.616C230.401 128.05 225.184 138.918 249.399 153.501C269.863 165.825 279.616 156.089 282.778 149.726C285.939 143.363 287.523 133.451 274.807 121.845C262.091 110.24 250.085 109.334 239.271 119.616Z" fill="white"/>
<path d="M259.65 196.082L240.351 222.154C239.376 223.472 239.758 225.345 241.173 226.174C242.389 226.887 243.947 226.569 244.786 225.435L264.319 199.029L259.65 196.082Z" fill="#292929"/>
<path d="M295.034 155.686C287.651 148.962 270.647 149.709 259.347 164.924C248.753 179.188 252.343 192.183 262.688 198.056C271.803 203.232 284.681 199.403 292.514 187.831C300.348 176.259 302.041 162.068 295.034 155.686ZM289.62 185.353C283.352 194.612 271.967 198.03 266.094 194.889C260.221 191.747 257.923 181.361 266.467 169.055C275.116 156.599 287.577 156.556 292.313 160.648C297.049 164.74 295.888 176.094 289.62 185.353Z" fill="#292929"/>
<path d="M216.371 143.602C225.202 148.147 243.96 160.351 249.203 162.962C254.446 165.573 253.31 169.69 251.219 174.14C249.129 178.59 241.126 190.636 237.952 203.232C234.779 215.828 225.656 212.522 215.525 211.84C205.394 211.158 198.477 210.618 193.892 210.264C188.405 209.841 182.564 209.927 181.766 194.396C180.967 178.865 185.455 159.455 191.914 149.076C198.373 138.697 204.87 137.682 216.371 143.602Z" fill="#DADADA"/>
<path d="M193.081 198.89C192.282 183.358 196.77 163.949 203.229 153.57C207.715 146.363 212.22 143.675 218.405 144.685C217.684 144.29 217 143.924 216.371 143.6C204.87 137.68 198.373 138.695 191.914 149.074C185.455 159.453 180.967 178.863 181.766 194.394C182.564 209.925 188.405 209.839 193.892 210.262C194.455 210.306 195.056 210.352 195.692 210.401C194.329 208.108 193.371 204.533 193.081 198.89Z" fill="white"/>
<path d="M205.448 147.554C207.942 147.954 209.571 150.374 209.019 152.839C207.277 160.631 205.616 176.897 217.954 188.545C233.265 203 246.671 201.533 246.671 201.533L244.954 207.17C244.954 207.17 220.957 205.886 206.174 186.921C195.018 172.609 198.327 157.164 200.621 150.446C201.308 148.435 203.349 147.217 205.448 147.554Z" fill="#444444"/>
<path d="M257.708 198.944L254.36 203.231C254.36 203.231 261.385 204.468 260.316 207.169C259.449 209.36 256.402 208.691 256.402 208.691C256.402 208.691 258.654 210.204 257.047 212.39C256.156 213.603 253.23 212.779 253.23 212.779C253.23 212.779 253.937 213.863 252.971 215.038C252.006 216.213 246.887 215.916 243.567 213.919C240.247 211.922 240.801 208.542 242.804 205.05C244.808 201.558 248.102 196.243 257.708 198.944Z" fill="#444444"/>
<path d="M282.97 120.601L285.787 111.261L293.654 109.195L302.714 118.281C302.714 118.281 305.813 128.822 298.578 133.522C298.578 133.522 290.678 133.733 286.857 127.469C286.857 125.654 288.712 124.429 290.381 125.143L294.741 127.006L296.374 121.258L291.459 114.95L289.397 115.245C289.397 115.245 287.927 121.74 282.97 120.601Z" fill="#444444"/>
<path d="M255.558 137.643C254.52 138.663 252.85 138.648 251.83 137.609C250.809 136.57 250.824 134.901 251.863 133.881C252.902 132.86 254.571 132.875 255.592 133.914C256.612 134.953 256.597 136.622 255.558 137.643Z" fill="#3A3A3A"/>
<path d="M270.538 148.779C269.499 149.8 267.83 149.785 266.809 148.746C265.789 147.707 265.804 146.038 266.843 145.017C267.882 143.997 269.551 144.012 270.571 145.051C271.592 146.09 271.577 147.759 270.538 148.779Z" fill="#3A3A3A"/>
<path d="M237.859 173.279C237.117 172.931 236.793 172.039 237.141 171.297L242.829 159.145C243.177 158.403 244.069 158.079 244.812 158.427C245.554 158.775 245.877 159.666 245.53 160.409L239.841 172.561C239.493 173.304 238.601 173.627 237.859 173.279Z" fill="white"/>
<path d="M245.061 87.9178C243.245 85.5873 241.331 83.896 239.942 82.8252C240.352 81.3512 239.591 79.7754 238.136 79.2007C236.581 78.5865 234.822 79.3498 234.208 80.905C233.593 82.4607 234.356 84.2195 235.912 84.8337C236.988 85.2586 238.16 85.0238 238.985 84.3246C240.284 85.3402 242.053 86.9212 243.707 89.0557C247.838 94.3857 249.342 100.477 248.176 107.158L249.917 107.462C251.485 98.4731 248.142 91.8722 245.061 87.9178Z" fill="#292929"/>
<path d="M223.942 270V256.434H227.692L233.721 268.417L232.798 268.643V256.434H235.624V270H231.875L225.845 258.017L226.768 257.79V270H223.942ZM242.251 270.188C241.196 270.188 240.267 269.981 239.463 269.567C238.671 269.14 238.049 268.549 237.597 267.796C237.158 267.029 236.938 266.15 236.938 265.158C236.938 264.165 237.158 263.299 237.597 262.557C238.049 261.816 238.671 261.239 239.463 260.824C240.267 260.41 241.196 260.202 242.251 260.202C243.319 260.202 244.248 260.41 245.04 260.824C245.844 261.239 246.466 261.816 246.905 262.557C247.345 263.299 247.565 264.165 247.565 265.158C247.565 266.15 247.339 267.029 246.886 267.796C246.447 268.549 245.825 269.14 245.021 269.567C244.23 269.981 243.306 270.188 242.251 270.188ZM242.251 267.965C242.691 267.965 243.087 267.852 243.438 267.626C243.803 267.4 244.091 267.08 244.305 266.665C244.519 266.238 244.625 265.729 244.625 265.139C244.625 264.272 244.393 263.606 243.928 263.142C243.476 262.664 242.917 262.426 242.251 262.426C241.585 262.426 241.02 262.664 240.555 263.142C240.103 263.619 239.877 264.285 239.877 265.139C239.877 265.729 239.984 266.238 240.197 266.665C240.411 267.08 240.694 267.4 241.045 267.626C241.41 267.852 241.812 267.965 242.251 267.965ZM254.234 270V267.739H257.663C258.643 267.739 259.472 267.544 260.15 267.155C260.841 266.753 261.362 266.207 261.714 265.516C262.078 264.825 262.26 264.033 262.26 263.142C262.26 262.262 262.084 261.49 261.733 260.824C261.381 260.158 260.86 259.637 260.169 259.26C259.49 258.883 258.655 258.695 257.663 258.695H254.29V256.434H257.663C259.183 256.434 260.508 256.71 261.638 257.263C262.769 257.803 263.642 258.582 264.257 259.599C264.886 260.604 265.2 261.798 265.2 263.179C265.2 264.561 264.886 265.767 264.257 266.797C263.629 267.814 262.75 268.606 261.62 269.171C260.502 269.724 259.189 270 257.682 270H254.234ZM252.462 270V256.434H255.364V270H252.462ZM272.646 270C272.571 269.724 272.515 269.428 272.477 269.114C272.452 268.8 272.439 268.436 272.439 268.022H272.364V263.481C272.364 263.091 272.232 262.79 271.968 262.576C271.717 262.35 271.34 262.237 270.838 262.237C270.36 262.237 269.977 262.319 269.688 262.482C269.412 262.645 269.23 262.884 269.142 263.198H266.448C266.573 262.331 267.019 261.615 267.785 261.05C268.552 260.485 269.6 260.202 270.932 260.202C272.314 260.202 273.369 260.51 274.097 261.125C274.826 261.741 275.19 262.627 275.19 263.782V268.022C275.19 268.336 275.209 268.656 275.247 268.983C275.297 269.297 275.372 269.636 275.473 270H272.646ZM269.293 270.188C268.338 270.188 267.578 269.95 267.013 269.472C266.448 268.983 266.165 268.336 266.165 267.532C266.165 266.64 266.498 265.924 267.164 265.384C267.842 264.831 268.784 264.473 269.99 264.31L272.797 263.914V265.553L270.461 265.911C269.958 265.987 269.588 266.125 269.349 266.326C269.111 266.527 268.991 266.803 268.991 267.155C268.991 267.469 269.104 267.708 269.33 267.871C269.556 268.034 269.858 268.116 270.235 268.116C270.825 268.116 271.328 267.959 271.742 267.645C272.157 267.318 272.364 266.941 272.364 266.514L272.628 268.022C272.351 268.738 271.931 269.278 271.365 269.642C270.8 270.006 270.109 270.188 269.293 270.188ZM281.26 270.207C280.029 270.207 279.112 269.912 278.509 269.322C277.918 268.719 277.623 267.808 277.623 266.59V258.243L280.45 257.188V266.684C280.45 267.111 280.569 267.431 280.808 267.645C281.046 267.858 281.417 267.965 281.919 267.965C282.108 267.965 282.283 267.946 282.447 267.909C282.61 267.871 282.773 267.827 282.937 267.777V269.925C282.773 270.013 282.541 270.082 282.239 270.132C281.951 270.182 281.624 270.207 281.26 270.207ZM275.833 262.539V260.391H282.937V262.539H275.833ZM290.495 270C290.419 269.724 290.363 269.428 290.325 269.114C290.3 268.8 290.287 268.436 290.287 268.022H290.212V263.481C290.212 263.091 290.08 262.79 289.816 262.576C289.565 262.35 289.188 262.237 288.686 262.237C288.209 262.237 287.825 262.319 287.537 262.482C287.26 262.645 287.078 262.884 286.99 263.198H284.296C284.421 262.331 284.867 261.615 285.634 261.05C286.4 260.485 287.449 260.202 288.78 260.202C290.162 260.202 291.217 260.51 291.946 261.125C292.674 261.741 293.038 262.627 293.038 263.782V268.022C293.038 268.336 293.057 268.656 293.095 268.983C293.145 269.297 293.221 269.636 293.321 270H290.495ZM287.141 270.188C286.186 270.188 285.426 269.95 284.861 269.472C284.296 268.983 284.013 268.336 284.013 267.532C284.013 266.64 284.346 265.924 285.012 265.384C285.69 264.831 286.632 264.473 287.838 264.31L290.645 263.914V265.553L288.309 265.911C287.807 265.987 287.436 266.125 287.197 266.326C286.959 266.527 286.839 266.803 286.839 267.155C286.839 267.469 286.952 267.708 287.179 267.871C287.405 268.034 287.706 268.116 288.083 268.116C288.673 268.116 289.176 267.959 289.59 267.645C290.005 267.318 290.212 266.941 290.212 266.514L290.476 268.022C290.2 268.738 289.779 269.278 289.213 269.642C288.648 270.006 287.957 270.188 287.141 270.188ZM298.61 270V256.434H301.512V270H298.61ZM299.967 264.743V262.52H307.749V264.743H299.967ZM299.967 258.657V256.434H308.182V258.657H299.967ZM314.196 270.188C313.141 270.188 312.211 269.981 311.408 269.567C310.616 269.14 309.994 268.549 309.542 267.796C309.103 267.029 308.883 266.15 308.883 265.158C308.883 264.165 309.103 263.299 309.542 262.557C309.994 261.816 310.616 261.239 311.408 260.824C312.211 260.41 313.141 260.202 314.196 260.202C315.264 260.202 316.193 260.41 316.985 260.824C317.789 261.239 318.41 261.816 318.85 262.557C319.29 263.299 319.51 264.165 319.51 265.158C319.51 266.15 319.283 267.029 318.831 267.796C318.392 268.549 317.77 269.14 316.966 269.567C316.175 269.981 315.251 270.188 314.196 270.188ZM314.196 267.965C314.636 267.965 315.031 267.852 315.383 267.626C315.747 267.4 316.036 267.08 316.25 266.665C316.463 266.238 316.57 265.729 316.57 265.139C316.57 264.272 316.338 263.606 315.873 263.142C315.421 262.664 314.862 262.426 314.196 262.426C313.53 262.426 312.965 262.664 312.5 263.142C312.048 263.619 311.822 264.285 311.822 265.139C311.822 265.729 311.929 266.238 312.142 266.665C312.356 267.08 312.639 267.4 312.99 267.626C313.355 267.852 313.757 267.965 314.196 267.965ZM324.117 270.188C323.438 270.188 322.854 270.044 322.364 269.755C321.887 269.454 321.523 269.058 321.272 268.568C321.02 268.066 320.895 267.507 320.895 266.891V260.391H323.721V266.345C323.721 266.872 323.853 267.268 324.117 267.532C324.38 267.796 324.751 267.927 325.228 267.927C325.655 267.927 326.032 267.827 326.359 267.626C326.685 267.425 326.943 267.149 327.131 266.797C327.332 266.433 327.433 266.018 327.433 265.553L327.678 267.871C327.364 268.562 326.905 269.121 326.302 269.548C325.699 269.975 324.971 270.188 324.117 270.188ZM327.489 270V267.739H327.433V260.391H330.259V270H327.489ZM332.526 270V260.391H335.296V262.652H335.353V270H332.526ZM339.215 270V264.046C339.215 263.518 339.077 263.123 338.801 262.859C338.537 262.595 338.147 262.463 337.632 262.463C337.193 262.463 336.797 262.564 336.445 262.765C336.106 262.966 335.836 263.242 335.635 263.594C335.447 263.945 335.353 264.36 335.353 264.837L335.108 262.52C335.422 261.816 335.88 261.257 336.483 260.843C337.099 260.416 337.852 260.202 338.744 260.202C339.812 260.202 340.628 260.504 341.194 261.107C341.759 261.697 342.041 262.495 342.041 263.5V270H339.215ZM350.994 270V267.871L351.182 267.909C351.057 268.599 350.68 269.152 350.052 269.567C349.436 269.981 348.695 270.188 347.829 270.188C346.949 270.188 346.183 269.987 345.53 269.585C344.889 269.171 344.393 268.593 344.041 267.852C343.69 267.111 343.514 266.238 343.514 265.233C343.514 264.216 343.696 263.33 344.06 262.576C344.424 261.823 344.933 261.239 345.586 260.824C346.252 260.41 347.025 260.202 347.904 260.202C348.821 260.202 349.562 260.416 350.127 260.843C350.705 261.27 351.044 261.854 351.145 262.595L350.937 262.614V256.434H353.764V270H350.994ZM348.733 267.927C349.399 267.927 349.939 267.695 350.353 267.23C350.768 266.753 350.975 266.075 350.975 265.195C350.975 264.316 350.762 263.644 350.335 263.179C349.92 262.702 349.374 262.463 348.695 262.463C348.042 262.463 347.502 262.702 347.075 263.179C346.66 263.657 346.453 264.335 346.453 265.214C346.453 266.093 346.66 266.765 347.075 267.23C347.502 267.695 348.055 267.927 348.733 267.927Z" fill="black"/>
</svg>
