<svg width="467" height="333" viewBox="0 0 467 333" fill="none" xmlns="http://www.w3.org/2000/svg">
<path d="M356.269 221.371C356.328 218.881 356.191 210.626 348.419 202.584C341.172 195.087 329.92 194.095 325.709 196.307C328.922 191.815 327.816 180.848 322.061 173.429C312.791 161.478 300.059 163.499 296.849 163.914C296.718 162.603 296.158 159.158 293.774 155.363C291.04 151.012 285.281 145.388 273.371 143.3C260.081 140.971 251.343 144.394 246.352 147.673C241.945 150.569 239.638 153.799 238.875 155.007C236.361 153.242 223.798 145.343 210.097 152.906C203.927 156.312 200.552 160.924 198.723 165.219C193.696 163.766 189.762 165.452 188.137 166.364C188.137 166.364 175.171 161.277 167.488 172.181C159.804 183.084 166.085 192.104 166.085 192.104C166.085 192.104 155.405 192.389 146.299 202.972C132.973 218.46 138.79 234.219 138.79 234.219H368.106C368.38 234.219 368.601 233.997 368.601 233.724C368.601 224.22 358.537 221.796 356.269 221.371Z" fill="#E3BFFF"/>
<path d="M167.381 233.846H325.731C325.731 233.846 326.23 227.227 320.192 224.521C314.154 221.814 308.791 226.046 308.791 226.046C308.791 226.046 308.473 222.179 304.009 221.115C299.545 220.051 297.397 223.329 297.397 223.329C297.397 223.329 299.76 212.752 289.884 207.129C279.213 201.054 269.01 209.766 269.01 209.766C269.01 209.766 258.342 200.436 243.431 204.837C229.914 208.826 227.566 220.603 227.566 220.603C227.566 220.603 226.414 216.063 221.253 214.647C215.275 213.005 211.346 215.981 211.346 215.981C211.346 215.981 208.159 204.333 193.495 206.716C177.528 209.311 179.367 221.223 179.367 221.223C179.367 221.223 173.665 218.855 169.195 222.946C164.725 227.038 167.381 233.846 167.381 233.846Z" fill="#D7A3FF"/>
<path d="M335.21 121.989L333.803 121.158L334.634 119.751C334.856 119.375 334.73 118.885 334.354 118.662C333.978 118.44 333.488 118.566 333.266 118.942L332.435 120.35L331.027 119.519C330.651 119.296 330.161 119.422 329.939 119.798C329.716 120.175 329.843 120.665 330.219 120.887L331.626 121.718L330.795 123.125C330.573 123.502 330.699 123.991 331.075 124.213C331.451 124.436 331.941 124.31 332.163 123.933L332.994 122.526L334.402 123.357C334.778 123.579 335.268 123.453 335.49 123.077C335.713 122.701 335.587 122.211 335.21 121.989Z" fill="#D7A3FF"/>
<path d="M119.218 153.439L117.811 152.608L118.642 151.201C118.864 150.825 118.738 150.335 118.362 150.113C117.985 149.891 117.496 150.017 117.273 150.393L116.442 151.8L115.035 150.969C114.658 150.747 114.169 150.873 113.947 151.249C113.725 151.625 113.85 152.115 114.227 152.337L115.634 153.168L114.803 154.575C114.581 154.952 114.707 155.442 115.083 155.664C115.459 155.886 115.949 155.76 116.171 155.383L117.002 153.976L118.409 154.807C118.786 155.029 119.276 154.903 119.498 154.527C119.721 154.151 119.595 153.662 119.218 153.439Z" fill="#D7A3FF"/>
<path d="M381.922 169.344L381.02 168.811L381.553 167.908C381.695 167.667 381.615 167.353 381.373 167.21C381.132 167.067 380.818 167.148 380.675 167.39L380.142 168.293L379.239 167.759C378.998 167.616 378.684 167.697 378.541 167.939C378.398 168.18 378.479 168.495 378.721 168.637L379.624 169.17L379.09 170.073C378.947 170.314 379.028 170.629 379.27 170.771C379.511 170.914 379.825 170.833 379.968 170.591L380.501 169.689L381.404 170.222C381.645 170.365 381.959 170.284 382.102 170.042C382.245 169.801 382.164 169.487 381.922 169.344Z" fill="#D7A3FF"/>
<path d="M160.723 125.629L159.556 124.939L160.245 123.773C160.429 123.461 160.325 123.055 160.013 122.87C159.701 122.686 159.295 122.79 159.111 123.102L158.422 124.269L157.255 123.58C156.943 123.396 156.537 123.5 156.353 123.812C156.168 124.124 156.273 124.531 156.585 124.715L157.752 125.404L157.062 126.57C156.878 126.882 156.983 127.289 157.295 127.473C157.607 127.657 158.012 127.552 158.197 127.241L158.886 126.074L160.053 126.763C160.365 126.947 160.771 126.843 160.955 126.531C161.139 126.219 161.035 125.813 160.723 125.629Z" fill="#D7A3FF"/>
<path d="M408.046 240.839C408.046 240.839 409.298 244.486 400.486 248.494C390.144 253.196 365.009 249.653 362.551 258.335C359.867 267.815 379.678 265.142 379.451 276.211C379.258 285.621 365.784 285.277 350.597 285.277C335.409 285.277 192.647 285.277 180.347 285.277C168.047 285.277 170.273 277.074 172.014 273.34C174.543 267.917 173.431 262.914 162.363 262.222C151.62 261.552 143.752 260.975 137.888 260.975C122.251 260.975 125.32 249.626 113.137 249.626C105.26 249.626 95.7832 245.263 95.7832 240.206C145.594 233.188 198.611 229.138 254.515 229.384C308.499 229.621 359.772 233.841 408.046 240.839Z" fill="white"/>
<path d="M184.897 203.921C184.897 203.921 185.596 223.427 190.114 239.87L194.458 238.371C194.458 238.371 192.676 226.554 195.702 207.966L184.897 203.921Z" fill="#444444"/>
<path d="M193.612 237.165C193.612 237.165 198.488 236.987 201.138 238.769C203.788 240.551 203.214 244.211 203.214 244.211H190.508C190.508 244.211 188.923 241.611 189.6 238.408L193.612 237.165Z" fill="#444444"/>
<path d="M198.196 242.414C198.226 242.414 198.257 242.411 198.288 242.407C198.635 242.356 198.875 242.034 198.824 241.687C198.569 239.942 198.784 238.504 199.012 237.596C198.588 237.501 198.166 237.426 197.757 237.367C197.505 238.405 197.29 239.973 197.568 241.871C197.615 242.186 197.886 242.414 198.196 242.414Z" fill="#3D3D3D"/>
<path d="M195.11 242.414C195.141 242.414 195.172 242.412 195.202 242.408C195.549 242.357 195.789 242.034 195.739 241.688C195.449 239.708 195.764 238.124 196.018 237.261C195.533 237.214 195.091 237.188 194.722 237.175C194.449 238.205 194.188 239.85 194.483 241.871C194.529 242.187 194.8 242.414 195.11 242.414Z" fill="#3D3D3D"/>
<path d="M221.12 203.921C221.12 203.921 222.761 225.851 229.722 239.87L234.065 238.371C234.065 238.371 230.367 230.126 232.771 208.389L221.12 203.921Z" fill="#444444"/>
<path d="M233.221 237.165C233.221 237.165 238.097 236.987 240.746 238.769C243.396 240.551 242.823 244.211 242.823 244.211H230.116C230.116 244.211 228.531 241.611 229.208 238.408L233.221 237.165Z" fill="#444444"/>
<path d="M237.804 242.414C237.835 242.414 237.865 242.411 237.896 242.407C238.243 242.356 238.483 242.034 238.433 241.687C238.177 239.942 238.392 238.504 238.621 237.596C238.197 237.501 237.774 237.426 237.366 237.367C237.113 238.405 236.899 239.973 237.176 241.871C237.223 242.186 237.494 242.414 237.804 242.414Z" fill="#3D3D3D"/>
<path d="M234.718 242.414C234.749 242.414 234.78 242.412 234.811 242.408C235.158 242.357 235.398 242.034 235.347 241.688C235.058 239.708 235.373 238.124 235.626 237.261C235.141 237.214 234.7 237.188 234.33 237.175C234.058 238.205 233.796 239.85 234.091 241.871C234.137 242.187 234.408 242.414 234.718 242.414Z" fill="#3D3D3D"/>
<path d="M249.888 163.335C249.888 163.335 263.335 175.045 283.87 172.852C304.404 170.659 307.275 156.443 304.387 145.138C301.499 133.833 296.484 132.099 296.484 132.099L300.103 127.545C300.103 127.545 318.1 141.043 307.57 165.824C298.604 186.924 261.748 184.222 247.906 173.698L249.888 163.335Z" fill="#444444"/>
<path d="M222.496 141.571L218.379 147.889L251.211 165.035L254.491 159.424L222.496 141.571Z" fill="white"/>
<path d="M219.974 141.771C210.736 136.592 202.772 127.449 225.973 112.236C249.174 97.0238 267.002 106.237 281.926 119.38C296.851 132.522 289.652 150.638 281.273 157.316C272.894 163.993 266.576 167.863 253.653 160.752C240.729 153.64 219.974 141.771 219.974 141.771Z" fill="#DADADA"/>
<path d="M235.645 116.231C246.155 109.34 255.668 106.978 264.373 107.587C253.324 102.767 240.737 102.555 225.973 112.235C202.772 127.448 210.736 136.592 219.974 141.771C219.974 141.771 220.31 141.963 220.921 142.312C216.62 136.32 217.873 127.884 235.645 116.231Z" fill="white"/>
<path d="M239.271 119.617C230.401 128.051 225.184 138.919 249.399 153.502C269.863 165.826 279.616 156.09 282.778 149.727C285.939 143.364 287.523 133.452 274.807 121.846C262.091 110.241 250.085 109.335 239.271 119.617Z" fill="white"/>
<path d="M259.65 196.083L240.351 222.155C239.376 223.473 239.758 225.346 241.173 226.175C242.389 226.888 243.947 226.57 244.786 225.436L264.319 199.03L259.65 196.083Z" fill="#292929"/>
<path d="M295.034 155.685C287.651 148.961 270.647 149.708 259.347 164.923C248.753 179.187 252.343 192.182 262.688 198.056C271.803 203.231 284.681 199.402 292.514 187.83C300.348 176.258 302.041 162.067 295.034 155.685ZM289.62 185.352C283.352 194.611 271.967 198.029 266.094 194.888C260.221 191.746 257.923 181.36 266.467 169.054C275.116 156.598 287.577 156.555 292.313 160.647C297.049 164.739 295.888 176.093 289.62 185.352Z" fill="#292929"/>
<path d="M216.371 143.602C225.202 148.147 243.96 160.351 249.203 162.962C254.446 165.573 253.31 169.69 251.219 174.14C249.129 178.59 241.126 190.636 237.952 203.232C234.779 215.828 225.656 212.522 215.525 211.84C205.394 211.158 198.477 210.618 193.892 210.264C188.405 209.841 182.564 209.927 181.766 194.396C180.967 178.865 185.455 159.455 191.914 149.076C198.373 138.697 204.87 137.682 216.371 143.602Z" fill="#DADADA"/>
<path d="M193.081 198.89C192.282 183.358 196.77 163.949 203.229 153.57C207.715 146.363 212.22 143.675 218.405 144.685C217.684 144.29 217 143.924 216.371 143.6C204.87 137.68 198.373 138.695 191.914 149.074C185.455 159.453 180.967 178.863 181.766 194.394C182.564 209.925 188.405 209.839 193.892 210.262C194.455 210.306 195.056 210.352 195.692 210.401C194.329 208.108 193.371 204.533 193.081 198.89Z" fill="white"/>
<path d="M205.448 147.554C207.942 147.954 209.571 150.374 209.019 152.839C207.277 160.631 205.616 176.897 217.954 188.545C233.265 203 246.671 201.533 246.671 201.533L244.954 207.17C244.954 207.17 220.957 205.886 206.174 186.921C195.018 172.609 198.327 157.164 200.621 150.446C201.308 148.435 203.349 147.217 205.448 147.554Z" fill="#444444"/>
<path d="M257.708 198.944L254.36 203.231C254.36 203.231 261.385 204.468 260.316 207.169C259.449 209.36 256.402 208.691 256.402 208.691C256.402 208.691 258.654 210.204 257.047 212.39C256.156 213.603 253.23 212.779 253.23 212.779C253.23 212.779 253.937 213.863 252.971 215.038C252.006 216.213 246.887 215.916 243.567 213.919C240.247 211.922 240.801 208.542 242.804 205.05C244.808 201.558 248.102 196.243 257.708 198.944Z" fill="#444444"/>
<path d="M282.97 120.602L285.787 111.262L293.654 109.196L302.714 118.282C302.714 118.282 305.813 128.823 298.578 133.523C298.578 133.523 290.678 133.734 286.857 127.47C286.857 125.655 288.712 124.43 290.381 125.144L294.741 127.007L296.374 121.259L291.459 114.951L289.397 115.246C289.397 115.246 287.927 121.741 282.97 120.602Z" fill="#444444"/>
<path d="M255.558 137.643C254.52 138.663 252.85 138.648 251.83 137.609C250.809 136.57 250.824 134.901 251.863 133.881C252.902 132.86 254.571 132.875 255.592 133.914C256.612 134.953 256.597 136.622 255.558 137.643Z" fill="#3A3A3A"/>
<path d="M270.538 148.78C269.499 149.801 267.83 149.786 266.809 148.747C265.789 147.708 265.804 146.039 266.843 145.018C267.882 143.998 269.551 144.013 270.571 145.052C271.592 146.091 271.577 147.76 270.538 148.78Z" fill="#3A3A3A"/>
<path d="M237.859 173.278C237.117 172.93 236.793 172.038 237.141 171.296L242.829 159.144C243.177 158.402 244.069 158.078 244.812 158.426C245.554 158.774 245.877 159.665 245.53 160.408L239.841 172.56C239.493 173.303 238.601 173.626 237.859 173.278Z" fill="white"/>
<path d="M245.061 87.9178C243.245 85.5873 241.331 83.896 239.942 82.8252C240.352 81.3512 239.591 79.7754 238.136 79.2007C236.581 78.5865 234.822 79.3498 234.208 80.905C233.593 82.4607 234.356 84.2195 235.912 84.8337C236.988 85.2586 238.16 85.0238 238.985 84.3246C240.284 85.3402 242.053 86.9212 243.707 89.0557C247.838 94.3857 249.342 100.477 248.176 107.158L249.917 107.462C251.485 98.4731 248.142 91.8722 245.061 87.9178Z" fill="#292929"/>
<path d="M223.942 270V256.434H227.692L233.721 268.417L232.798 268.643V256.434H235.624V270H231.875L225.845 258.017L226.768 257.79V270H223.942ZM242.251 270.188C241.196 270.188 240.267 269.981 239.463 269.567C238.671 269.14 238.049 268.549 237.597 267.796C237.158 267.029 236.938 266.15 236.938 265.158C236.938 264.165 237.158 263.299 237.597 262.557C238.049 261.816 238.671 261.239 239.463 260.824C240.267 260.41 241.196 260.202 242.251 260.202C243.319 260.202 244.248 260.41 245.04 260.824C245.844 261.239 246.466 261.816 246.905 262.557C247.345 263.299 247.565 264.165 247.565 265.158C247.565 266.15 247.339 267.029 246.886 267.796C246.447 268.549 245.825 269.14 245.021 269.567C244.23 269.981 243.306 270.188 242.251 270.188ZM242.251 267.965C242.691 267.965 243.087 267.852 243.438 267.626C243.803 267.4 244.091 267.08 244.305 266.665C244.519 266.238 244.625 265.729 244.625 265.139C244.625 264.272 244.393 263.606 243.928 263.142C243.476 262.664 242.917 262.426 242.251 262.426C241.585 262.426 241.02 262.664 240.555 263.142C240.103 263.619 239.877 264.285 239.877 265.139C239.877 265.729 239.984 266.238 240.197 266.665C240.411 267.08 240.694 267.4 241.045 267.626C241.41 267.852 241.812 267.965 242.251 267.965ZM255.76 270.188C255.081 270.188 254.497 270.044 254.007 269.755C253.53 269.454 253.166 269.058 252.915 268.568C252.663 268.066 252.538 267.507 252.538 266.891V260.391H255.364V266.345C255.364 266.872 255.496 267.268 255.76 267.532C256.024 267.796 256.394 267.927 256.871 267.927C257.299 267.927 257.675 267.827 258.002 267.626C258.329 267.425 258.586 267.149 258.774 266.797C258.975 266.433 259.076 266.018 259.076 265.553L259.321 267.871C259.007 268.562 258.548 269.121 257.945 269.548C257.343 269.975 256.614 270.188 255.76 270.188ZM259.132 270V267.739H259.076V260.391H261.902V270H259.132ZM267.922 270.188C266.515 270.188 265.397 269.906 264.568 269.341C263.739 268.775 263.287 267.996 263.212 267.004H265.736C265.799 267.431 266.013 267.758 266.377 267.984C266.754 268.197 267.269 268.304 267.922 268.304C268.512 268.304 268.94 268.223 269.203 268.059C269.48 267.883 269.618 267.638 269.618 267.324C269.618 267.086 269.536 266.904 269.373 266.778C269.222 266.64 268.94 266.527 268.525 266.439L266.98 266.119C265.837 265.88 264.995 265.522 264.455 265.045C263.915 264.555 263.645 263.927 263.645 263.16C263.645 262.231 264.003 261.509 264.719 260.994C265.435 260.466 266.434 260.202 267.715 260.202C268.983 260.202 269.995 260.46 270.748 260.975C271.502 261.477 271.917 262.181 271.992 263.085H269.467C269.417 262.758 269.241 262.514 268.94 262.35C268.638 262.174 268.211 262.086 267.658 262.086C267.156 262.086 266.779 262.162 266.528 262.313C266.289 262.451 266.17 262.652 266.17 262.915C266.17 263.142 266.27 263.324 266.471 263.462C266.672 263.587 267.005 263.701 267.47 263.801L269.203 264.159C270.171 264.36 270.899 264.737 271.389 265.29C271.891 265.83 272.143 266.47 272.143 267.211C272.143 268.153 271.772 268.888 271.031 269.416C270.302 269.931 269.266 270.188 267.922 270.188ZM278.388 270.188C277.321 270.188 276.391 269.981 275.6 269.567C274.808 269.14 274.193 268.549 273.753 267.796C273.326 267.042 273.113 266.175 273.113 265.195C273.113 264.203 273.326 263.336 273.753 262.595C274.193 261.841 274.802 261.257 275.581 260.843C276.36 260.416 277.264 260.202 278.294 260.202C279.287 260.202 280.147 260.403 280.876 260.805C281.604 261.207 282.169 261.766 282.571 262.482C282.973 263.198 283.174 264.04 283.174 265.007C283.174 265.208 283.168 265.396 283.155 265.572C283.143 265.735 283.124 265.892 283.099 266.043H274.771V264.178H280.819L280.329 264.517C280.329 263.738 280.141 263.167 279.764 262.802C279.4 262.426 278.897 262.237 278.257 262.237C277.515 262.237 276.938 262.488 276.523 262.991C276.121 263.493 275.92 264.247 275.92 265.252C275.92 266.232 276.121 266.96 276.523 267.438C276.938 267.915 277.553 268.153 278.37 268.153C278.822 268.153 279.211 268.078 279.538 267.927C279.864 267.777 280.109 267.532 280.273 267.193H282.929C282.615 268.122 282.075 268.857 281.309 269.397C280.555 269.925 279.582 270.188 278.388 270.188ZM284.686 270V260.391H287.455V262.652H287.512V270H284.686ZM287.512 264.988L287.267 262.708C287.493 261.892 287.864 261.27 288.379 260.843C288.894 260.416 289.534 260.202 290.301 260.202C290.539 260.202 290.715 260.227 290.828 260.278V262.915C290.765 262.89 290.677 262.878 290.564 262.878C290.451 262.865 290.313 262.859 290.15 262.859C289.245 262.859 288.58 263.022 288.153 263.349C287.726 263.663 287.512 264.209 287.512 264.988ZM296.516 270V259.75C296.516 258.594 296.83 257.721 297.458 257.131C298.086 256.541 299.016 256.245 300.247 256.245C300.51 256.245 300.736 256.258 300.925 256.283C301.126 256.308 301.321 256.352 301.509 256.415V258.582C301.421 258.544 301.314 258.519 301.189 258.506C301.063 258.481 300.912 258.469 300.736 258.469C300.259 258.469 299.907 258.582 299.681 258.808C299.455 259.034 299.342 259.361 299.342 259.788V270H296.516ZM294.914 262.539V260.391H301.302V262.539H294.914ZM307.02 270.188C305.965 270.188 305.035 269.981 304.231 269.567C303.44 269.14 302.818 268.549 302.366 267.796C301.926 267.029 301.707 266.15 301.707 265.158C301.707 264.165 301.926 263.299 302.366 262.557C302.818 261.816 303.44 261.239 304.231 260.824C305.035 260.41 305.965 260.202 307.02 260.202C308.088 260.202 309.017 260.41 309.809 260.824C310.613 261.239 311.234 261.816 311.674 262.557C312.114 263.299 312.333 264.165 312.333 265.158C312.333 266.15 312.107 267.029 311.655 267.796C311.216 268.549 310.594 269.14 309.79 269.567C308.998 269.981 308.075 270.188 307.02 270.188ZM307.02 267.965C307.46 267.965 307.855 267.852 308.207 267.626C308.571 267.4 308.86 267.08 309.074 266.665C309.287 266.238 309.394 265.729 309.394 265.139C309.394 264.272 309.162 263.606 308.697 263.142C308.245 262.664 307.686 262.426 307.02 262.426C306.354 262.426 305.789 262.664 305.324 263.142C304.872 263.619 304.646 264.285 304.646 265.139C304.646 265.729 304.753 266.238 304.966 266.665C305.18 267.08 305.462 267.4 305.814 267.626C306.178 267.852 306.58 267.965 307.02 267.965ZM316.941 270.188C316.262 270.188 315.678 270.044 315.188 269.755C314.711 269.454 314.347 269.058 314.095 268.568C313.844 268.066 313.719 267.507 313.719 266.891V260.391H316.545V266.345C316.545 266.872 316.677 267.268 316.941 267.532C317.204 267.796 317.575 267.927 318.052 267.927C318.479 267.927 318.856 267.827 319.183 267.626C319.509 267.425 319.767 267.149 319.955 266.797C320.156 266.433 320.257 266.018 320.257 265.553L320.502 267.871C320.188 268.562 319.729 269.121 319.126 269.548C318.523 269.975 317.795 270.188 316.941 270.188ZM320.313 270V267.739H320.257V260.391H323.083V270H320.313ZM325.35 270V260.391H328.12V262.652H328.176V270H325.35ZM332.039 270V264.046C332.039 263.518 331.901 263.123 331.625 262.859C331.361 262.595 330.971 262.463 330.456 262.463C330.017 262.463 329.621 262.564 329.269 262.765C328.93 262.966 328.66 263.242 328.459 263.594C328.271 263.945 328.176 264.36 328.176 264.837L327.932 262.52C328.246 261.816 328.704 261.257 329.307 260.843C329.923 260.416 330.676 260.202 331.568 260.202C332.636 260.202 333.452 260.504 334.017 261.107C334.583 261.697 334.865 262.495 334.865 263.5V270H332.039ZM343.818 270V267.871L344.006 267.909C343.881 268.599 343.504 269.152 342.876 269.567C342.26 269.981 341.519 270.188 340.652 270.188C339.773 270.188 339.007 269.987 338.354 269.585C337.713 269.171 337.217 268.593 336.865 267.852C336.514 267.111 336.338 266.238 336.338 265.233C336.338 264.216 336.52 263.33 336.884 262.576C337.248 261.823 337.757 261.239 338.41 260.824C339.076 260.41 339.849 260.202 340.728 260.202C341.645 260.202 342.386 260.416 342.951 260.843C343.529 261.27 343.868 261.854 343.969 262.595L343.761 262.614V256.434H346.588V270H343.818ZM341.557 267.927C342.223 267.927 342.763 267.695 343.177 267.23C343.592 266.753 343.799 266.075 343.799 265.195C343.799 264.316 343.586 263.644 343.158 263.179C342.744 262.702 342.197 262.463 341.519 262.463C340.866 262.463 340.326 262.702 339.899 263.179C339.484 263.657 339.277 264.335 339.277 265.214C339.277 266.093 339.484 266.765 339.899 267.23C340.326 267.695 340.879 267.927 341.557 267.927Z" fill="black"/>
</svg>
