<svg width="144" height="146" viewBox="0 0 144 146" fill="none" xmlns="http://www.w3.org/2000/svg">
<path d="M141.726 56.0779L72.083 81.3943V55.2597L143.977 29.125V52.7785C143.977 54.2641 143.074 55.5878 141.726 56.0779Z" fill="#BBBBBB"/>
<path d="M0.189453 29.1268L70.254 3.65686C71.4384 3.22636 72.7278 3.22636 73.9122 3.65686L143.977 29.1268L72.0831 55.2614L0.189453 29.1268Z" fill="white"/>
<path d="M2.44042 56.0779L72.0831 81.3943V55.2597L0.189453 29.125V52.7785C0.189453 54.2641 1.09224 55.5878 2.44042 56.0779Z" fill="white"/>
<path d="M132.053 123.569L72.083 145.369V81.396L135.545 58.3262V118.449C135.545 120.754 134.144 122.808 132.053 123.569Z" fill="#BBBBBB"/>
<path d="M12.113 123.569L72.0826 145.369V81.396L8.62012 58.3262V118.449C8.62037 120.754 10.0212 122.808 12.113 123.569Z" fill="white"/>
<path d="M102.062 134.469V44.3613L115.526 39.4668V129.574L102.062 134.469Z" fill="#FF00B7"/>
<path d="M115.527 39.4678L44.6938 12.9473L31.9922 17.5647L102.063 44.3623L115.527 39.4678Z" fill="#FF00B7"/>
<path d="M42.1038 134.469V44.3613L28.6396 39.4668V129.574L42.1038 134.469Z" fill="#F35EBD"/>
<path opacity="0.31" d="M8.62012 58.3262V116.101C51.3289 118.077 61.2747 89.2099 63.5039 78.2777L8.62012 58.3262Z" fill="#FCF9F2"/>
<path d="M28.6396 39.4678L99.4723 12.9473L112.174 17.5647L42.1038 44.3623L28.6396 39.4678Z" fill="#FF00B7"/>
<path opacity="0.55" d="M8.62012 58.3262V64.7928L72.0826 88.1601V81.396L8.62012 58.3262Z" fill="#588893" fill-opacity="0.68"/>
<path d="M135.545 58.3262L72.083 81.396V88.1601L135.545 64.5878V58.3262Z" fill="#588893" fill-opacity="0.68"/>
<path opacity="0.53" d="M5.86328 29.8184C11.4755 31.3484 17.0146 33.0951 22.5284 34.9182C28.0466 36.7279 33.528 38.6475 38.9889 40.6277C44.4481 42.6135 49.8855 44.6639 55.2866 46.8226C60.6921 48.9682 66.0713 51.1917 71.3774 53.6338C65.7644 52.1064 60.2248 50.3607 54.7112 48.5371C49.1933 46.7266 43.7116 44.8078 38.2517 42.8241C32.7936 40.8351 27.3562 38.7855 21.9553 36.6258C16.5498 34.48 11.1701 32.2575 5.86328 29.8184Z" fill="#FCF9F2"/>
<path opacity="0.59" d="M93.8946 6.87968C82.2506 8.19459 75.3909 18.6157 73.7708 21.3668V21.3663C73.7708 21.3663 69.355 20.2115 68.2659 21.8774C68.2654 21.8782 68.2649 21.8792 68.2644 21.8798C66.7989 19.7695 58.8979 9.25475 46.7414 8.95907C33.2279 8.63041 29.4054 22.0372 31.7885 28.4873C33.6554 33.5403 41.4825 40.894 55.0765 38.7526C54.7793 39.3921 54.4313 40.1093 54.0227 40.898C53.9138 41.1083 53.8004 41.3237 53.6833 41.5433C51.841 44.9966 48.9696 49.5692 44.7845 54.2303C50.8549 54.656 56.1354 53.0363 56.1354 53.0363C56.1354 53.0363 56.1354 53.0363 59.3147 61.6789C66.3541 53.1132 69.2339 44.1258 70.3986 38.7348C70.3991 38.7348 70.3994 38.7348 70.3999 38.7348C70.4211 38.6364 70.4402 38.5428 70.4604 38.4468C70.4776 38.366 70.4952 38.2836 70.5113 38.2043C70.5537 37.9977 70.5931 37.7975 70.6304 37.6034C70.6462 37.5209 70.6603 37.4428 70.6753 37.3625C70.6988 37.2364 70.7213 37.113 70.7425 36.9928C70.7571 36.9109 70.7714 36.8301 70.785 36.7509C70.8072 36.6211 70.8279 36.4964 70.8478 36.3743C70.8608 36.2932 70.8739 36.2135 70.8861 36.1356C70.9066 36.005 70.9257 35.8784 70.9436 35.7577C70.9533 35.691 70.9623 35.6279 70.9712 35.5641C70.973 35.5511 70.9751 35.5373 70.9769 35.5242C71.1583 35.5253 71.3402 35.5203 71.5224 35.5078C71.5467 35.6125 71.5728 35.7213 71.6001 35.8343C71.62 35.917 71.6402 35.9999 71.6619 36.0872C71.6826 36.1704 71.7043 36.2555 71.7266 36.3427C71.7488 36.4296 71.7723 36.5195 71.7961 36.6105C71.8219 36.7083 71.8475 36.8056 71.875 36.9078C71.9154 37.0572 71.9578 37.2114 72.0026 37.3699C72.0294 37.4654 72.058 37.5637 72.0864 37.6621C72.1175 37.7701 72.1497 37.8799 72.183 37.9919C72.2129 38.0926 72.2425 38.1926 72.2739 38.2966C72.2785 38.3117 72.2826 38.3258 72.2872 38.341C72.2875 38.341 72.2875 38.341 72.2877 38.3407C73.8812 43.5724 77.5435 52.4585 85.4713 60.5253C87.8666 51.6369 87.8666 51.6369 87.8666 51.6369C87.8666 51.6369 93.2708 52.7853 99.2791 51.827C94.3893 47.2683 90.9964 42.6777 88.8693 39.3331C88.3803 38.5638 87.9586 37.8613 87.6006 37.2393C101.758 38.4785 109.101 30.2933 110.531 25.0143C112.33 18.3804 107.326 5.36294 93.8946 6.87968Z" fill="white"/>
<path d="M72.2529 29.3938C72.2529 29.3938 74.4191 44.8401 86.9405 58.191C89.4008 48.625 89.4008 48.625 89.4008 48.625C89.4008 48.625 94.9512 49.861 101.122 48.8295C91.5189 39.448 87.527 29.9318 87.527 29.9318L78.9126 24.1113L72.2529 29.3938Z" fill="#F35EBD"/>
<path d="M72.254 29.3933C72.254 29.3933 71.4123 44.9787 60.0775 59.4318C56.8121 50.1306 56.8121 50.1306 56.8121 50.1306C56.8121 50.1306 51.3887 51.8739 45.1543 51.4158C53.9203 41.1853 57.0855 31.3382 57.0855 31.3382L65.1705 24.7461L72.254 29.3933Z" fill="#F35EBD"/>
<path d="M87.527 29.9318L78.9126 24.1113L72.2529 29.3938C72.2529 29.3938 72.5189 31.2858 73.3998 34.3155C78.6759 32.6826 86.396 34.3038 90.4308 35.3834C88.4382 32.1 87.527 29.9318 87.527 29.9318Z" fill="#A40076"/>
<path d="M65.169 24.7461L57.084 31.3382C57.084 31.3382 56.2566 33.9063 54.2842 37.7777C58.1733 36.4915 66.1906 34.1502 71.4607 34.7391C72.1411 31.4414 72.252 29.3933 72.252 29.3933L65.169 24.7461Z" fill="#A40076"/>
<path d="M74.5343 16.7689C74.5343 16.7689 81.796 2.08974 95.59 0.457334C109.384 -1.17507 114.524 12.8345 112.677 19.9744C110.831 27.1145 99.3948 39.1955 76.5277 29.8744C74.3892 24.57 74.5343 16.7689 74.5343 16.7689Z" fill="#F35EBD"/>
<path d="M76.5293 29.8747C76.5293 29.8747 82.7957 19.8776 95.6212 17.9546C108.447 16.0316 110.433 22.4288 107.914 25.9467C105.396 29.4649 95.3887 34.904 76.5293 29.8747Z" fill="#A40076"/>
<path d="M76.8691 18.2363C76.8691 18.2363 83.3532 7.7383 87.3771 6.80603C91.4004 5.87402 76.8691 18.2363 76.8691 18.2363Z" fill="#FF00B7"/>
<path d="M69.5254 16.9989C69.5254 16.9989 61.042 3.04727 47.1626 2.69388C33.2838 2.34023 29.3578 16.7689 31.8055 23.7104C34.253 30.6519 46.6733 41.6306 68.656 30.2365C70.3346 24.7556 69.5254 16.9989 69.5254 16.9989Z" fill="#F35EBD"/>
<path d="M68.6564 30.2369C68.6564 30.2369 61.5632 20.8573 48.6242 20.125C35.6851 19.3927 34.2524 25.9478 37.0606 29.2195C39.8689 32.4912 50.2997 36.9859 68.6564 30.2369Z" fill="#A40076"/>
<path d="M67.3267 18.6786C67.3267 18.6786 59.9738 8.82006 55.8866 8.26272C51.7994 7.70538 67.3267 18.6786 67.3267 18.6786Z" fill="#FF00B7"/>
<path d="M74.9228 16.0466C74.9228 16.0466 77.0347 24.9297 76.5285 29.8727C74.4426 31.4062 70.8795 31.9303 68.7752 30.2309C66.6709 28.5317 68.0362 18.519 69.2689 16.5965C70.3874 14.8035 74.9228 16.0466 74.9228 16.0466Z" fill="#FF00B7"/>
<path d="M78.4023 20.0705C78.4023 20.0705 90.1176 5.45119 102.062 10.9855C95.5395 10.217 84.9028 13.7821 78.4023 20.0705Z" fill="#FF00B7"/>
<path d="M64.9592 21.8999C64.9592 21.8999 54.7656 15.0349 43.6855 18.2367C48.1175 15.1357 62.1647 16.5179 64.9592 21.8999Z" fill="#FF00B7"/>
</svg>
