<svg width="13" height="10" viewBox="0 0 13 10" fill="none" xmlns="http://www.w3.org/2000/svg">
<path fill-rule="evenodd" clip-rule="evenodd" d="M10.0988 2.6748L10.7506 2.67875C10.8248 2.67316 10.8996 2.67348 10.9744 2.6799L12.5666 2.68857C12.8087 2.70278 13.0007 2.90829 13.0007 3.15983C13.0007 3.27871 12.9578 3.38731 12.8871 3.47021L12.1123 4.84426C12.1062 4.85585 12.0999 4.86739 12.0934 4.87888L10.1763 8.28789C9.91659 8.74968 9.4496 9.01197 8.96566 9.02242L8.94317 9.02273C8.9307 9.02279 8.91823 9.02269 8.90575 9.02243L3.23279 8.99271H2.60059L2.60062 8.98122C3.08089 8.91286 3.48497 8.59981 3.68958 8.16864L3.69415 8.16875L6.47344 3.20633C6.62945 2.89093 6.94844 2.6748 7.31659 2.6748L7.29095 2.67536L7.29182 2.6748H10.0988Z" fill="#2BBDF7"/>
<path fill-rule="evenodd" clip-rule="evenodd" d="M5.65751 0.238776L10.6649 0.238858C10.907 0.25308 11.0989 0.458585 11.0989 0.710116C11.0989 0.81094 11.0681 0.904369 11.0155 0.981002L9.66415 3.38959L8.22757 5.9494L8.22838 5.94917H8.24008L7.78066 6.76674C7.39338 7.4554 7.61087 8.33215 8.26395 8.7488L8.30447 8.77373C8.48845 8.88278 8.6862 8.94512 8.88472 8.96434L8.88477 8.99872L6.51738 8.99867L6.51643 9.00082H2.41097C2.17786 8.99649 1.94116 8.93587 1.72216 8.81124C1.01785 8.41043 0.763378 7.49934 1.15379 6.77626L4.26936 1.00586C4.5549 0.477005 5.10632 0.195198 5.65751 0.238776Z" fill="#2B6DEF"/>
<path fill-rule="evenodd" clip-rule="evenodd" d="M7.29903 2.67554L10.0564 2.67843L9.65757 3.38953L8.22099 5.94934L8.2218 5.94911H8.2335L7.77408 6.76669C7.3868 7.45535 7.60429 8.3321 8.25737 8.74874L8.2979 8.77367C8.48187 8.88272 8.67963 8.94507 8.87814 8.96429L8.87819 8.99866L6.5108 8.99862L6.50985 9.00076L2.58887 9.00089C3.02356 8.9546 3.43165 8.70889 3.67756 8.30266L3.70521 8.25507L6.60523 3.05079C6.76972 2.83254 7.02283 2.68826 7.30918 2.6748L7.29903 2.67554Z" fill="#003CB2"/>
</svg>
